<?xml version="1.0" encoding="utf-8"?><svg width="1275" height="512" viewBox="0 0 1275 512" xmlns="http://www.w3.org/2000/svg" xmlns:xlink="http://www.w3.org/1999/xlink"><svg viewBox="0 0 425 512" width="425" height="512" id="circlegithubalt" xmlns="http://www.w3.org/2000/svg"><path d="M274.5 253q20.5 0 32.5 14.5 12 15 12 35.5 0 15.5-5.75 26.5t-14.25 18-21 10.5q-13 4-24.25 5T228 364h-29.5q-14 0-25.5-1t-24.5-5q-13-3.5-21-10.5-8.5-7-14-18T108 303q0-20.5 12-35.5 12-14.5 32.5-14.5 4 0 12.25 1t21.25 2.5q6 1 13 1.5t14.5.5q7 0 14-.5t13-1.5q13.5-1.5 21.75-2.5t12.25-1zm-104 77.5q8-9.5 9.25-20.5T178 289q-2.5-7.5-7.75-13.5t-12.25-6-13 6q-7.5 9.5-8.75 20.5t1.25 21q2.5 7.5 7.75 13.5t12.75 6q7 0 12.5-6zm111 0q8-9.5 9.25-20.5t-2.25-21q-2-7.5-7.25-13.5t-12.25-6-13 6q-7.5 9.5-8.75 20.5t1.25 21q2.5 7.5 7.75 13.5t12.75 6q7 0 12.5-6zM212.5 50Q256 50 294 66.5t66.5 44.75 45 66.5T422 259.5 405.5 341t-45 66.5-66.5 45-81.5 16.5-81.5-16.5-66.5-45-45-66.5T3 259.5t16.5-81.75 45-66.5T131 66.5 212.5 50zM347 330q10.5-21.5 10.5-57.5 0-42-23.5-69 4.5-14 4.5-29 0-19.5-8.5-38-18 0-33 7-7 3.5-15 8.75t-17.5 12.25q-22.5-6-48.5-6-14 0-27.25 1.75T162.5 165q-19-15-33-21.5-15-7-32.5-7-9 18-9 38 0 15.5 4.5 29.5Q69 231.5 69 272.5q0 36 11 57.5 8 17.5 24.75 27.75t34.75 14.75q13 4 26.5 5.5 7 1 13.5 1.5t12 .5q5.5.5 11.5.5h28.25L245 380l13.75-1.5 15.75-2.5q17.5-3 29.5-8 13-5.5 24.5-15.25T347 330z"/></svg><svg viewBox="0 0 425 512" width="425" height="512" id="circlelinkedin" x="425" xmlns="http://www.w3.org/2000/svg"><path d="M212 51.5q43.5 0 81.5 16.5t66.5 44.75T405 179t16.5 81.5T405 342t-45 66.5-66.5 45T212 470t-81.5-16.5-66.25-45T19.5 342 3 260.5 19.5 179t44.75-66.25T130.5 68 212 51.5zm-65 157H94.5v170H147v-170zM120.5 195q11 0 18.75-7.5T147 169t-7.75-18.5-18.75-7.5-18.5 7.5-7.5 18.5 7.5 18.5 18.5 7.5zM330 280q0-18-10-35.25t-26-26.25q-14.5-8-33.75-8.5T225 216.5v-8h-52v170h52v-104l22-10.5q4-2 10.75-2t10.75 2.5q3 1.5 6 6.5t3 9v98.5H330V280z"/></svg><svg viewBox="0 0 425 512" width="425" height="512" id="circletwitterbird" x="850" xmlns="http://www.w3.org/2000/svg"><path d="M212 50.5q43.5 0 81.5 16.5t66.5 44.75T405 178t16.5 81.5T405 341t-45 66.5-66.5 45T212 469t-81.5-16.5-66.25-45T19.5 341 3 259.5 19.5 178t44.75-66.25T130.5 67 212 50.5zm104 164q14.5-11 25.5-26.5-7 3-14.25 5T312 196q8-5 14-12.25t8.5-15.75q-7.5 4-15.5 7.25T302.5 180q-7-7-16.5-11.5t-21-4.5q-10.5 0-19.75 4t-16 11-10.75 16.25-4 19.75q0 3 .25 6t.75 5.5Q184 225 157 211t-46-37.5q-7 11.5-7 25.5 0 13 6.25 24.25t16.25 18.25q-13-1-23-6.5v.5q0 19 11.75 32.75t29.25 17.25q-3.5 1-6.75 1.5t-6.75.5q-2.5 0-4.75-.25t-4.75-.75q5 15 17.75 25t29.75 10q-13 10.5-29.25 16.25T106 343.5q-3.5 0-6.5-.25t-6-.75q17 11 36.75 17t41.25 6q35 0 62-13.25t45.25-34 27.75-46.5T316 221v-6.5z"/></svg></svg>
