<svg xmlns="http://www.w3.org/2000/svg" width="330" height="216.44" viewBox="0 0 330 216.44"><title>essia-health</title><path d="M234.75,128.51c-41.15,50.08-120.14,34.93-138.35-26C79.51,46,124.33,5.66,171.34,5.66s58.42,34.24,56.84,55.17-22.46,47.8-52.86,47.71c-7.48,0-14.4-7.78-5.57-9.84,21.86-5.19,35.75-24.44,33.35-39.59-2.44-15.53-12.73-28.13-36.4-23.54s-43.27,24.56-37.32,59.36c5,28.88,43.93,57.43,96.77,27.22,8.3-4.74,14.85-1.26,8.58,6.36" fill="#8dc63f"/><path d="M8.64,210.47V193.89h16.8v2.82H12.05v3.81H23.11v2.85H12.05v4.25H25.43v2.85Z" fill="#231f20"/><path d="M54.48,197.16a26.12,26.12,0,0,0-7.46-.83c-2.11,0-5.8.09-5.8,2,0,4.16,14.66-.59,14.66,7.28,0,4.43-5.05,5.2-9.39,5.2a42.8,42.8,0,0,1-8.86-.86l.12-2.88a37,37,0,0,0,8.77,1c3,0,6.15-.39,6.15-2.32,0-4.46-14.69.42-14.69-7.22,0-4.4,5.29-4.91,9-4.91a28.39,28.39,0,0,1,7.61.86Z" fill="#231f20"/><path d="M84,197.16a26.12,26.12,0,0,0-7.46-.83c-2.11,0-5.8.09-5.8,2,0,4.16,14.66-.59,14.66,7.28,0,4.43-5.05,5.2-9.39,5.2a42.79,42.79,0,0,1-8.86-.86l.12-2.88a37,37,0,0,0,8.77,1c3,0,6.15-.39,6.15-2.32,0-4.46-14.69.42-14.69-7.22,0-4.4,5.29-4.91,9-4.91a28.39,28.39,0,0,1,7.61.86Z" fill="#231f20"/><path d="M97,210.47V193.89h3.39v16.59Z" fill="#231f20"/><path d="M125.91,207.14H115.57l-2.11,3.33h-3.78l11.06-16.89,11.06,16.89H128Zm-8.53-2.89h6.69L120.74,199Z" fill="#231f20"/><path d="M176.3,210.47v-8.41H163.1v8.41h-3.39V193.89h3.39v5.26h13.2v-5.26h3.39v16.59Z" fill="#231f20"/><path d="M192,210.47V193.89h16.8v2.82H195.44v3.81H206.5v2.85H195.44v4.25h13.38v2.85Z" fill="#231f20"/><path d="M234.15,207.14H223.8l-2.11,3.33h-3.78L229,193.59,240,210.47h-3.78Zm-8.53-2.89h6.69L229,199Z" fill="#231f20"/><path d="M250,210.47V193.89h3.39v13.73h12.43v2.85Z" fill="#231f20"/><path d="M280.16,210.47V196.74h-7.43v-2.85H291v2.85h-7.46v13.73Z" fill="#231f20"/><path d="M318,210.47v-8.41h-13.2v8.41h-3.39V193.89h3.39v5.26H318v-5.26h3.39v16.59Z" fill="#231f20"/></svg>