<svg xmlns="http://www.w3.org/2000/svg" viewBox="-2594 4815 18 60"><defs><style>.a{fill:#2f0531;}</style></defs><path class="a" d="M50,80a3.784,3.784,0,0,1-2.8-1.2A5.279,5.279,0,0,1,45.8,75l.9-29.4c-3.4-2-5.7-6.8-5.7-12.3C41,25.9,45,20,50,20s9,5.9,9,13.2c0,5.5-2.3,10.3-5.7,12.3l.9,29.4a5.384,5.384,0,0,1-1.4,3.8A3.545,3.545,0,0,1,50,80Zm0-58c-3.9,0-7,5-7,11.2,0,5,2.1,9.4,5.1,10.8a.961.961,0,0,1,.6.9l-.9,30a3.406,3.406,0,0,0,.9,2.4,1.933,1.933,0,0,0,2.8,0,2.952,2.952,0,0,0,.8-2.4l-.9-30A.875.875,0,0,1,52,44c3-1.4,5.1-5.8,5.1-10.8C57,27,53.9,22,50,22Z" transform="translate(-2635 4795)"/></svg>