<svg xmlns="http://www.w3.org/2000/svg" width="308" height="308" viewBox="0 0 308 308"><title>pendletonpsych</title><path d="M210.13,198.78c34.64-4.54,50.62-26.34,50.62-46.8s-16-42.26-50.62-46.8a61.69,61.69,0,0,0-9.33-.86v-3.93c0-17.83,6-17.83,11.71-17.83V74H192.26V90.62a47.82,47.82,0,0,0-34-18v-.2H154c-15.81,0-29.79,7.22-38.27,18.22V74H95.46v8.54c10.9,0,11.71,7.06,11.71,17.83v3.93a61.67,61.67,0,0,0-9.3.86C63.22,109.71,47.23,131.51,47.23,152s16,42.27,50.64,46.81a61.67,61.67,0,0,0,9.3.86v11.24c0,17.83-6,17.83-11.71,17.83v8.54h20.26V216.71a47.82,47.82,0,0,0,34,18v.2H154c15.81,0,29.8-7.22,38.27-18.22v20.55h20.26v-8.54c-10.9,0-11.71-7.06-11.71-17.83V199.64A61.69,61.69,0,0,0,210.13,198.78Zm-9.33-79.34V113a89.42,89.42,0,0,1,10.62,1c21.88,4.55,32,21.78,32,38s-10.12,33.44-32,38a89.42,89.42,0,0,1-10.62,1V119.44Zm-8.54-4.27v47.74c-6.61-7.87-18.15-13.51-38.27-13.51-20.67,0-30.09-17.74-30.09-34.23,0-9.13,2.72-17.59,7.66-23.82C137,84.54,144.72,80.94,154,80.94,175.09,80.94,192.26,96.29,192.26,115.17ZM107.18,187.9V191a89.41,89.41,0,0,1-10.58-1c-21.9-4.53-32-21.78-32-38s10.14-33.46,32-38a89.41,89.41,0,0,1,10.58-1V187.9Zm8.54,4.27V143c7.78,9.73,20.71,14.9,38.27,14.9,21.31,0,31,17.74,31,34.23,0,9.1-2.79,17.54-7.86,23.77-5.58,6.84-13.58,10.45-23.15,10.45C132.89,226.38,115.72,211,115.72,192.17Z" fill="#084003"/><path d="M154,306.5C69.91,306.5,1.5,238.09,1.5,154S69.91,1.5,154,1.5,306.5,69.91,306.5,154,238.09,306.5,154,306.5ZM154,10C74.62,10,10,74.62,10,154S74.62,298,154,298s144-64.58,144-144S233.38,10,154,10Z" fill="#084003"/><path d="M153.89,286.28c-73,0-132.38-59.38-132.38-132.38S80.9,21.51,153.89,21.51,286.27,80.9,286.27,153.9,226.89,286.28,153.89,286.28Zm0-260.5A128.12,128.12,0,1,0,282,153.9,128.26,128.26,0,0,0,153.89,25.78Z" fill="#084003"/></svg>