<svg xmlns="http://www.w3.org/2000/svg" viewBox="0 0 425 512"><path d="M274.5 253q20.5 0 32.5 14.5 12 15 12 35.5 0 15.5-5.75 26.5t-14.25 18-21 10.5q-13 4-24.25 5T228 364h-29.5q-14 0-25.5-1t-24.5-5q-13-3.5-21-10.5-8.5-7-14-18T108 303q0-20.5 12-35.5 12-14.5 32.5-14.5 4 0 12.25 1t21.25 2.5q6 1 13 1.5t14.5.5q7 0 14-.5t13-1.5q13.5-1.5 21.75-2.5t12.25-1zm-104 77.5q8-9.5 9.25-20.5T178 289q-2.5-7.5-7.75-13.5t-12.25-6-13 6q-7.5 9.5-8.75 20.5t1.25 21q2.5 7.5 7.75 13.5t12.75 6q7 0 12.5-6zm111 0q8-9.5 9.25-20.5t-2.25-21q-2-7.5-7.25-13.5t-12.25-6-13 6q-7.5 9.5-8.75 20.5t1.25 21q2.5 7.5 7.75 13.5t12.75 6q7 0 12.5-6zM212.5 50Q256 50 294 66.5t66.5 44.75 45 66.5T422 259.5 405.5 341t-45 66.5-66.5 45-81.5 16.5-81.5-16.5-66.5-45-45-66.5T3 259.5t16.5-81.75 45-66.5T131 66.5 212.5 50zM347 330q10.5-21.5 10.5-57.5 0-42-23.5-69 4.5-14 4.5-29 0-19.5-8.5-38-18 0-33 7-7 3.5-15 8.75t-17.5 12.25q-22.5-6-48.5-6-14 0-27.25 1.75T162.5 165q-19-15-33-21.5-15-7-32.5-7-9 18-9 38 0 15.5 4.5 29.5Q69 231.5 69 272.5q0 36 11 57.5 8 17.5 24.75 27.75t34.75 14.75q13 4 26.5 5.5 7 1 13.5 1.5t12 .5q5.5.5 11.5.5h28.25L245 380l13.75-1.5 15.75-2.5q17.5-3 29.5-8 13-5.5 24.5-15.25T347 330z"/></svg>