<svg xmlns="http://www.w3.org/2000/svg" viewBox="0 0 425 512"><path d="M81.5 312V207.5h16V222q5.5-8 13.5-12 8-5 18.5-5 12.5 0 19.5 5 7.5 4.5 10.5 13.5Q172 205 192 205q16 0 24.5 8.5Q225 223 225 240v72h-18v-66q0-10.5-1.5-15-2.5-5.5-6.5-7.5-4.5-3-11-3-11 0-18.5 7.5-7 6.5-7 23v61h-18v-68q0-11.5-4.5-17.5t-14.5-6q-7 0-14 4-7 4.5-9 11.5-3 7.5-3 21.5V312h-18zM324 278l18.5 2.5q-4.5 16-16 25Q314 314 296 314q-23.5 0-37-14t-13.5-39.5q0-26.5 14-41Q273 205 295 205q21 0 34.5 14.5t13.5 40v4.5h-79q.5 17.5 10 26.5 9 9 22 9 10.5 0 17-5t11-16.5zm-59-28.5h59q-.5-12-6.5-19.5-9-10.5-22.5-10.5-12 0-20.5 8.5-9 9-9.5 21.5z"/></svg>