<svg xmlns="http://www.w3.org/2000/svg" viewBox="0 0 425 512"><path d="M318 339q-5.5 5-11 7.5-21 13-46 19.75T212 373q-37.5 0-70.5-13.75T83 321.5q-2.5-2-1.25-3.75t3.75-.25q28 16.5 61 26T215 353q22.5 0 45.75-4.25T307 335q1.5-1 3.25-1.5t3.25-1.5q4-1.5 6 1.5T318 339zm24-24q-2-2.5-12.75-3.5T307 314q-6.5 2.5-11.5 6-2 1.5-1.75 2.75T296 324q2.5-.5 5.25-.75t5.75-.75q7-.5 13.75-.25T330 325q1.5 1.5.75 5.75t-2.25 9.5-3.25 10.25T322 359q-1 2 .5 2.5t3.5-1q8.5-7.5 12.5-19.5t4.5-19.5V320q0-3-1-5zm-56-33q-4 4-10.5 9.5t-11 9.5q-3 2-7 .5-7-6-9.5-9.75t-6.5-9.25q-12.5 14-26 18.5-10 2.5-20 2.5-17.5 0-29.75-11.25T153.5 258.5q0-17.5 8.25-29.5t21.75-18q7-3.5 15.25-5.25T215.5 203q5.5-1 10.75-1.25T236 201v-4q0-5.5-.25-11T233 176q-2.5-4-7-5.75t-9-1.75h-1.5q-7.5 1-13.25 5T194.5 186q-1 5-5 5.5L162 188q-1-.5-2.75-1.75t-.75-4.25q2-12 7.75-20.25t13.5-13.5 17-7.75 18.75-3h5.5q10 0 22 3.25T263.5 152q10 10 11 22.75t1 27.25v45.5q0 10 3.5 15.75t7.5 11.25q1 2 1.25 4T286 282zm-50-51.5v-6q-5.5 0-10.75.5t-9.75 1.5q-9 2.5-15 8.75t-6 18.25q0 10 4.25 15.75T211.5 275q1 0 2-.25t2-.25q10-2.5 15.5-13.5 4-7.5 4.5-14.75t.5-15.75z"/></svg>