<svg xmlns="http://www.w3.org/2000/svg" viewBox="0 0 425 512"><path d="M241.5 127.5q13.5 0 22.75 9.25T273.5 159t-9.25 22-22.75 9q-13 0-22.5-9t-9.5-22 9.5-22.25 22.5-9.25zM114.5 323l5-1.5q5.5-1.5 12.75-4.5t15-8.25 14.75-13T174.5 277q1-1 1.25-3.5T177 264q2.5-27.5 10.75-43.25t24.75-25.25l2.5-1 2.5 1.5q8.5 4.5 15.5 6l4 .5v7q0 1 .5 1 0 3 .5 3.5l.5 1.5 2 1q9 3 19 3 9 0 16.75-2t13.25-4.5l4.5-2 13.5 30.5-4 2q-14 7-25 10.25t-21 3.25q-5 0-9.25-.5t-8.75-1h-2q-1 0-1.5-.25t-1-.25q-1 0-1.75.5T232 259q-.5.5 1 1.5l.5.5.5.5q1 0 1.5.5 47.5 23.5 72.5 73.5l2.5 4-33.5 19-2.5-4.5q-2.5-4-6.75-10t-11.5-12.5-17.25-13-23.5-12.5l-2-1q-1.5 0-2 1.5L208 311q-5.5 7-11.5 14.25t-14.5 14-20.25 12.5-28.25 9.75L129 363z"/></svg>