<svg xmlns="http://www.w3.org/2000/svg" viewBox="0 0 425 512"><path d="M278 246.5q0 13.5 5 22.5t11 14.5 11.25 8l5.25 2.5q-.5 1-4.25 11t-12.75 22.5q-7.5 11-15.75 19.75T257 356.5q-6 0-10.5-1.25t-8.75-3.25-9-3.5T217 347t-11.75 1.5-9 3.25-8.5 3.25-10.25 2q-11.5.5-21-9.25t-17-20.75-14-25.75-9.25-30.75-1.25-32.25 9.5-29.75 21-21.25T174 179q6 0 11.75 1.5t10.75 3.25 9.5 3.5 8 1.75 8.5-2 11-4 12.75-3.5 13.75-1q3 0 8.25.75t11.5 3.25 12.5 7 11.75 12q-.5.5-4.5 3.25t-9 8.25-8.75 14-3.75 19.5zM247.5 159q-6 7.5-15.75 12.5t-19.75 4q-1.5-10 2.75-19.75T225 139.5q6.5-7.5 16.25-12.5t19.25-5.5q1 10.5-2.75 20.25T247.5 159z"/></svg>