<svg xmlns="http://www.w3.org/2000/svg" viewBox="0 0 425 512"><path d="M208.5 200q2.5 1 3 3.5t-.5 4.5l-72 125q-3 5.5-8 2l-15.5-8.5q-2-1.5-2.75-3.75t.75-4.75L185 193.5q1-2.5 3.5-3t4.5.5zM126 342q5.5 3 0 6.5L106.5 362q-2.5 1.5-3.75.75t-.75-3.25l2.5-23.5q1-5.5 6-3zm102.5-107l22.5 52.5h-71.5L213 235h15.5zm-114 52.5h-27q-2.5 0-4.25-1.5t-1.75-4v-42.5q0-2.5 1.75-3.5t4.25-1H147zM337 235q6 0 6 4.5V282q0 5.5-6 5.5h-26L284.5 235H337zm-42 46q3 5-.75 9t-6.75 5q-3.5 1.5-6 2.25t-7-1.75q-2.5-1-8.5-13.25t-13.25-27.5T239 224.5t-9.5-22-8.25-18.5-9.75-23-6.75-20.25.75-10.25q2-1 6.5 5t10 15.25 11.75 20T245.5 190q5.5 9 13.5 23.25t15.5 28.5 13.25 25.5T295 281zm9 49.5q-2.5 1-5.25.5t-3.75-3l-9.5-14.5q-1.5-2.5-1-5t3-3.5l9-4.5q5.5-3 9 3l7 14q1.5 2.5.75 5.25T310 326.5zm3 4q10-5.5 14.75-1.25T328 345q2 9 1 22-1-2.5-3.75-4t-6.25-3-7.25-3.5-6.25-5.5q-5-7-2.75-11t4.25-5.5z"/></svg>