<svg xmlns="http://www.w3.org/2000/svg" viewBox="0 0 425 512"><path d="M201 198.5q6.5 9.5 6.5 24t-6.5 23q-2 2.5-4.5 4.5t-6.5 4.5q11.5 4.5 16.5 14 6 9 6 22.5t-6.5 25q-4.5 8-10 12.5-6.5 5.5-16.5 8-4.5 1-9.5 1.5t-10.5.5h-65v-157H164q26.5 1 37 17zm-67 9.5v39h24q5 0 8.75-1.75t6.75-3.75q5.5-4 5.5-15 0-5.5-1.75-9.5t-5.75-5.5Q168 210 164 209t-9.5-1H134zm0 65v39.5h24q8.5 0 14.5-3.5 9.5-5 9.5-19.5 0-6.5-2.25-9.75T173 274q-2.5-1-6.25-1H134zm170-47q10 5 17 16.5 3 5 5 10.25t3 12.25q0 2 .25 5.5t.25 7q0 4.5.5 9h-72q.5 10 3 15.25t7.5 8.75q2.5 2 6.25 3.25t7.75 1.25q4.5 0 8-2t6.5-4.5q1.5-1.5 2.75-1.75t2.25-7.25h26.5q-.5 7-3 11.5t-6.5 10q-7 8-16.25 12.5T282 338q-20 0-35-13.5t-15-44q0-28.5 13.5-44.5 13.5-15 35.5-15 13 0 23 5zm-38.5 27.5q-2.5 3.5-4.25 6.5t-2.75 13H303q-.5-10-2-13.25t-5-6.25q-6-6-15-6-10.5 0-15.5 6zM304 208h-52.5v-26.5H304V208z"/></svg>