<svg xmlns="http://www.w3.org/2000/svg" viewBox="0 0 425 512"><path d="M212.5 202.5q24.5 0 45.75 6.5t37.25 17.75 25.25 26.5T330 285.5q0 17.5-9.25 32.5t-25.25 26.5-37.25 18-45.75 6.5q-24 0-45.25-6.25t-37-17.25T105 319.75 95 288h-.5V133.5H134V228q11-7.5 20.75-12.5t19-8 18.75-4 20-1zm0 138.5q15.5 0 29-4.5t23.5-12 16-17.5 6-21.5-6-21.5-16-17.5-23.5-12-29-4.5-29.25 4.5-23.75 12-16 17.5-6 21.5 6 21.5 16 17.5 23.75 12 29.25 4.5zm49.5-56q0 7.5-4 14t-10.75 11.5-15.75 7.75-19 2.75q-10.5 0-19.5-2.75t-15.75-7.75-10.5-11.5-3.75-14q0-15.5 14.25-26t35.25-10.5q20.5 0 35 10.5t14.5 26z"/></svg>