<svg xmlns="http://www.w3.org/2000/svg" viewBox="0 0 425 512"><path d="M330 244.5l-.5 60q0 15.5-6 29t-16 23.5-23.5 15.75-29 5.75h-85.5q-15.5 0-29-5.75T116.75 357t-16.25-23.5-6-29V218q0-15.5 6-29t16.25-23.5 23.75-16 29-6h52q7 1 15.5 4.25t16.5 8.5 14.75 12.5T279 184q1 2.5 2 4t1.75 4 1.5 6.5T286 209l1.75 12.25 4.25 8.25q2 2 6.75 2.5t9.75.5 9.5.25 6 1.75l3.5 2.5 2 4zM170.5 204q-6 0-10.25 4.25T156 218.5q0 5.5 4.25 9.75t10.25 4.25h41q6 0 10.25-4.25t4.25-9.75q0-6-4.25-10.25T211.5 204h-41zm84 113.5q5.5 0 9.75-4.25t4.25-9.75q0-6-4.25-10.25T254.5 289h-84q-6 0-10.25 4.25T156 303.5q0 5.5 4.25 9.75t10.25 4.25h84z"/></svg>