<svg xmlns="http://www.w3.org/2000/svg" viewBox="0 0 425 512"><path d="M212 51q43.5 0 81.5 16.5t66.5 44.75 45 66.25 16.5 81.5-16.5 81.5-45 66.5-66.5 45-81.5 16.5-81.5-16.5-66.25-45-44.75-66.5T3 260t16.5-81.5 44.75-66.25T130.5 67.5 212 51zm30 176.5q-.5 8.5 1.25 20.5t6.75 17q2.5 2.5 5.5 2.5 18 0 18-28.5 0-6.5-1.75-12.5t-4.25-11-6-8-7-3H253q-9.5 1.5-11 23zm-44 6q-2.5 8-1.25 17t5.75 15q1.5 2.5 4 4.75T213 273h2q8.5 0 12.5-8t4.5-18q0-7.5-3-14.25T222 222t-8-4q-3.5 0-8 2t-8 13.5zm130.5 37q2.5-14 1-25t-6-16q-4-4.5-9.5-4.5h-1q-11.5 1-15 9.25t-6.5 24.25q-1.5 7.5-4.5 18.75t-9.75 21.5-18 17.25-28.25 6q-18.5-1-27.5-6.5t-13.25-13-5.5-16-4.25-16q-1-2.5-1.5-4.5t-1.5-4q-2.5-6-7-12.75t-11-12.75-14.5-10-17.5-4h-33V247h24q5.5 0 13.5 7.25T143 274q8.5 38.5 29.25 58t52.25 19.5h2.5q25-.5 43.5-9.75t30.75-22 19-26.5 8.25-22.75z"/></svg>