<svg xmlns="http://www.w3.org/2000/svg" viewBox="0 0 425 512"><path d="M212 50.5q43.5 0 81.5 16.5t66.5 44.75T405 178t16.5 81.5T405 341t-45 66.5-66.5 45T212 469t-81.5-16.5-66.25-45T19.5 341 3 259.5 19.5 178t44.75-66.25T130.5 67 212 50.5zm3.5 313.5q8 0 20.5-7.5t26.75-20.25T290.5 307t23.25-34.25 14-35.75-.25-34q-8-25.5-24.75-36.5T267.5 155q-15 0-25.25 6.25T225.75 175t-9.5 13.75T212 195t-4-6.25-9-13.75-16.25-13.75T157.5 155q-18.5 0-35.75 11T96.5 203q-4.5 16 .25 34T112 272.75 137.25 307t29.5 29.25 27.75 20.25 21 7.5z"/></svg>