<svg xmlns="http://www.w3.org/2000/svg" viewBox="0 0 425 512"><path d="M194 272q-2.5 0-3.5-1.5.5-4 1.5-6.75t2-5.75q1-2 2-5l1-2 .5 2q1 4 .75 9.5T196 272h-2zm158-8q-2.5 7-7.75 12.5T332 284q2.5-11.5 5.75-23.5T349.5 241l.5-1 .5 1q3.5 6.5 3.25 12.75T352 264zm-196.5 4.5q-.5-.5-2-.5H152v-1q1.5-8 6-14 1 4 1.25 8t-.25 7l-1 .5h-2.5zm56.5-218q43.5 0 81.5 16.5t66.5 44.75T405 178t16.5 81.5T405 341t-45 66.5-66.5 45T212 469t-81.5-16.5-66.25-45T19.5 341 3 259.5 19.5 178t44.75-66.25T130.5 67 212 50.5zM135.5 293q-2.5-8-4.5-16.75T127.5 259l-5-22-6.5-20h-2q-3 0-5-.5-1 0-2.25-.25t-2.25-.25h-2q-6 8.5-9 20.75T88 261q-2-3-3.25-6T82 249q-2.5-5-5.25-10.25T71 229.5h-3q-7 0-12.5 2V242q-.5 13.5 0 25.5t3.5 23q1 .5 2.5.5 4 0 7.5-1.5t5-2.5q0-3.5-.25-6.25T73 275q0-1.5-.25-3t.75-3.5q5 6.5 8.5 13 1 2.5 2.5 4.5t2.5 4h2.5q1.5 0 3-.25t2.5-.25q2-.5 6-.5l1.5.5q2-4.5 2.25-10.25t.25-11.75q0-5.5.5-11t3-9.5q2.5 12.5 6 24.25t8.5 24.25q1.5 0 3.25-.5t3.75-1q1.5-1 4-1h1.5zm24 7.5q5 0 10-1.25t9-2.75q-1.5-3-5-3-2.5 0-6.5 1-3 1.5-6 1.5-1 0-1.5-.5-4 0-5.5-3.5-4-6.5-1-17.5 2.5.5 5.75 1t7.25.5h4.5q2-7.5 1.25-17t-2.25-15.5q-2 0-4-1-4-1.5-7.5-1.5h-1.5q-7.5 1-12 9.5t-5.5 18q-1 9 1.25 18.25T151 299.5q2 .5 4 .75t4.5.25zM202 299q9.5 0 14.5-5-1-3-5-4-3 5.5-9.5 5.5t-11-6q-4-5.5-1-12.5l5 1 5 .5q3 0 7-1-.5-5.5-.25-10t1.25-9q1-3.5 1.25-7.25T210 243q-7-5.5-14-6-19.5 15-18 47 1 7 8.5 11t15.5 4zm47.5-32q3.5-.5 6.5-.75t4.5-1.75Q258 263 256 260l-3.75-3.75-4.75-2.75q-1 0-1 2.5-.5 1-.75 2.25T244 259.5h-1.5v-.5q.5-5 .25-10.75T242 236q-.5-9-.75-18t1.25-16.5q-2-2.5-5.25-4.75t-8.75-2.25q-1.5 0-1.5-.5-3 9.5-2.25 20.5t1.75 22q1 6.5 1.5 12.5t-.5 11.5q-3 0-4.5-.5h-3.5q-3 0-4.5 1.5-1 1-1 4.5 2.5 1.5 5.75 2t7.25.5l3.5.5q0 4 .25 7t.25 6.5q.5 4.5.75 9.25T232 302h3.5q2.5-.5 7-.5 0-4-.25-7.5t-.25-7q0-5-.25-9.5t.25-9.5q2.5-1 7.5-1zm51 15q3-5 5-10.25t1-13.75q-2.5-2-5.25-4t-5.75-2h-2l-.5 3.5q0 5-.25 10.5t-1.5 10.5-3.75 8.75-7 5.25q-1-5.5-1.25-11.75t-.75-12.25v-10q-1-.5-1.75-1t-1.75-1q-2.5-1.5-4.5-2.5t-6-1.5Q262 284 271 294q3.5 4 10 4 4 0 8.5-1.5l1.5-2q3-5 6.5-8zm64.5-11q3-6 4-15t-4-20q-5-3.5-9.5-4.75T347 230q-9.5 0-17 9-4 4.5-6.25 11T320 263.25t-2.25 13.25-1.25 11q-.5.5-1.5.5-3.5 1-4 2 4 4.5 5 11.75t2 14.25q1 6 1.5 11.5t2.5 9.5q1 .5 5 .5h3.5q3.5 0 5 .5-2.5-7-3.75-16.5t-.25-23q11-2.5 20-10T365 271z"/></svg>