<svg xmlns="http://www.w3.org/2000/svg" viewBox="0 0 425 512"><path d="M212.5 50Q256 50 294 66.5t66.25 44.75T405 177.5t16.5 81.5-16.5 81.5-44.75 66.5T294 452t-81.5 16.5T131 452t-66.5-45-45-66.5T3 259t16.5-81.5 45-66.25T131 66.5 212.5 50zm-1.5 78.5q-22.5 0-45 8.5 1 1 8.5 7.5t18.5 16.25 23.5 21 23.25 21 17.75 16.75 7 8V140q-10-5.5-24.5-8.5t-29-3zm-129.5 131q0 17.5 5 34 1-1 9.75-9T117.5 265t27.25-24.75T172 215.5t21-19.25 9-8.25q-1-.5-8.5-7.5T177 165.25t-16.5-15-8-7.25q-33 17-52 48t-19 68.5zm65.5-1q-14.5 13.5-26.5 24-10 9-18.5 17t-9 8.5q8 19.5 21.25 35.75T147 371.5v-113zM224 390q34.5-3.5 62.5-21.5t43-57H160V379q19 8.5 40 11h24zm111.5-91.5q4-10 5.25-20t1.25-21q0-34.5-17.25-63.25T277.5 147.5v151h58z"/></svg>