<svg xmlns="http://www.w3.org/2000/svg" viewBox="0 0 425 512"><path d="M147 320q5.5 0 9.25 3.25T160 331v11h-43.5v-11q0-4.5 3.75-7.75t9.25-3.25H147zm130.5-100h-39v-39.5h39V220zm26 11h13v28h-26v78.5h-26v-39h-11v39H225V259h-26v-26h13v13h91.5v-15zM212 50q43.5 0 81.5 16.5t66.5 44.75 45 66.25 16.5 81.5-16.5 81.5-45 66.5-66.5 45-81.5 16.5-81.5-16.5-66.25-45-44.75-66.5T3 259t16.5-81.5 44.75-66.25T130.5 66.5 212 50zm131 159h-39.5v-54.5H212V209h-13v-1.5q-10.5-8.5-20.5-15.5-9-5.5-19.25-10.5t-18.75-5q-9 0-19.25 5T102 192q-10.5 7-20.5 15.5v78h52v13q-7 .5-13.75 3t-12.5 7T98 318.75 94.5 331v24.5q0 3.5 2.5 5.75t6 2.25h70q3.5 0 6-2.25t2.5-5.75V331q0-13-10.5-22.25t-24-10.25v-13h54v78h115.5v-78H343V209zm-235.5 8q9.5-8.5 18.75-13.75T140.5 198q4.5 0 13.75 5.25T173 217v42h-65.5v-42z"/></svg>