<svg xmlns="http://www.w3.org/2000/svg" viewBox="0 0 425 512"><path d="M212.5 50.5Q256 50.5 294 67t66.25 44.75T405 178t16.5 81.5T405 341t-44.75 66.5-66.25 45-81.5 16.5-81.5-16.5-66.5-45-45-66.5T3 259.5 19.5 178t45-66.25T131 67t81.5-16.5zm-.5 327q16 0 27.25-14t11.25-42q0-14-3.25-21.5t-8.5-11-12.25-4-14.5-.5-14.5.5-12.25 4-8.5 11-3.25 21.5q0 28 11.25 42t27.25 14zm-26-122q0 10 7.5 17.25T212 280t18.5-7.25 7.5-17.25-7.5-17-18.5-7-18.5 7-7.5 17zM294.5 269q0-1 .25-2.25t.25-2.25q0-16-6.5-31t-17.75-26.75T244.5 188t-32-7q-17.5 0-32.5 7t-26.5 18.75-18 26.75-6.5 31q0 1 .25 2.25t.25 2.25q1-15 7.75-26.5t18-19.25 26-11.75 31.25-4 31 4 25.5 11.75 17.75 19.25 7.75 26.5zm48-4.5q0-25.5-10.25-47.75t-28-38.75-41.5-26.25T212 142t-50.75 9.75-41.5 26.25-28 38.75T81.5 264.5v5Q82.5 245 93 226t28.25-31.75 41-19.5T212 168t49.75 6.75 40.75 19.5T330.75 226t11.75 43.5v-5z"/></svg>