<svg xmlns="http://www.w3.org/2000/svg" viewBox="0 0 425 512"><path d="M212.5 51Q256 51 294 67.5t66.25 44.75T405 178.5t16.5 81.5-16.5 81.5-44.75 66.5T294 453t-81.5 16.5T131 453t-66.5-45-45-66.5T3 260t16.5-81.5 45-66.25T131 67.5 212.5 51zM280 155q-10 0-16.75 5.25T256.5 173q0 7 6.75 12.25T280 190.5t16.75-5.25T303.5 173q0-7.5-6.75-12.75T280 155zm-106 0q-10 0-17 5.25T150 173q0 7 7 12.25t17 5.25 16.75-5.25T197.5 173q0-7.5-6.75-12.75T174 155zm25 236q26 0 46.75-9.5t36.75-24.25 27.5-32.5 18.75-34T339.5 262t3.5-17q0-6.5-2.75-10.25T334 229q-4-2-8.5-3H124q-1.5.5-3.5 2-1.5 1.5-3.75 4t-4.25 7q-11 22-13.5 48.25t6.75 49.5 31.75 38.75T199 391zm-66.5-53q-6-10-8.5-21.75t-2-23.75 3.75-23 7.75-20h185q-1.5 6-5.5 17t-10.75 24T286 317.25t-22.25 25-29 18.25-35.75 7q-8.5 0-17.75-1.25t-18.25-4.5-17-9T132.5 338z"/></svg>