<svg xmlns="http://www.w3.org/2000/svg" viewBox="0 0 425 512"><path d="M194 257.5q0-12 6.25-18.25T215 230.5q8.5-2 21-2v6q0 8.5-.5 15.75t-5 14.75q-4.5 11-15.5 13.5-1 0-2 .25t-2 .25q-8 0-12.5-6t-4.5-15.5zM212 50q43.5 0 81.5 16.5t66.5 44.75 45 66.25 16.5 81.5-16.5 81.5-45 66.5-66.5 45-81.5 16.5-81.5-16.5-66.25-45-44.75-66.5T3 259t16.5-81.5 44.75-66.25T130.5 66.5 212 50zm20.5 130q3 4.5 3.25 10t.25 11v4q-5 .5-10.25.75T215 207q-8.5 1-16.5 2.75t-15 5.25q-13.5 6-21.75 18t-8.25 29.5q0 22.5 12 33.75T195 307.5q11 0 20-2.5 7-2.5 13.25-6.75t13.25-11.75q4 5.5 6.5 9.25t9.5 9.75q4 1.5 7-.5 4-4 10.5-9.5t10.5-9.5q2-1.5 1.75-3.5t-1.25-4q-4-5.5-7.25-11.25t-3.25-15.75V206q0-14.5-1-27.25t-11-22.75q-8.5-8-20.5-11.25t-22-3.25h-6q-9 .5-18.25 3t-17.25 7.75-13.75 13.5T158 186q-1 3 .75 4.25T162 192l27.5 3.5q3.5-.5 4.5-5.5 2-8.5 8-12.75t13-5.25h2q10 0 15.5 8zM318 343q3.5-2.5 1.5-5.5t-6-1.5q-1.5 1-3.25 1.5T307 339q-23 9-46.25 13.5T215 357q-35.5 0-68.5-9.5t-61-26q-2.5-1.5-3.75.25T83 325.5q25.5 24 58.5 37.5t70.5 13.5q23.5 0 48.75-6.5T307 350.5q2.5-2 5.5-3.75T318 343zm25-19q0-3-1-5-2-2.5-12.75-3.5T307 318q-6 2-11.5 6-2 1-1.75 2.5T296 328q5-1 11-1.5 7-1 13.75-.5t8.75 3q1.5 1.5 1 5.75t-2 9.5-3.25 10.25-3.25 8q-1 2.5.5 3t3-1q9-8 13-19.75t4.5-19.25V324z"/></svg>