<svg xmlns="http://www.w3.org/2000/svg" viewBox="0 0 425 512"><path d="M234 254q-6 5-9 10-7 5.5-15 9t-17.5 3.5q-12 0-23-5.5L134 285.5l11-42.5q-3.5-9.5-3.5-18.5 0-11 4-20.5t11-16.5 16.25-11 19.75-4 19.75 4 16 11T239 204t4 20.5q0 8.5-2.5 15.75T234 254zM212 50.5q43.5 0 81.5 16.5t66.5 44.75T405 178t16.5 81.5T405 341t-45 66.5-66.5 45T212 469t-81.5-16.5-66.25-45T19.5 341 3 259.5 19.5 178t44.75-66.25T130.5 67 212 50.5zM289.5 339q12-6.5 19.5-18.75t7.5-26.75q0-11-4-20.5t-10.75-16.5-15.75-11-19.5-4q-1 0-1.25.25t-.75.25q2-8 2-19 0-16-6-30.25t-16-24.75-24-16.5-29.5-6-29.25 6-24 16.5-16.25 24.75-6 30.25q0 15.5 6.5 31l-14.5 57.5L161 294q15.5 6.5 30 6.5 13.5 0 25.5-4.5 1 17.5 12 30.75t27 16.75l23 30zm-23-73.5q11 0 18.5 7.75t7.5 19.25q0 8-3.75 14T279 316l-7.5 20-10-17q-9-2-15.25-9.25T240 292.5q0-7.5 4.5-14.5 1.5-1.5 2.75-3t2.75-3.5q7.5-6 16.5-6z"/></svg>