<svg xmlns="http://www.w3.org/2000/svg" viewBox="0 0 425 512"><path d="M212.5 50Q256 50 294 66.5t66.25 44.75T405 177.5t16.5 81.5-16.5 81.5-44.75 66.5T294 452t-81.5 16.5T131 452t-66.5-45-45-66.5T3 259t16.5-81.5 45-66.25T131 66.5 212.5 50zM121 377q10.5 0 18.25-7.75T147 350.5q0-10.5-7.75-18.25T121 324.5q-11 0-18.75 7.75T94.5 350.5q0 11 7.75 18.75T121 377zm117.5 0q0-30-11.25-56.25T196.5 275t-45.75-30.75T94.5 233v48q20 0 37.5 7.5t30.5 20.5 20.5 30.5 7.5 37.5h48zm91.5 0q0-48.5-18.5-91.5t-50.5-75-75-50.5-91.5-18.5v49q38.5 0 72.5 14.75t59.25 40 40 59.25T281 377h49z"/></svg>