<svg xmlns="http://www.w3.org/2000/svg" viewBox="0 0 425 512"><path d="M212.5 51Q256 51 294 67.5t66.25 44.75T405 178.5t16.5 81.5-16.5 81.5-44.75 66.5T294 453t-81.5 16.5T131 453t-66.5-45-45-66.5T3 260t16.5-81.5 45-66.25T131 67.5 212.5 51zM93 264q-10.5 9-10.5 22 0 13.5 10.5 21.5V264zm21.5-6.5H112q-2.5 0-4.25.25t-4.25.75v55q2.5.5 4.25.75t4.25.25h2.5v-57zm22-15q-6.5 8-9 19.5-.5-.5-1-.75t-1-.75v54h11v-72zM158 227q-3 1-5.75 2.5t-5.25 3v82h11V227zm22-1.5q-2-.5-3.5-.75t-3.5-.25q-1 0-2 .25t-2 .25v89.5h11v-89zm21.5-1q-1 2-2.5 3.5t-2.5 3q-5.5-3-11-4.5v88h16v-90zm109 90q16-1 23.75-10T342 283q0-13-8.75-22T311 252q-5.5 0-12 2.5-2.5-20.5-18-34.75t-37-14.25q-11 0-20.25 3.75T207 219.5v95h103.5z"/></svg>