<svg xmlns="http://www.w3.org/2000/svg" viewBox="0 0 425 512"><path d="M212.5 51Q256 51 294 67.5t66.25 44.75T405 178.5t16.5 81.5-16.5 81.5-44.75 66.5T294 453t-81.5 16.5T131 453t-66.5-45-45-66.5T3 260t16.5-81.5 45-66.25T131 67.5 212.5 51zm-118 196q0 17.5 4.75 33.5t13.5 29.75 21 24.75T161 353l-56-154q-5 11.5-7.75 23.25T94.5 247zm118 117.5q21 0 39-6.5-1-1-1-1.5l-36-99L179 360q15.5 4.5 33.5 4.5zm58.5-46l12-39.5q8.5-23 8.5-38 0-11-3-18.75T282 208.5q-4.5-7-8-13.75T270.5 181q0-8 5.5-14.5t14-6.5q.5 0 .75.25t.75.25Q276 146 255.75 137.75t-43.25-8.25q-31.5 0-57 14.5T114 182.5h17.5l10.5-.5 11-1q2 0 3.5 1.25t1.5 3-1 3.5-3.5 1.75q-2 0-4 .5-5 1-9.5 1l43 127.5 26-77.5-18.5-50q-2.5 0-4.5-.25t-4-.75-4-.5q-2.5 0-3.5-1.5t-.75-3.5 1.5-3.25T179 181l11 1q4.5.5 10 .5h19.75L230 182l11-1q2.5 0 3.75 1.25t1.5 3-.75 3.5-3.5 1.75q-2 0-4 .5-5 1-9.5 1zm.5 30q26.5-15 42.5-41.75T330 247q0-15.5-3.75-29.5t-10.75-27q.5 3 .75 6t.25 6q0 9-2 19.25t-7 23.25z"/></svg>