<svg xmlns="http://www.w3.org/2000/svg" viewBox="0 0 425 512"><path d="M212 50.5q43.5 0 81.5 16.5t66.5 44.75T405 178t16.5 81.5T405 341t-45 66.5-66.5 45T212 469t-81.5-16.5-66.25-45T19.5 341 3 259.5 19.5 178t44.75-66.25T130.5 67 212 50.5zm-111.5 241q-4 5.5-5.5 9.5-1 3.5.75 5.75T106 307t18.25-5.5 19-8 17-9.75T172.5 273q4.5-5 3.25-7t-5-1.5-9 2-8.75 3q-4 1.5-12.5 5T123 282q-10.5 4.5-22.5 9.5zm182.5 66q1-15-.5-24.25T278 318.5t-7.25-8.25T263 305q-4.5-2.5-14.75-3.5T226.5 300q0-10-.25-18.5t-.75-13.5q2.5-.5 5-.75T235 266q11-3 15.75-12.25T256 234.5q.5-2.5.5-7.75V214.5q8.5-.5 15-.5h9q3 0 7-.25t7.75-1 6.25-2T304 207q-.5-5-5-6t-11.5-2q-2.5 0-11-.25t-20-.25q0-7.5-.5-15.25t-.75-14.5-1-11.75-1.75-7q-4-7-8.5-3.5t-4.5 8.5q0 2.5.25 15.75t.25 27.75h-48q.5-10 1-19t1-14.5q1-13-2.25-17.5t-7.25-5.5-5.75 3.5-2.75 10q-1 2.5-1 15t.5 27.5q-11.5 0-23.75-.25t-19.25.75q-3 0-5 2.5t-2.75 5.5-.25 5.75 2.5 3.25 7.25.5h12.25l14.75-.5 15.25-.5q1 9 1.75 17.25t2.25 14.25q2.5 11 11.5 15.75t19 5.75v32h-16.5q-16 .5-26 8.25T156 324q-1.5 4-2.25 10t-1.25 12q-.5 7-.5 14.5 0 8.5 2.25 12.5t5.25 4 5.25-4 1.75-12q-1.5-21 5.25-31.5T184.5 318q3-.5 10.25-.5H211q.5 16.5.5 30.5t-.5 18q0 4.5 2.25 6.5t5.25 1.5 5.5-3.75 2.5-9.75V318q7.5 0 13.75.25t9.75.25q8.5.5 13 9.5t5 30.5q0 9.5 2.25 14t4.75 4.25 4.75-5.25 3.25-14zm28-61q3 .5 6.5 1.5t6.25 1.25 4.5-.75T330 294q-.5-3.5-4.75-6.75t-10.5-6.25-14-6-14.75-6q-14-6-20-6t-8 5.5q-1 3.5.25 5.75T262 278t5.5 2.25l5 1.25 7.25 2.75 11.25 5 11.5 4.75 8.5 2.5zM239.5 237q0 5-4.5 8.25t-10.5 4.5-12.75.75-11.25-3.5q-4.5-2.5-6.25-11.5T192 215q8 0 21.25-.25t26.75-.25q0 7.5-.25 13.5t-.25 9z"/></svg>