<svg xmlns="http://www.w3.org/2000/svg" viewBox="0 0 425 512"><path d="M211.5 302l103-112v44.5l-103 94.5-46-49-4 1.5q-7 3-13 3-16.5 0-28.25-12.5t-11.75-30 11.75-29.75T148.5 200q8 0 15.25 3.25t12.5 9 8.5 13.5T188 242q0 8-3 15.5l-1 3zm.5-251.5q43.5 0 81.5 16.5t66.5 44.75T405 178t16.5 81.5T405 341t-45 66.5-66.5 45T212 469t-81.5-16.5-66.25-45T19.5 341 3 259.5 19.5 178t44.75-66.25T130.5 67 212 50.5zM330 152l-9 9.5-76.5 82-32-33.5-13.5 14q-5.5-17-19.25-27.75T148.5 185.5q-11.5 0-21.25 4.5t-17 12.25-11.5 18T94.5 242t4.25 21.75 11.25 18 16.75 12.5T147.5 299l65 68.5 75-79-8-8 50.5-40V152z"/></svg>