<svg xmlns="http://www.w3.org/2000/svg" viewBox="0 0 425 512"><path d="M212.5 51Q256 51 294 67.5t66.25 44.75T405 178.5t16.5 81.5-16.5 81.5-44.75 66.5T294 453t-81.5 16.5T131 453t-66.5-45-45-66.5T3 260t16.5-81.5 45-66.25T131 67.5 212.5 51zm-35 206.5l84-42q5.5 4.5 12.25 7.25t14.75 2.75q17.5 0 29.5-12t12-29.5-12-29.5-29.5-12-29.5 12-12 29.5v2.5l-84 42q-5.5-4.5-12.25-7.25T136 218.5q-17.5 0-29.5 12t-12 29.5 12 29.5 29.5 12q15.5 0 27-10l84 42.5v2q0 17.5 12 29.75T288.5 378t29.5-12.25T330 336q0-17-12-29.25t-29.5-12.25q-8 0-14.75 2.75t-12.25 7.25l-84-42v-5z"/></svg>