<svg xmlns="http://www.w3.org/2000/svg" viewBox="0 0 425 512"><path d="M178 277q-4 3-6.75 6t-5.75 5.5L155 297l-2.5 1.5q-9 4.5-17.5 3.5-8-1-11-5l-1-3.5.5-3q3.5-8.5 14-13.5 6.5-3.5 10-4l27.5-5 2 6.5zm-54-23q-8.5-1.5-13-9-3.5-6.5-.5-14.5 4-10 13-14 9.5-5 19-3l9.5 4 29.5 21q-4.5 6-5.5 10l-48.5 6zm67.5 36q2.5 1 5 2.25t5.5 1.25q.5 8.5 1.75 17.5t1.25 19v16.5q-4 10-12.5 13.5-9 5-18.5 2.5-10-3-15-11-1-2.5-2-5.5t-1-6l2-7.5q.5-5 5-9.5zm-27-97.5q-2-4.5-3.25-8.75T161 175q.5-9 6.5-12.5 3-2.5 8 0 9 2.5 15 14 1.5 2.5 2.5 5t1.5 5.5l7 39.5-5 1.5-30-32zm77.5 51l34-28 4-1.5q10-4 18-2.5 9 .5 12 7l1.5 4.5-1 3.5q-3 8.5-15.5 14-5 2-11.5 3l-41.5 5-.5-2.5-1-1zm-23.5-53V174q3-9.5 12.5-15 9.5-5 19.5-1.5 10.5 2.5 15 11 3 4.5 3 11.5l-1 7q-2 5.5-5 10L232 233.5q-5-3.5-10-5.5zM232 261q0 10-6.5 16-7.5 6.5-15.5 6.5-9.5 0-16-6.5-6.5-6-6.5-16 0-9 6.5-15.5 7-6 16-6 9.5 0 15.5 6Q232 252 232 261zm66 4.5q4 1 7.25 3.25t5.25 6.25q5 5.5 5 14.5l-1 6.5q-2.5 10-11.5 14.5-9.5 5-18.5 1.5-3.5-1-5.5-2.25t-4-3.25l-35.5-29 2.5-4.5 1-4 38.5-3.5 13.5-.5zm-86-215q43.5 0 81.5 16.5t66.5 44.75T405 178t16.5 81.5T405 341t-45 66.5-66.5 45T212 469t-81.5-16.5-66.25-45T19.5 341 3 259.5 19.5 178t44.75-66.25T130.5 67 212 50.5zM328 300q4.5-15.5-3-29l-1.5-2.5q-2-3-4.25-5.75T314 258q-2.5-2-5.5-3.25T303 252q8-4 13.5-8.75t8-11.75q2-5.5.5-10.25t-1.5-9.25v-.5q-7.5-5.5-9.75-8.5t-8.75-5q-4-1-8-1t-8 .5l-11.5 2.5 4-8.5Q286 175 278 161l-1-1.5q-7-12-23-16-15.5-4.5-29.5 3-7 4-13.25 9.75T205 169.5v2.5l-1.5-2-3.5-6q-8-12.5-20.5-15.5-10-2.5-20 2-10 6.5-13 20.5-2.5 15 5.5 28l2 3.5-8-2.5q-14.5-3.5-29 4-14 6.5-20 21.5-5.5 14.5 1.5 26.5 1.5 2.5 3.5 4.75t4 3.75q6 6 15.5 7.5l2 .5-5 4.5q-7 6-9 13.5-2.5 9.5 2.5 18 2 3.5 6 6.5 2 1.5 4.5 2.75T128 315q11.5 3 24-.5l-6.5 9.5-1.5 4.5q-5 15 2.5 29.5l4 5 4 5q6 5.5 15 7.5 16 4.5 30.5-2.5 14-7.5 18.5-23v-2q10 11 19.5 13.5 11 3 19.5-2.5 9-5 12-16 2-10.5 0-23 5 3.5 10.5 5 16.5 5 30-2 13.5-7.5 18-23zm-75.5 17.5q2.5 4 3.75 8.25t.25 9.25q-1 9-6.5 12-3 2-8 1-9.5-2-15-14.5l-4-11-5.5-29 6-2 4.5-2 14 14 9 11z"/></svg>