<svg xmlns="http://www.w3.org/2000/svg" viewBox="0 0 425 512"><path d="M206.5 204.5q0 16-7 25.5t-22.5 9.5q-10.5 0-18.75-6.25t-13.75-15.5-8.5-20-3-19.75q0-14.5 8-26.5 8.5-11 23-11 10.5 0 19 6.5t13 16.5q5 10 7.75 20.75t2.75 20.25zm14 119.5q1.5 1.5 2.5 5.5 2.5 5 2.5 12 0 10.5-4.5 17.5t-11.75 11.25-16 6.25-17.75 2q-21 0-39.5-9.5-9-5-14.5-13.25T116 336.5q0-15 8.75-23.5t21.75-12.5q9-3 17.25-4.25T180.5 295q2.5 0 4.5.25t3.5.25l4.5 3.5q2.5 1 3.5 2t2 1.5l5 3.5q2 1.5 3 2.5l2 2q1 .5 4.5 4 2.5 2.5 4 4.5t3.5 5zm-8-274Q256 50 294 66.5t66.5 44.75 45 66.5T422 259.5 405.5 341t-45 66.5-66.5 45-81.5 16.5-81.5-16.5-66.5-45-45-66.5T3 259.5t16.5-81.75 45-66.5T131 66.5 212.5 50zm13 322.5Q248 353 248 328q0-16.5-7.5-27.25t-16.5-18.5-16.5-13.75T200 255q0-9 7.75-15.75T223 224q5.5-5.5 9.25-14.5t3.75-21q0-12.5-6.5-26.5-6-13-17.5-20h21.5l21.5-12.5h-69.5q-14.5 0-29.5 3-22 5-37 22.5t-15 39.5q0 24 16.5 39 17 15.5 40.5 15.5h5.25l6.25-.5q-.5 1-1.25 3.25L170 255.5q-1 1.5-1 6.5 0 11.5 10 23.5-24 .5-48.5 8-13 4-23 11.5t-15 17.5q-6 11.5-6 21.5 0 13.5 7 23t18 15.5T135 391t24 2.5q42.5 0 66.5-21zm125-202.5H310v-40.5h-20.5V170H249v20h40.5v41H310v-41h40.5v-20z"/></svg>