<svg xmlns="http://www.w3.org/2000/svg" viewBox="0 0 425 512"><path d="M212 50.5q43.5 0 81.5 16.5t66.5 44.75T405 178t16.5 81.5T405 341t-45 66.5-66.5 45T212 469t-81.5-16.5-66.25-45T19.5 341 3 259.5 19.5 178t44.75-66.25T130.5 67 212 50.5zM147 312q10.5 0 20-4t16.75-11.25T195 280t4-20.5-4-20.5-11.25-16.5-16.75-11-20-4q-11 0-20.5 4t-16.75 11T98.5 239t-4 20.5 4 20.5 11.25 16.75T126.5 308t20.5 4zm130.5 0q11 0 20.5-4t16.5-11.25T325.75 280t4.25-20.5-4.25-20.5-11.25-16.5-16.5-11-20.5-4-20.5 4-16.75 11T229 239t-4 20.5 4 20.5 11.25 16.75T257 308t20.5 4z"/></svg>