<svg xmlns="http://www.w3.org/2000/svg" viewBox="0 0 425 512"><path d="M212.5 50Q256 50 294 66.5t66.5 44.75 45 66.5T422 259.5 405.5 341t-45 66.5-66.5 45-81.5 16.5-81.5-16.5-66.5-45-45-66.5T3 259.5t16.5-81.75 45-66.5T131 66.5 212.5 50zm0 327q24.5 0 45.75-6.5t37.25-17.75 25.25-26.25T330 294q0-17-9.25-32.25T295.5 235t-37.25-18-45.75-6.5q-10.5 0-20 1t-18.75 4-19 8T134 236v-94.5H94.5V296h.5q.5 17 10 31.75t25.25 25.75 37 17.25T212.5 377zm0-138.5q15.5 0 29.25 4.25t23.75 11.75 16 17.75 6 21.75-6 21.5-16 17.5-23.75 12-29.25 4.5-29.25-4.5-23.75-12-16-17.5-6-21.5 6-21.75 16-17.75 23.75-11.75 29.25-4.25zm0 91q10.5 0 19.5-3t15.75-7.75 10.5-11.5T262 293t-3.75-14.25-10.5-11.5T232 259.5t-19.5-3-19.5 3-15.75 7.75-10.5 11.5T163 293t3.75 14.25 10.5 11.5T193 326.5t19.5 3z"/></svg>