<svg xmlns="http://www.w3.org/2000/svg" viewBox="0 0 425 512"><path d="M274 199q7 0 11.75 5t4.75 12-4.75 12-11.75 5q-6.5 0-11.25-5T258 216t4.75-12 11.25-5zM212.5 51Q256 51 294 67.5t66.25 44.75T405 178.5t16.5 81.5-16.5 81.5-44.75 66.5T294 453t-81.5 16.5T131 453t-66.5-45-45-66.5T3 260t16.5-81.5 45-66.25T131 67.5 212.5 51zM273 273q12 0 22.25-4.5t18-12.25T325.5 238t4.5-23-4.5-23-12.25-18.5-18-12.5-22.25-4.5q-10.5 0-20 4.25t-17 11.5-12.5 16.5T217 208h-2q-1.5-10-6.5-19.25t-12.5-16.5-17-11.5-20-4.25q-12 0-23.25 4.75t-20 12.75-14 18.75T96.5 216t4.25 22.75T112 256.5t16 12 19 4.5h13v23.5L94.5 278v79.5L160 337v27.5h95.5l-28-91.5H273zm-114-74q7 0 11.5 5t4.5 12-4.5 12-11.5 5-11.5-5-4.5-12 4.5-12 11.5-5z"/></svg>