<svg xmlns="http://www.w3.org/2000/svg" viewBox="0 0 425 512"><path d="M212 51q43.5 0 81.5 16.5t66.5 44.75 45 66.25 16.5 81.5-16.5 81.5-45 66.5-66.5 45-81.5 16.5-81.5-16.5-66.25-45-44.75-66.5T3 260t16.5-81.5 44.75-66.25T130.5 67.5 212 51zm18.5 256.5q14-3 26.25-10.75t21-18.75 13.75-24.5 5-28.5q0-17.5-6.75-32.75T271.5 165.5t-26.75-18.25T212 140.5t-32.75 6.75-26.75 18.25-18 26.75T128 225q0 15 5 28.5t13.75 24.5 20.75 18.75 26 10.75l18.5 72zM212 162q13 0 24.5 5t20.25 13.5 13.75 20 5 24.5-5 24.5-13.75 20T236.5 283t-24.5 5-24.5-5-20-13.5-13.5-20-5-24.5 5-24.5 13.5-20 20-13.5 24.5-5zm0 98q14.5 0 24.75-10.25T247 225t-10.25-24.75T212 190t-24.5 10.25-10 24.75 10 24.75T212 260z"/></svg>