<svg xmlns="http://www.w3.org/2000/svg" viewBox="0 0 425 512"><path d="M212 50.5q43.5 0 81.5 16.5t66.5 44.75T405 178t16.5 81.5T405 341t-45 66.5-66.5 45T212 469t-81.5-16.5-66.25-45T19.5 341 3 259.5 19.5 178t44.75-66.25T130.5 67 212 50.5zM81.5 280q0 6 6 6H114l33-52.5H87.5q-6 0-6 4.5v42zm44.5 67q2.5-1.5 2.25-3.5t-2.25-3l-15.5-9q-5-2.5-6 3L102 358q-.5 2.5.75 3.25t3.25-.75zm5-13.5q2 1.5 4.5 1t3.5-3l71.5-125q1.5-2 1-4.5t-3-3.5l-15.5-9q-5.5-2.5-8 2.5l-72 124.5q-2.5 5 2.5 8.5zM250.5 286l-22-52.5h-16l-33 52.5h71zm24 8q4.5 2.5 7 1.75t5.5-2.25q3-1 6.75-5T295 279q-1.5-2.5-7.5-13.5T274 240.25t-15.25-28.5-13.25-23.25q-5.5-8.5-11.75-19.25t-11.75-20T212 134t-6.5-5q-3 1.5-.75 10.25t6.75 20.25 9.75 23 8.25 18.5 9.5 22 13.5 30.25 13.25 27.5T274.5 294zm20 32.5q3.5 5.5 9 2.5l6.5-4q2.5-1 3-3.75t-.5-5.25l-7.5-14q-1-2.5-3.5-3.25t-5 .25l-9 4.5q-2.5 1-3 3.5t1 5zm34.5 39q1-13-1-22-2-7.5-6.75-11.75T306.5 333q-1.5 1.5-3.75 5.5t2.75 11q2.5 3.5 6.25 5.5t7.25 3.5 6.25 3 3.75 4zM343 238q0-2.5-1.75-3.5t-4.25-1h-52.5L311 286h26q2.5 0 4.25-1.75T343 280v-42z"/></svg>