<svg xmlns="http://www.w3.org/2000/svg" viewBox="0 0 425 512"><path d="M212 49.5q43.5 0 81.75 16.5t67 45T406 177.75t16.5 81.75-16.5 81.75-45.25 67-67 45.25T212 470t-81.75-16.5-66.75-45.25-45-67T2 259.5t16.5-81.75 45-66.75 66.75-45T212 49.5zM317 312h-7q-6 10-11.75 20.25T287 348.5q-4.5 4.5-8.75 7.75T269 361t-12.5 2.5-18 1H197q-10.5 0-14.5-2.5-4.5-2.5-6-6.5-1-2-2.25-7.5T173 334v-74.5h58q15 0 22.5 4.5 7 3.5 10.5 11 2.5 4.5 5.5 24h8.5v-92h-8.5q-1 10-3.5 18.75T259 239q-4 3.5-10.75 5.5t-17.25 2h-58v-92h71q20 0 25.5 2.5 10 4 14 11 4.5 7.5 8 26h7.5l-3-52.5H107v13h9q7.5 0 14 .5t9.5 4.5q2.5 2.5 4.75 8.75T146.5 187v144.5q0 10-1.5 15.5t-2.5 8.5-4.25 4.5-5.75 3.5q-4 2-8.25 1.5t-8.25-.5h-9V378h189z"/></svg>