<svg xmlns="http://www.w3.org/2000/svg" viewBox="0 0 425 512"><path d="M212 159.5q11.5 0 19.75 8t8.25 19q0 11.5-8.25 19.25T212 213.5t-19.5-7.75-8-19.25q0-11 8-19t19.5-8zm0-109q43.5 0 81.5 16.5t66.5 44.75T405 178t16.5 81.5T405 341t-45 66.5-66.5 45T212 469t-81.5-16.5-66.25-45T19.5 341 3 259.5 19.5 178t44.75-66.25T130.5 67 212 50.5zM329.5 259q1-6.5-3-10.5-3.5-4-10-4h-2L276 248q-8 1-9.5 5-.5 1-.25 2.5T269 259q6.5 7 13.5 9l3.5 1.5-2 3q-1.5 2.5-7 6.5l-30.5 26q-1.5 1-3.25 2.25t-3.75 1.25q-5.5 0-5.5-8.5v-74.5l1.5-.5q10.5-6.5 16.5-16.5t6-22q0-9-3.5-17.25T244.75 155 230 145.5t-18-3.5-17.75 3.5-14.5 9.5-10 14.25T166 186.5q0 12.5 6.75 23t18.25 16l1.5 1v75q0 8.5-5.5 8.5-4 0-7-3l-33-28q-5-4.5-6.5-6.5l-2.5-3 4-1.5q6.5-2 13.5-9 3.5-3.5 2-6-1-4-9-5l-39-3.5H108q-6.5 0-10 4-4.5 4.5-3.5 10.5l4 37.5q1.5 9 6.5 9 1 0 2.25-.25T110 303q3.5-3 6-6.75t3.5-6.25l1-3.5 3.5 2q1 1 2.75 2.5t4.25 4l70 77q4.5 5.5 11 5.5 7 0 11.5-5.5l70-77q3.5-4.5 7-6.5l3-2 1.5 3.5q1 2.5 3.5 6.25T314 303q2 2 3.25 2.25t2.25.25q2 0 3.75-2t2.25-7z"/></svg>