<svg xmlns="http://www.w3.org/2000/svg" viewBox="0 0 425 512"><path d="M212 50q43.5 0 81.5 16.5t66.5 44.75 45 66.25 16.5 81.5-16.5 81.5-45 66.5-66.5 45-81.5 16.5-81.5-16.5-66.25-45-44.75-66.5T3 259t16.5-81.5 44.75-66.25T130.5 66.5 212 50zm13 227.5V226l31-22.5q5 2.5 9.5 2.5 7.5 0 12.75-5.5t5.25-13-5.5-13-13-5.5-13 5.5-5.5 13q0 .5 1 2.5L225 206.5v-78h-26v41L176.5 153q1-2 1-3.5 0-7.5-5.5-13t-13-5.5q-8 0-13.25 5.5t-5.25 13q0 8 5.5 13.25t13 5.25q4.5 0 8.5-2l31.5 23v51.5L176.5 224q1-2 1-3 0-7.5-5.5-13t-13-5.5q-8 0-13.25 5.5t-5.25 13 5.5 13 13 5.5q4.5 0 8.5-2.5l31.5 23.5V315l-22-16.5q0-1 .25-1.5t.25-1.5q0-7.5-5.5-13t-13-5.5q-8 0-13.25 5.5t-5.25 13q0 8 5.5 13.25t13 5.25q4.5 0 8.5-2.5L199 335v55h26v-18.5l31-22.5q3.5 3 9.5 3 7.5 0 12.75-5.5t5.25-13q0-8-5.5-13.25T265 315t-13 5.25-5.5 13.25q0 1 1 2L225 352v-55l31-22.5q3.5 3 9.5 3 7.5 0 12.75-5.5t5.25-13q0-8-5.5-13.25t-13-5.25-13 5.25-5.5 13.25q0 1 1 2z"/></svg>