<svg xmlns="http://www.w3.org/2000/svg" viewBox="0 0 425 512"><path d="M316.5 286h-13v-39.5h13V286zM212 50.5q43.5 0 81.5 16.5t66.5 44.75T405 178t16.5 81.5T405 341t-45 66.5-66.5 45T212 469t-81.5-16.5-66.25-45T19.5 341 3 259.5 19.5 178t44.75-66.25T130.5 67 212 50.5zM147 181h-26.5v39.5h-39V312H147V181zm39 39.5h-26V312h26v-91.5zm0-39.5h-26v26.5h26V181zm78.5 39.5H199V312h39.5v13H199v26h65.5V220.5zm78.5 0h-65.5V312h39v13h-39v26H343V220.5zm-235.5 26h13V286h-13v-39.5zm131 39.5H225v-39.5h13.5V286z"/></svg>