<svg xmlns="http://www.w3.org/2000/svg" viewBox="0 0 425 512"><path d="M212 50.5q43.5 0 81.5 16.5t66.5 44.75T405 178t16.5 81.5T405 341t-45 66.5-66.5 45T212 469t-81.5-16.5-66.25-45T19.5 341 3 259.5 19.5 178t44.75-66.25T130.5 67 212 50.5zM125.5 273q8 11 16 19.25T157 306q-1.5-10.5 0-21.5t8.5-21q7.5-11.5 15-16T194 242v-1.5q-9-10-19-17.25T154 209q-8.5-5.5-18.75-10.75t-20-9.5-18.5-7T82 179q-5 0-5 1-.5 1-.75 5.5t4 15 14.5 28T125.5 273zm45.5-6q-7 10.5-8 22t1.5 22.5q9.5 6.5 17.25 9T195 323q4.5 0 6-1 5-1.5 9-6t6.5-9.5q-2.5-4.5-4.5-9t-4.5-10q-9-21.5-12-39-5.5 1-11.75 4.75T171 267zm58.5 116.5q1.5-1 3-5.5t2.5-11 1.75-13.5.25-12.5q-.5-1-.5-4-7.5-6.5-16.5-24-3 5-7 9t-9.5 6.5q-2.5 1-8.5 1-12.5 0-28-8.5 4.5 13 11 21 3.5 4.5 9.25 11.5t12.5 13.75 14 11.75 13.75 5q1 0 2-.5zm-19-97.5q10 24 18.25 36.25T241.5 337v-4q-.5-8-3-23T228 276.5q-7-16-12.25-26.5t-9.25-17q-3.5-5.5-5.75-7.75t-3.25-2.75q0 .5-.25.75t-.25 1.25q-.5 1-.5 3v.5q-.5 2-.25 4.75T197 239q1 8.5 4.25 20.5t9.25 26.5zm5-43.5q4 7 7.75 15t7.75 18q2.5 5.5 4 10.25t3 9.75q2 1.5 12.25 6.25T280 306.5h7l7.5-.5q13-2 22.25-11.25t15.75-23.25l-1-3-1-2.5q-3-7-10.5-13t-17.5-10.5-21.75-7.25T257 232.5q-23 0-41.5 10zm95.5 115q5-6 10-14.5t8.75-18.75T335 303t0-21.5q-7 12.5-16.75 20.75T295.5 312.5q-4 .5-8 .75t-7.5.25q-14.5 0-24.25-3t-15.25-6q4 18.5 4 27.5 8 12 16.5 18 12 8.5 20 13.25t13.5 4.75q2.5 0 6.25-1.75T311 357.5zM348 202q1-18.5-3-34.25t-12-24.25q-7.5-8-18.5-8-2.5 0-7.5 1-11.5 2.5-26.25 12.25t-29 23.25-25.5 29.75-15.75 31.75q.5 1 1 1.5t1 1.5q20-10.5 44.5-10.5 13 0 25.5 2.75t23.25 7.75 18.75 11.75T336 263q5.5-14 8.25-29.75T348 202z"/></svg>