<svg xmlns="http://www.w3.org/2000/svg" viewBox="0 0 425 512"><path d="M138.5 340v9.25l-1 10.25q-.5.5-1.5 1t-3.5.5q-8 0-8-6.5 0-5.5 3.75-10.5t10.25-10.5v6.5zm60.5-7.5q-3.5 5-11 6.5h-3.5l.5-1q2.5-5.5 6.75-7.75t6.75-2.25h1q1 2.5-.5 4.5zM212.5 51Q256 51 294 67.5t66.25 44.75T405 178.5t16.5 81.5-16.5 81.5-44.75 66.5T294 453t-81.5 16.5T131 453t-66.5-45-45-66.5T3 260t16.5-81.5 45-66.25T131 67.5 212.5 51zm127 319q2.5-5.5 3.5-13-2.5-2.5-4.75-4.25t-4.75-4.25q-2.5-2-4.25-3.5t-3.75-3.5q0-3-.5-6l-1-6q-9.5-48.5-42.25-75.5T189 217v-2.5q1.5-11 3.25-24t2-25-1.5-22.5-6.75-17q-5.5-7.5-15.5-8.5h-2q-8.5 0-17 6.5t-14 27.5q-5-4-11-7t-13-3q-9.5 0-19 6-9 5-10 16.5 0 8 4.75 17t12 17.75 16 16.75 16.25 14q-6 4-14 10.75t-16 14.5-14 16.5T82 288.5q-2.5 13 5 22.5 7.5 8.5 19.5 8.5 4 0 10-1.5t13.75-6.25T147 298t19-23.5q2 7 1 15t-9.5 14.5l-5.5 3.5q-16.5 12-28 22.25t-11.5 24.75q0 8.5 5.5 13.75t14.5 5.25q5.5 0 10.75-2.25T150 364q2.5-7.5 2.5-16 3.5 1 7.75 1.5T169 351q-2 11-2 24.75t3.5 26.75H183q-4-11.5-4-25.75t2-25.25q4 .5 9-.5 13.5-2.5 19.5-12 4-7 1.5-15-2.5-8.5-12.5-8.5-6 0-13.25 4.25T174 332.5q-1 1.5-1.5 2.75t-1.5 3.25q-4.5-.5-8.75-1.25t-7.75-1.75q-4-1-7.5-1.5l-7.5-1.5q4-3.5 9-7T159 318l5.5-4q8-6 11.5-13.75t3.5-15.5-2-15T173 258l-4.5-9.5-6 9Q152 275 142.75 284.75t-16.5 14.75-12.5 6.25-7.25 1.25q-6.5 0-10-4.5Q93 299 94 291q1.5-7.5 8-15.75T117 259t17-14.25 13.5-9.75l8-5.5-8-5q-8.5-6-17.5-14T113.75 194t-12-16.25T97 164.5q0-4.5 3.5-6.5 10-6 17.75-3.25T135 166q-1 7.5-1.25 13t-.25 7.5q0 9.5 5 18t15 8.5q3 0 7-1.5 5.5-2.5 7.25-5.5t2.25-5.5q3-13.5-16.5-33L148 162q1-5 2.5-10.75t4.25-10.75 6.25-8 8.5-2.5q5 1 7 4 3.5 5 4.75 14.25t.75 20.5-2 23-3 20.75l-2 15 6 1q59.5 8.5 90.75 33.25T312 332q-2-1-3.5-1.5l-3-1q-8-2.5-17.75-4.25T268 323.5q-33 0-44.5 23.5-6.5 13-8.25 28t1.75 27.5h12.5q-3.5-10.5-2.25-24.25t7.25-25.75Q242 336 268 336q9 0 18.25 1.75t16.25 3.75q5 1.5 11 6.5-.5 14.5-6.75 23.5t-13.75 14-13.75 6.75-6.75 1.75l-13 2.5 7 6H287q11.5-4.5 23-15.25t14.5-29.75q.5 0 .5.25t.5.25q3.5 3 6.75 6.25t7.25 5.75zM146 177.5q8 8.5 10.25 13.75T158 198q0 1-2 2-1 0-1.5.25t-1 .25q-3.5 0-5.5-4.5t-2-9.5v-9z"/></svg>