<svg xmlns="http://www.w3.org/2000/svg" viewBox="0 0 425 512"><path d="M212.5 50.5Q256 50.5 294 67t66.25 44.75T405 178t16.5 81.5T405 341t-44.75 66.5-66.25 45-81.5 16.5-81.5-16.5-66.5-45-45-66.5T3 259.5 19.5 178t45-66.25T131 67t81.5-16.5zm82 303.5q-3.5 1-8-1-4-1.5-9.25-5.25T266.5 336.5q22-14.5 35.75-37.5T317 248q.5-22-7-41.25T288.75 173t-32.5-22.75T216 142q-22 0-41.25 8.25T141 173t-23.5 33.75T108 248q-1 22 6.5 41.25T135.75 323t32.5 22.75T208.5 354q15.5 0 30-4.5 4.5 7.5 11 15.5 7 8.5 14.75 10.75T279 377q8-1 15.5-4.5V354zM217 168q11 0 20.5 6.25T254 191t10.75 24.75T268 246q-.5 17.5-5.75 32.25T248.5 304q-7.5-11-15.75-15t-15.25-4.5Q209 284 201 287v18.5q3.5-1 6.5-.5 2.5.5 5.75 2.25t6.25 5.75q1.5 2 2.75 4t2.25 4.5q-7.5 2.5-13 2.5-11.5 0-21-6.25T174 301t-10.75-24.75T160 246t5.25-30.25 12.5-24.75 17.75-16.75T217 168z"/></svg>