<svg xmlns="http://www.w3.org/2000/svg" viewBox="0 0 425 512"><path d="M212 51q43.5 0 81.5 16.5t66.5 44.75 45 66.25 16.5 81.5-16.5 81.5-45 66.5-66.5 45-81.5 16.5-81.5-16.5-66.25-45-44.75-66.5T3 260t16.5-81.5 44.75-66.25T130.5 67.5 212 51zm0 340q27 0 51-10.25t41.75-28 28-41.75T343 260t-10.25-50.75-28-41.5-41.75-28-51-10.25-50.75 10.25-41.5 28-28 41.5T81.5 260t10.25 51 28 41.75 41.5 28T212 391zm0-248.5q24.5 0 46 9.25T295.5 177t25.25 37.25T330 260q0 14.5-3.5 28.25t-10 25.75q-9-6-17.75-16.75t-16.5-21.75-14-20.75T258.5 241q-19-21-37.75-35t-46.25-22q-.5 14.5 0 28.75t-.75 27.5-5.75 25T153 286q-4.5 4-10.75 7T129 298t-14 2.75-13 .25q-7.5-19.5-7.5-41 0-24.5 9.25-45.75T129 177t37.25-25.25T212 142.5z"/></svg>