<svg xmlns="http://www.w3.org/2000/svg" viewBox="0 0 425 512"><path d="M212.5 50Q256 50 294 66.5t66.25 44.75T405 177.5t16.5 81.5-16.5 81.5-44.75 66.5T294 452t-81.5 16.5T131 452t-66.5-45-45-66.5T3 259t16.5-81.5 45-66.25T131 66.5 212.5 50zm66 254q9-7.5 15.25-18T304 263t5.5-25.25 0-24.75q-1.5-13-8-25.25t-17-21.75-24-16-28.5-8q-23-2.5-44.25 3t-37.5 17.25T124 191.5 114 231q0 21 7.5 34t26.5 20q6.5-6 6.75-11.25t-2.25-10.5-6-11-4-12.75q-2-18.5 7.25-35.25T174.5 177t35.5-12.5 40 9.5q9.5 5.5 15 15.75t7.75 23 1 26.5-6 25.25-12.75 20-19 10.5q-7 1.5-14.25-.25T211.5 290q-8-7.5-6.5-17t5.5-20.5 7.25-22.5-1.25-22q-4-9-11.25-10.75T191 199t-12.75 10.5-7.25 15q-1 8.5 1.5 16.75t2.5 16.25q0 9-2.5 19.25t-5.75 21-6.5 21T155.5 338q-1 7-1.75 19t1.25 19.5l-.5.5H171q8.5-14.5 14.5-34t10.5-37.5q2.5-2.5 3.75 1t3.75 5q7.5 6 18 7.25t21-.25 20.25-5.5 15.75-9z"/></svg>