<svg xmlns="http://www.w3.org/2000/svg" viewBox="0 0 425 512"><path d="M212 51q43.5 0 81.5 16.5t66.5 44.75 45 66.25 16.5 81.5-16.5 81.5-45 66.5-66.5 45-81.5 16.5-81.5-16.5-66.25-45-44.75-66.5T3 260t16.5-81.5 44.75-66.25T130.5 67.5 212 51zm0 104.5q-31 0-57.75 12t-42.75 33l67 64L279 172q-14.5-8-31.75-12.25T212 155.5zm-108 57q-9.5 16-9.5 36 0 18 8.25 34.25T126.5 312l42-38.5zm108 129q22.5 0 42.5-6.25t36-17.75l-73.5-70-82.5 76-.5 1q-3 7-7.75 14T115 350q2.5.5 6.75 1t9.75.5q24 0 43-13l3-1.5 2 .5q8.5 2 16.25 3t16.25 1zm89.5-32.5q28.5-26 28.5-60.5 0-20-10.25-38t-28.75-31l-64 59z"/></svg>