<svg xmlns="http://www.w3.org/2000/svg" viewBox="0 0 425 512"><path d="M212.5 217q17.5 0 29.5 12.25T254 259t-12 29.5-29.5 12-29.75-12T170.5 259t12.25-29.75T212.5 217zm0-64q22 0 41.25 8.25T287.5 184t22.75 33.75T318.5 259t-8.25 41.25T287.5 334t-33.75 22.75T212.5 365t-41.25-8.25T137.5 334t-22.75-33.75T106.5 259t8.25-41.25T137.5 184t33.75-22.75T212.5 153zm-26 16.5q-29.5 6-43.5 26.5t-20 50h26q5-20 16.25-32.75T186.5 195v-25.5zm0 153q-5-2.5-10.5-5t-10.75-6.5-9.5-10-6.75-16h-26q6 29.5 20 43.5t43.5 20v-26zm-28-63.5q0 11 4.5 20.75t11.75 17 17 11.5 20.75 4.25 20.75-4.25 17-11.5 11.5-17T266 259t-4.25-21-11.5-17.25-17-11.5T212.5 205t-20.75 4.25-17 11.5T163 238t-4.5 21zm67 89.5q14.5-3 27.25-7.75t22.75-12.25 16.75-18T302 285h-26q-2.5 10-7 16t-11 10-14.75 6.5-17.75 5v26zM302 246q-6-30-26.5-50.25t-50-26.25V195q19.5 5.5 32.5 18.25T276 246h26zM212.5 49.5Q256 49.5 294 66t66.5 44.75 45 66.5T422 259t-16.5 81.5-45 66.5-66.5 45-81.5 16.5T131 452t-66.5-45-45-66.5T3 259t16.5-81.75 45-66.5T131 66t81.5-16.5zm0 327q24.5 0 45.75-9.25T295.5 342t25.25-37.25T330 259t-9.25-46-25.25-37.5-37.25-25.25T212.5 141t-46 9.25T129 175.5 103.75 213t-9.25 46 9.25 45.75T129 342t37.5 25.25 46 9.25z"/></svg>