<svg xmlns="http://www.w3.org/2000/svg" viewBox="0 0 425 512"><path d="M212 50q43.5 0 81.5 16.5t66.5 44.75 45 66.25 16.5 81.5-16.5 81.5-45 66.5-66.5 45-81.5 16.5-81.5-16.5-66.25-45-44.75-66.5T3 259t16.5-81.5 44.75-66.25T130.5 66.5 212 50zm0 340q27 0 51-10.25t41.75-28 28-41.75T343 259t-10.25-50.75-28-41.5-41.75-28-51-10.25-50.75 10.25-41.5 28-28 41.5T81.5 259t10.25 51 28 41.75 41.5 28T212 390zm0-248.5q24.5 0 46 9.25T295.5 176t25.25 37.25T330 259t-9.25 46-25.25 37.5-37.5 25.25-46 9.25-45.75-9.25T129 342.5 103.75 305t-9.25-46 9.25-45.75T129 176t37.25-25.25T212 141.5zM172.5 199h.5v90q0-1-4.25-1.25t-7.25.25q-9.5 1-15.75 8.75T140.5 314q.5 10 7.5 16t16.5 5q9-1 15.25-7.75t5.75-15.75h.5V229l65.5-15v62.5q0-1-4.25-1.25t-7.25.25q-9.5 1-15.75 8.5T219 301.5q1 9.5 8 15.5t16.5 5q9-1 15-7.75t6-15.75v-118z"/></svg>