<svg xmlns="http://www.w3.org/2000/svg" viewBox="0 0 425 512"><path d="M316.5 193.5H330v131h-54q13-12.5 20.25-29.5t7.25-36-7.25-35.75T276 193.5h40.5zm-168 0q-13 13-20.5 29.75T120.5 259t7.5 36 20.5 29.5h-54v-131h54zm107 0q16 11 25.5 28t9.5 37.5q0 21-9.5 38t-25.5 27.5q-2.5 1.5-4.5 2.75t-4.5 2.25q-.5.5-.75.5t-.75.5q-4.5 2-10 3.5-5.5 2-10 2.5h-2.5q-2.5.5-5.25.75t-5.25.25-5.25-.25-5.25-.75H199q-4-.5-9.5-2.5h-.5q-2.5-1-4.75-1.75t-4.75-1.75l-2-1q-2.5-1-4.5-2.25t-4-2.75Q153 314 143.25 297t-9.75-38q0-20.5 9.75-37.5t25.75-28q2-1 4-2.25t4.5-2.75q1 0 1.25-.25t.75-.25q5-2.5 9.5-4h.5q3.5-1 9.5-2 1-.5 2.5-.5 2.5-.5 5.25-.75t5.25-.25 5.25.25 5.25.75q2 0 2.5.5 2.5.5 5 .75t5 1.25l5 2 5 2q.5 0 .75.25t.75.25q2.5 1.5 4.5 2.75t4.5 2.25zm22 65.5q0-13.5-5.25-25.5t-14-20.75-20.75-14-25.5-5.25V207q11 0 20.5 4t16.5 11 11.25 16.5 4.25 20.5h13zM212 50q43.5 0 81.5 16.5t66.5 44.75 45 66.25 16.5 81.5-16.5 81.5-45 66.5-66.5 45-81.5 16.5-81.5-16.5-66.25-45-44.75-66.5T3 259t16.5-81.5 44.75-66.25T130.5 66.5 212 50zm131 143.5q0-5.5-3.75-9.25T330 180.5h-71q-10-6-22-9.5t-25-3.5-24.75 3.5-21.75 9.5H147q0-5.5-4-9.25t-9.5-3.75h-26q-5.5 0-9.25 3.75t-3.75 9.25q-5.5 0-9.25 3.75t-3.75 9.25v131q0 5.5 3.75 9.25t9.25 3.75h71q20.5 13 46.5 13 26.5 0 47-13h71q5.5 0 9.25-3.75t3.75-9.25v-131z"/></svg>