<svg xmlns="http://www.w3.org/2000/svg" viewBox="0 0 425 512"><path d="M299 257.5q11 0 17 6t6 15.5q0 9-6 15t-17 6q-5.5 0-10.75-3.25T279 289.5q-5-4.5-9-10.5 4-5.5 9-10.5 4-4 9.25-7.5t10.75-3.5zm-87.5 0q5.5 0 10.75 3.5t9.25 7.5q5 5 9 10.5-4 6-9 10.5-4 4-9.25 7.25T211.5 300q-11 0-17-6t-6-15q0-9.5 6-15.5t17-6zM212 50q43.5 0 81.75 16.5t66.75 45 45 66.5 16.5 81.5-16.5 81.75-45 66.75-66.75 45T212 469.5 130.5 453 64 408t-45-66.75T2.5 259.5 19 178t45-66.5 66.5-45T212 50zm90.5 275q22 0 31.25-13.5t9.25-32-9.5-32.25-31-13.75q-11 0-19.5 5T268.5 249q-7 6.5-12.5 15-5-8.5-11.5-15-5.5-5.5-14.5-10.5t-21-5-19.5 4.25-11.5 9.75q-5 6-6.5 13.5-3-6.5-8-12-4-4.5-10.5-8.25T136.5 237q-7 0-11.75 1.5t-8.25 3q-4 2-6.5 4.5l6-27.5h52.5V194h-70L84 267.5h26q2-3.5 5-6 2.5-2.5 6.25-4.5t9.25-2q11 0 15.75 7.75T151 279.5t-7.25 16.75T127.5 304q-7 0-10.5-2.75t-6-6.25q-2.5-4-3.5-9.5H81q2 11 7.5 20Q93 313 101.75 319t23.25 6q14 0 23-3.75t14.5-8.25q6-5.5 9-12 1.5 6.5 6.5 12 4 4.5 11.5 8.25T209 325t21-4 14.5-9.5q6.5-6 11.5-14 5.5 8 12.5 14 6 5.5 14.5 9.5t19.5 4z"/></svg>