<svg xmlns="http://www.w3.org/2000/svg" viewBox="0 0 425 512"><path d="M212 50q43.5 0 81.5 16.5t66.5 44.75 45 66.25 16.5 81.5-16.5 81.5-45 66.5-66.5 45-81.5 16.5-81.5-16.5-66.25-45-44.75-66.5T3 259t16.5-81.5 44.75-66.25T130.5 66.5 212 50zm96.5 118H274q-13.5 0-24.75 7.5t-18.25 19V168h-34.5q-10.5 0-19.75 4.5T160.5 185t-11 18.25-4 22.25V248h-38v38h38v91.5h38V286h39v91.5h38V286h38v-38h-38v-22.5q0-8.5 4.25-13.75t9.25-5.25h34.5V168zM226 206.5q-1.5 4.5-2.5 9t-1 10V248h-39v-22.5q0-8.5 4.25-13.75t8.75-5.25H226z"/></svg>