<svg xmlns="http://www.w3.org/2000/svg" viewBox="0 0 425 512"><path d="M212.5 49.5q43.5 0 81.75 16.5T361 111t45 66.75 16.5 81.75-16.5 81.75T361 408t-66.75 45-81.75 16.5-81.75-16.5T64 408t-45-66.75T2.5 259.5 19 177.75 64 111t66.75-45 81.75-16.5zm-20.5 81q-12 8.5-23.5 24T148 188.75t-14.5 38.75T128 265q0 25 6 44.75t16.75 33.75T176 365.25t31.5 7.75q16.5 0 32.25-7.25t28-19.25 19.75-27 7.5-31q0-18-4.5-31.25t-12-22.75-17-16.5-19.5-13q3 16 0 28.5T232 254t-17.25 11-22.25-.5q11.5-19.5 14.5-33t1.25-23.75-6.5-18.25T193 173t-5.25-18.5 4.25-24zM212.5 388q24.5 0 46-4t37.5-11 25.25-16.25T330.5 337q0-9.5-7-17.5t-19.5-15q-4.5 14-14.25 26.75t-22.5 22-28 14.75-31.25 5.5q-30 0-52.5-18.5T123 303.5q-13.5 7-21 15.25T94.5 337q0 10.5 9.25 19.75T129 373t37.5 11 46 4zm-5-31.5q-17 0-31.25-8.5t-21.5-24.25-5.5-37.5T167 238.5q-3 15-.75 28t8 22.5 14 14.75T205 309q19 .5 30.75-15.75T253 253q15.5 12 19.75 29.5T271 316.25t-22 28-41.5 12.25z"/></svg>