<svg xmlns="http://www.w3.org/2000/svg" viewBox="0 0 425 512"><path d="M212.5 51Q256 51 294 67.5t66.25 44.75T405 178.5t16.5 81.5-16.5 81.5-44.75 66.5T294 453t-81.5 16.5T131 453t-66.5-45-45-66.5T3 260t16.5-81.5 45-66.25T131 67.5 212.5 51zM343 169l-.5-.5h-54l-1 .5v5.5q0 .5 1 1.5.5.5 1.5.5l4.5.5q4 0 5.75 1t3.25 2.5q3.5 2.5 1 10.5l-48 125.5-1.5-.5-30.5-68.5q0-.5.25-.75t.25-.75v-.5l25-51q2.5-4 4.25-7.5t2.75-5q2-3.5 3.75-4.25t7.25-1.25q2.5 0 2.5-2V169l-.5-.5h-44l-1 .5v5.5q0 .5 1 1.5.5.5 1.5.5l2 .5q7.5 0 9 2.5 1 1.5 1.25 3.75T237.5 191L218 233l-17-39q-4-9.5-4.5-12.75t6-4.25l3.5-.5q2 0 2-2V169l-1-.5h-46.5l-1 .5v5.5q0 2 3.5 2 3 .5 4.75 1.25t3.25 2.5 3.25 5.5T179 196q.5 1 1 2.5t1.5 3.5 2 4.5l18 39q.5 1.5 1.5 3.5t1.75 4.25 2.25 5.25l-26.5 58-1.5-.5q-12-27.5-22-51.5-4.5-10.5-8.75-21.25t-8.5-20.75T132 204t-5.5-14.5q-1.5-5-1.5-7.5 0-5 8-5l6-.5q2.5 0 2.5-2v-5l-.5-.5H82l-.5.5v5.5q0 1.5 3.5 1.5 9.5 1 12 3.5 2 2 7 13.5 5.5 15 13.5 34.5t16.75 40 17 40.25T165.5 343q3 8 7 8.75t9.5-9.25q2.5-5 6.25-13.25t8-17.75 8.5-19.25T213 273.5q3.5 9 7.5 18.75t8 19.25 7.25 17.5 5.75 13.5q4 8.5 8.25 9t8.25-9q3-7 7-17t8.5-21.75 9.5-24.5 10-24.75l24-60q3-9 8-13t16-5q2 0 2-2V169z"/></svg>