<svg xmlns="http://www.w3.org/2000/svg" viewBox="0 0 425 512"><path d="M212 50.5q43.5 0 81.5 16.5t66.5 44.75T405 178t16.5 81.5T405 341t-45 66.5-66.5 45T212 469t-81.5-16.5-66.25-45T19.5 341 3 259.5 19.5 178t44.75-66.25T130.5 67 212 50.5zM299.5 338q9 0 17-4.75T330.25 321t9.25-16.25 3.5-16.25q0-15.5-10-23t-21-11q2-6 2-14.5 0-12-4.75-22.75T296 198.5t-19.75-12.75T252 181q-21 0-37.25 11.75T192.5 222.5q-10.5-13-26.5-13-15.5 0-26 12t-10.5 29v2.5q-2.5-.5-6.5-.5-6 0-13.25 2t-13.5 6.5-10.5 11.25-4.25 16.25q0 9 3.5 18t9.25 16T108 333.75t17 4.25h174.5z"/></svg>