<svg xmlns="http://www.w3.org/2000/svg" viewBox="0 0 425 512"><path d="M212.5 50Q256 50 294 66.5t66.25 44.75T405 177.5t16.5 81.5-16.5 81.5-44.75 66.5T294 452t-81.5 16.5T131 452t-66.5-45-45-66.5T3 259t16.5-81.5 45-66.25T131 66.5 212.5 50zm16 273q15.5 0 30.75-6t27.25-18.25T306 267.5t7.5-45q0-21-5.75-38.25t-16.25-29.5-25-19.25-32-7q-45 0-66 35.5l-1.5 1h-2.5l-2-32.5h-27q.5 13.5 1 28t.5 32V390h30.5v-95l.5-2h3l.5 1q8.5 13.5 23.5 21.25t33.5 7.75zm-5-171q26 0 42.25 20.25T282 224.5q0 34.5-16.25 54.75T222.5 299.5q-19 0-33.75-11.5T169 257.5q-1.5-6-1.5-14.5v-33q0-6 2-14 5-19.5 20-31.75t34-12.25z"/></svg>