<svg xmlns="http://www.w3.org/2000/svg" viewBox="0 0 425 512"><path d="M212 50.5q43.5 0 81.5 16.5t66.5 44.75T405 178t16.5 81.5T405 341t-45 66.5-66.5 45T212 469t-81.5-16.5-66.25-45T19.5 341 3 259.5 19.5 178t44.75-66.25T130.5 67 212 50.5zm0 327q24.5 0 46-9.25T295.5 343t25.25-37.5 9.25-46-9.25-45.75-25.25-37.25-37.5-25.25-46-9.25q-24 0-45.5 9.25T129 176.5t-25.25 37.25-9.25 45.75 9.25 46T129 343t37.5 25.25 45.5 9.25zM222 263q-25.5 8.5-46.25 24.5T140 326q-23.5-26-26-62 4 .5 7.25.5H128q46 0 88-15.5l3 7zm12.5-21.5q31.5-14 58.5-37 17 24.5 17 54.5-19-4.5-37-4.5-16.5 0-32 3.5-1.5-4-3-8.25t-3.5-8.25zm-79.5 98q13-21 32-35.75t41.5-22.25q5.5 17 9 34.75t5.5 36.25q-14.5 5-31 5-31.5 0-57-18zm92.5-63q14-2.5 25.5-2.5 18.5 0 35 5-4 20.5-16 37.5T262 344q-3.5-34-14.5-67.5zm33-87q-13 10.5-26.5 19.25T226 224q-8.5-15.5-18.25-30.25T186.5 165q12-3.5 25.5-3.5 19.5 0 37 7.25t31.5 20.75zm-73 42Q169 245 128 245h-6.75l-5.75-.5q3.5-23 17-42t34.5-30q23.5 27 40.5 59z"/></svg>