<svg xmlns="http://www.w3.org/2000/svg" viewBox="0 0 425 512"><path d="M141.5 243q2.5-.5 5.75 0t5.25 2q3.5 2.5 4.5 7.25t.25 10-3.25 10-5.5 7.25-8.75 3-10.25-2.5q-4-2.5-5-7.25t0-10 3.25-9.75 5.25-7 8.5-3zm71-192.5Q256 50.5 294 67t66.25 44.75T405 178t16.5 81.5T405 341t-44.75 66.5-66.25 45-81.5 16.5-81.5-16.5-66.5-45-45-66.5T3 259.5 19.5 178t45-66.25T131 67t81.5-16.5zm-32.5 241q1.5-8.5 3-16.5t2.5-16.5q1-17-7.5-26t-23.5-10q-16.5-1-28 3.75T108 239q-5.5 6-9 13.25t-4.5 17.25q-1 15.5 9.5 25.75t29.5 8.25q2.5-.5 4.5-1t4-1.5q3-1 5.25-3.25T152 294q-1 4.5-1.75 10t-.25 10 3.25 7.75T162 325h13q1.5-9 2.75-17.25T180 291.5zm46.5-41.5q1-4.5 1.5-9t-1.5-8q-2.5-5-9.5-5.5t-15.5-.5q-.5 0-.5 1-1.5 11.5-3.5 24.75t-4 26.25q-1 4.5-1.25 9.5t1.75 8q2.5 4 10 4.5t15 0q2-11.5 3.75-24.75T226.5 250zm-3.5-31q5-2 8.5-6.25t1-11.25q-1.5-5-9.5-7.5h-5.5q-7 2.5-11.75 6.25T203 212q1.5 6 8 7.75t12-.75zm70.5 41q2-2.5 7.25-7.5t11-10.25 11-10.25 7.25-7.5q-8.5 1-17 0t-14 1.5q-2.5 1-4.75 3t-4.25 3.5q-4 4-7.5 8t-7.5 8q-2 2.5-3.75 4.25l-3.75 3.75q1-9 3.25-21t3.25-22q.5-11-7-13.25t-19.5-1.75q-.5 0-.5 1-1 7.5-3.25 21t-4.5 27.25-4 25-1.75 13.75q-.5 5.5 1.5 8.5t5.75 4.5 8.75 1.75 10.5.25q2-9 3-18.25t3-17.75q2.5 3.5 5 8l5 9q2.5 4 5.5 8.75t6 7.25q4 3 9.25 3.5t10.25-1 8.5-4.5 4.5-7.5q-6-1.5-10-4.5t-6.75-7.25-5-8.75-4.75-8.5z"/></svg>