<svg xmlns="http://www.w3.org/2000/svg" viewBox="0 0 425 512"><path d="M212.5 50.5Q256 50.5 294 67t66.25 44.75T405 178t16.5 81.5q0 43-16.5 81T360.25 407 294 452t-81.5 16.5T131 452t-66.25-45T20 340.5t-16.5-81Q3.5 216 20 178t44.75-66.25T131 67t81.5-16.5zm-99.5 131q-1.5 7.5 9 8.5t25.5 0q7-.5 13.5 4.25t11.25 14.25 7.5 23.25T182 262q6.5-2 15-3 0-4-1.25-13.75t-5-21.5-10.5-23.5T162.5 180q6-.5 14.5 1t18.5 7.5T217 206t24 31q4.5-2.5 9.5-3-4.5-7.5-13.75-19.75T215 190.75t-28.25-18T154 170.5q.5-6 0-11.75t-2.25-9.75-4.75-5.5-7.5 1q-5.5 3-6.75 5.5t-1 5.5 1 6.5.25 8q-1 4.5-3.75 5.75T123 177t-6.5.5-3.5 4zm90 194q10.5 0 20-4t16.5-11 11-16.5 4-20-4-20-11-16.5-16.5-11-20-4-20 4-16.5 11-11 16.5-4 20 4 20 11 16.5 16.5 11 20 4zm63.5-36q9.5-.5 17.75-4.25t14.5-10.25 9.75-15 3.5-18q0-20-14-34t-34-14q-11.5 0-21.25 5.25T226 263q19 7 30.75 23.5T268.5 324q0 9-2 15.5zm-79-46.5q5 0 8.25 3.25t3.25 8.25q0 4.5-3.25 7.75t-8.25 3.25q-4.5 0-7.75-3.25t-3.25-7.75q0-5 3.25-8.25t7.75-3.25z"/></svg>