<svg xmlns="http://www.w3.org/2000/svg" viewBox="0 0 425 512"><path d="M212 50q43.5 0 81.5 16.5t66.5 44.75 45 66.25 16.5 81.5-16.5 81.5-45 66.5-66.5 45-81.5 16.5-81.5-16.5-66.25-45-44.75-66.5T3 259t16.5-81.5 44.75-66.25T130.5 66.5 212 50zm51.5 199.5q-7 14.5-20 27.25T212 296.5q-16 6.5-31.5 7.5t-29-3q9 5.5 19.25 8.5t21.75 3q14.5 0 27.5-5t22.5-13.5 15.25-20 5.75-24.5zm-115-112q-3 7-1 13.5l47 113.5q2.5 7.5 5.75 11.5t4.25 4l3.5-1.5q1-.5 1.75-4.5t-1.25-12.5l-28.5-120q-1.5-5.5-6-9.25t-10-3.75q-3.5 0-5.5.5-7 2.5-10 8.5zm66.5 199q-28.5 4-53.75-3t-43.75-23q14.5 18 36.75 28.5T203 349.5q19 0 36-5.75t31-16 23.75-24T308 273.5q-12.5 24-36.75 41.25T215 336.5zm-5.5 53.5q27.5 0 51.75-11t42.5-29.75 28.75-44T343 251.5q0-15.5-4-31.5.5 2.5.5 5.5v5.5q0 29.5-10.75 55.25t-29 44.75-43 30.25T204 372.5q-20.5 0-39-6t-34.5-16.75T102 324t-20.5-33q6 21.5 18.25 39.5T129 361.75t37.5 20.75 43 7.5z"/></svg>