<svg xmlns="http://www.w3.org/2000/svg" viewBox="0 0 425 512"><path d="M212 141q24.5 0 46 9.25t37.5 25.25 25.25 37.5 9.25 46-9.25 45.75T295.5 342 258 367.25t-46 9.25-45.75-9.25T129 342t-25.25-37.25T94.5 259t9.25-46T129 175.5t37.25-25.25T212 141zm65.5 131h-39v-91.5H186V272h-39l65 65.5zM212 49.5q43.5 0 81.5 16.5t66.5 45 45 66.5 16.5 81.5-16.5 81.5-45 66.25-66.5 44.75T212 468t-81.5-16.5-66.25-44.75T19.5 340.5 3 259t16.5-81.5T64.25 111t66.25-45T212 49.5zm0 340q27 0 51-10.25t41.75-28 28-41.5T343 259t-10.25-51-28-41.75-41.75-28T212 128t-50.75 10.25-41.5 28-28 41.75-10.25 51 10.25 50.75 28 41.5 41.5 28T212 389.5z"/></svg>