<svg xmlns="http://www.w3.org/2000/svg" viewBox="0 0 425 512"><path d="M212.5 51Q256 51 294 67.5t66.25 44.75T405 178.5t16.5 81.5-16.5 81.5-44.75 66.5T294 453t-81.5 16.5T131 453t-66.5-45-45-66.5T3 260t16.5-81.5 45-66.25T131 67.5 212.5 51zM343 168.5h-39v131q-1 3-5.25 7.5t-6.75 5.5h-17q-2.5-.5-6.25-4.5t-4.25-6.5V241q0-5-1.5-13t-6.75-15.5T241 199.75t-27-5.25h-73q-9.5 0-17.5 4.75t-13.75 12-9 15.75-3.25 16q0 8.5 3.25 14.75T108.5 269t9.75 8.5 9.25 6L160 296q4 3 6.5 7.25T170 310q-1 1-2 1.75t-2.5.75h-84v39h84q9 0 16.75-3.25t13.75-9 9.5-13T209 311q0-13-8.5-27.25T179 262l-32.5-13q-4.5-2.5-6.5-4.25t-3-2.75q1-2.5 2.5-4.75T142 234h72q5.5 0 8.5 1 1.5.5 2 .5 0 .5.5 1.75t.5 3.75v60.5q0 9 4.25 18t11.5 16.25 16 11.5T275 351.5h17q9 0 18-4.75t16.5-12 12-16.5T343 300V168.5z"/></svg>