<svg xmlns="http://www.w3.org/2000/svg" viewBox="0 0 425 512"><path d="M212 51q43.5 0 81.5 16.5t66.5 44.75 45 66.25 16.5 81.5-16.5 81.5-45 66.5-66.5 45-81.5 16.5-81.5-16.5-66.25-45-44.75-66.5T3 260t16.5-81.5 44.75-66.25T130.5 67.5 212 51zm29 91.5q-13 0-22.25 9.25T209.5 174t9.25 22 22.25 9q13.5 0 22.75-9t9.25-22-9.25-22.25T241 142.5zm69 212l-2-4Q282 300 235 277q-.5-.5-1-.5l-.5-.5-1-.5q-1-1-1-1.5 1-3 1.75-3.5t1.75-.5h4q4.5 1 8.75 1.5t9.25.5q10 0 21.25-3.25t25.25-10.25l4-2.5-14-30-4.5 2q-5 2.5-12.75 4.5t-16.75 2q-11 0-19-3l-2-1-.5-1.5q-.5-.5-.5-1.5t-.5-2v-8l-4-.5q-6.5-1.5-16-6l-2.5-1.5-2.5 1q-16.5 9.5-24.5 25.25T177 278.5q-1 7-1.5 9.75t-1 3.75q-5.5 11-12.75 18.75t-14.75 13-14.75 8.25-12.75 4.5L114 338l15 40 4.5-1.5q16.5-4 28.25-9.75t20.25-12.5 14.5-14T208 326l3.5-5q1-1 2-1l2 1q13.5 6 23.5 12.5t17.25 13 11.5 12.5 6.75 10l2.5 4.5z"/></svg>