<svg xmlns="http://www.w3.org/2000/svg" viewBox="0 0 425 512"><path d="M183.5 286q-.5 12-17 19.5h-.5V286h17.5zm42.5-43q-9 7-9 22.5 0 9.5 3.75 16.75T234 292v-11.5q0-9-.75-19.75T226 243zm-26 9q8 0 9 7.75t1 20.75q0 16-1.5 23t-8.5 7q-6.5 0-8.25-7t-1.75-23q0-13 1.25-20.75T200 252zm12.5-202Q256 50 294 66.5t66.5 44.75 45 66.5T422 259.5 405.5 341t-45 66.5-66.5 45-81.5 16.5-81.5-16.5-66.5-45-45-66.5T3 259.5t16.5-81.75 45-66.5T131 66.5 212.5 50zm157 144h-32L313 244.5 290 194h-34.5l6 11q-2.5 0-5.25-.25t-5.75-.25q-15.5 0-22.5 5.5-9.5 5.5-9.5 20.5h24q0-5 1.25-9t8.25-4q6.5 0 8 3.5t1.5 9v6.5q-10 0-19.5.75T226 243q-5.5-5.5-16-5.5-12.5 0-19.5 9.5h-.5v-44h-24v39.5q-2.5-1-5.75-1.75T153 239q-13-3-33.5-3-22 0-34.5 3t-19.25 8.25-8.5 12-1.75 14.25q0 9 2 16.25t8.75 12.5 19.25 8 34 2.75q10 0 18.25-1t15.25-2q8-1.5 13-4.5V323h23v-9h.5q6 11 20.5 11 7.5 0 12-3t7-7.75 3.5-10.5T234 292q2 .5 6 .5 15 0 22.5-13h.5l1 11.5h22.5q-.5-4-.75-8t-.25-8v-22.5l10 19.5v41.5H327V272zm-108 11q16 2.5 20 10.25t4 17.75v19.5zm-21 59.5q0-5.5 1.5-8.5t4.5-4.25 6.75-1.5 8.25-.25q0 3.5.25 8.25t-.75 9-3.5 7.25-8 3q-6 0-7.5-4.25t-1.5-8.75zm-121 35q-7 0-11-2.25t-6-5.5-2.25-7-.25-7.25h66v8.5h-27.5q0 5-3.5 9.25t-15.5 4.25zm46.5-22v-35q13 5.5 16.25 14.5t2.25 20.5H166zM119.5 249q8 0 12.25 1.75t6 4.25 2 5.5.25 5.5h-40q0-2 .25-5t2-5.75 5.75-4.5 11.5-1.75z"/></svg>