<svg xmlns="http://www.w3.org/2000/svg" viewBox="0 0 425 512"><path d="M300 343q4 0 8 4.5 3 4.5 3 14 0 9-3.5 13-3 4-7.5 4-6 0-9-5.5-2.5-5-2.5-13 0-9 3.5-12.5 3-4.5 8-4.5zm-61.5-175q10.5 0 20 4.25t16.75 11.25T286.5 200t4 20.5-4 20.5-11.25 16.5-16.75 11-20 4q-11 0-20.5-4t-16.75-11T190 241t-4-20.5 4-20.5 11.25-16.5T218 172.25t20.5-4.25zm0 78.5q11 0 18.5-7.5t7.5-18.5-7.5-18.75-18.5-7.75-18.75 7.75T212 220.5t7.75 18.5 18.75 7.5zM212 50.5q43.5 0 81.5 16.5t66.5 44.75T405 178t16.5 81.5T405 341t-45 66.5-66.5 45T212 469t-81.5-16.5-66.25-45T19.5 341 3 259.5 19.5 178t44.75-66.25T130.5 67 212 50.5zm-117.5 235h26V155h-26v130.5zM148 312h-48v77h14v-32.5h29V343h-29v-18h34v-13zm53 70q7-7.5 7-21t-7-21q-7.5-8-19-8-8 0-13.5 3.5-6 4-9 10.5-3.5 8-3.5 14.5 0 8 3.5 16 3 6.5 9.5 10.5 7 3.5 13.5 3.5 11 0 18.5-8.5zm59 0q7.5-8 7.5-21 0-12.5-7.5-21-6.5-8-18.5-8-8 0-13.5 3.5-6 4-9 10.5-3.5 6.5-3.5 14.5 0 9.5 3.5 16 3 7 9.5 10.5 7 3.5 13 3.5 11.5 0 18.5-8.5zm64-70h-13v27.5q-6-7.5-14.5-7.5-9.5 0-15.5 7.5-6 7-6 21.5 0 14 6 21.5 7 8 15 8 4.5 0 8.5-2.5 4-2 7.5-7v8h12v-77zm6-131q0-10.5-7.75-18.25T303.5 155h-26l-13-26H212l-13 26h-26q-11 0-18.5 7.75T147 181v78.5q0 11 7.5 18.5t18.5 7.5h130.5q11 0 18.75-7.5t7.75-18.5V181zM182 344q5 0 9 4.5 3.5 4 3.5 12.5 0 9-3.5 13-4 4.5-9 4.5t-8.5-4.5q-3.5-4-3.5-13 0-8.5 3.5-12.5 3.5-4.5 8.5-4.5zm59.5 0q5 0 9 4.5Q254 354 254 361q0 8-3.5 13-4 4.5-9 4.5-5.5 0-8.5-4.5-4-5-4-13 0-7.5 4-12.5 3-4.5 8.5-4.5z"/></svg>