<svg xmlns="http://www.w3.org/2000/svg" viewBox="0 0 425 512"><path d="M184.5 229q-5.5 0-9.75-4t-4.25-10q0-5.5 4.25-9.75t9.75-4.25H226q6 0 10 4.25t4 9.75q0 6-4 10t-10 4h-41.5zm84 57q6 0 10 4t4 10q0 5.5-4 9.75t-10 4.25h-84q-5.5 0-9.75-4.25T170.5 300q0-6 4.25-10t9.75-4h84zM212 51.5q43.5 0 81.5 16.5t66.25 44.75T404.5 179t16.5 81q0 43.5-16.5 81.5t-44.75 66.25-66.25 44.5T212 468.5q-43 0-81-16.25t-66.25-44.5T20 341.5 3.5 260q0-43 16.5-81t44.75-66.25T131 68t81-16.5zM344 241l-.5-3-2-4.5-3.5-2.5q-1.5-1.5-5.75-1.5t-9.5-.25-10-.75T306 226q-3-3-4-8t-2-12q-1-6.5-1.75-10.5t-1.5-6.5-1.5-4.25-1.75-4.25q-4-8-10.75-15T268 153.25t-16.5-8.5-15.5-4.25h-52q-15.5 0-29 5.75T131.25 162t-16 23.5-5.75 29V301q0 15 5.75 28.5t16 23.75 23.75 16 29 5.75h85q15.5 0 29-5.75t23.5-16 16-23.75 6-28.5z"/></svg>