<svg xmlns="http://www.w3.org/2000/svg" viewBox="0 0 425 512"><path d="M212.5 49.5Q256 49.5 294 66t66.5 44.75 45 66.5T422 259t-16.5 81.5-45 66.5-66.5 45-81.5 16.5T131 452t-66.5-45-45-66.5T3 259t16.5-81.75 45-66.5T131 66t81.5-16.5zm-39.5 314L107.5 298v39.5l-13 13 26.5 26 13-13h39zm82 0q0-30-11.75-56.75T211.5 260t-46.75-31.75-57.25-11.75V259q21 0 40.5 7.75T182 289t22.5 34 8 40.5H255zm75 0q0-45.5-17.5-86t-47.75-71-70.75-48-86.5-17.5v42.5q37 0 69.75 14.25t57.25 38.75 38.75 57.25 14.25 69.75H330z"/></svg>