<svg xmlns="http://www.w3.org/2000/svg" viewBox="0 0 425 512"><path d="M141 294q-2.5-7-1.5-14 1-6 5.5-13.5t16-15l16 33zm71.5-243.5Q256 50.5 294 67t66.5 45 45 66.5T422 260t-16.5 81.75-45 66.75-66.5 45-81.5 16.5-81.75-16.5-66.75-45-45-66.75T2.5 260 19 178.5 64 112t66.75-45 81.75-16.5zm128 213.5q-12.5-16.5-34-28-18.5-10-48.25-15.5t-73.75 2h-2l-11.5-23-33.5 4 13.5 28q-13.5 5.5-22.25 12.75t-14 15.25-7.5 16.25T104.5 292q-1 18.5 7 38L220 299l-29.5-60.5q20-5.5 37.75-4t31.25 6q16 5.5 29 14l-37 10-10.5-20q-7.5-1-16-1.25t-17.5 1.25l25 50.5z"/></svg>