<svg xmlns="http://www.w3.org/2000/svg" viewBox="0 0 425 512"><path d="M212 50.5q43.5 0 81.5 16.5t66.5 44.75T405 178t16.5 81.5T405 341t-45 66.5-66.5 45T212 469t-81.5-16.5-66.25-45T19.5 341 3 259.5 19.5 178t44.75-66.25T130.5 67 212 50.5zM308.5 348q2-3 1.75-6.25t-1.75-6.25-3.75-5-4.25-3-5.75-.5-5.25-1q-1-1-1-7.5V211q0-9.5-.25-20.75t3.25-15.75q1-1 3.5-2t5.25-2.25 5-2.5T308 165q1-2.5 0-6.5t-2.75-7.75-4.5-6.25T296 142h-16.5q-10 2-19.5 3.5t-18 5.5q-2.5 1-5 2.75t-3 3.75q-2.5 8 2.5 13.25t10.5 7.75q1.5 1 5.5 1.25t5.5 1.75q2 2 1.5 8t-1 10q-1 10-1.25 18.5t1.25 19.5q.5 3.5 1.25 9.25T257.5 255q-1 1-3.75 1.25t-6 .5l-6.5.5-5.25.75q-16 1.5-27 3.75T184 267q-2 .5-5.25 1.25t-5.25-.25q-1.5-.5-2.25-5.25t-.75-6.75q-1-14.5 0-25.5t1-25v-9l1-6 3.75-2.5 6-1.75 6-1.75 4.25-3q1-2.5 1-6t-1-6q-2.5-6-7-8.75T175 157.5t-13.25.5-14.75 2.5q-11 2-20 4.75T114 175v4.5q2.5 5.5 5.25 8.5t7.25 5.5q2.5 1 6.25 1.25t4.75 1.75 1 7.75V215q0 16.5.75 29.5t.75 29q.5 13.5 1 28.5t2 28q.5 4.5 1 10.25t-1 7.75q-1 1-2.75 1.25T137 350q-4 1-8.25 3.5T124 360q-1 4.5 4 10t10 6.5q3 1 5.25 1t6.75-.5q5.5-.5 13.25-1.5t14.75-3 12.25-5.25 6.25-7.75q.5-5.5-3.5-10t-7.5-6q-1.5-.5-6 0t-6-2q-1-2-.75-5.75t.25-6.25q-1-5.5-1.75-14.75T173 302t8.5-5 9.5-2.5q11.5-4 20.25-5.25L234 286q1.5 0 5-.5t7.5-.75 7.25 0T258 286q.5 1 .5 4.75V297q0 4-.25 6.75t.25 5.75q0 5.5 1 12.75T258 332q-2 1.5-5.75 1.5t-6.25 1q-7 3.5-7.5 7.5-1 6 6 12.5t13 7q10 1 21.5-2t18.5-6.5q3-1 6.5-2.25t4.5-2.75z"/></svg>