<svg xmlns="http://www.w3.org/2000/svg" viewBox="0 0 425 512"><path d="M212.5 49.5Q256 49.5 294 66t66.5 44.75 45 66.5T422 259t-16.5 81.5-45 66.5-66.5 45-81.5 16.5-81.75-16.5-66.5-45-44.75-66.5T3 259t16.5-81.75 44.75-66.5T130.75 66t81.75-16.5zM225 159q-6 6.5-10 16.5t-3 20q10 1 19.75-4.25T248 178.5t10-17.25 2.5-20.25q-9 .5-19 5.5T225 159zm69 188.5q8.5-12.5 12.5-22.75t4-10.75q-9-4-16-10.5-6-5.5-11-14.75t-5-22.75q0-11 3.75-19.25t8.5-13.75 9-8.5 4.75-3q-5.5-7.5-12-12.25t-12.75-7-11.5-3.25-8.25-1q-7-.5-13.75 1t-12.75 3.75-11 4.25-8.5 2q-7 0-17.5-5.25T174 198.5q-15.5.5-28.5 8.25t-21 21.25-9.5 29.75 1.25 32.25 9.25 31 14 26q7.5 10.5 17 20.25t21 9.25q6 0 10.25-1.5t8.5-3.25 9-3.25T217 367t11.75 1.5 9 3.25 8.75 3.25 10.5 1.5q12.5-.5 21-9.25t16-19.75z"/></svg>