<svg xmlns="http://www.w3.org/2000/svg" viewBox="0 0 425 512"><path d="M212 50.5q43.5 0 81.5 16.5t66.5 44.75T405 178t16.5 81.5T405 341t-45 66.5-66.5 45T212 469t-81.5-16.5-66.25-45T19.5 341 3 259.5 19.5 178t44.75-66.25T130.5 67 212 50.5zm41 91.5q-14.5 0-25 10.25T217.5 177t10.5 25 25 10.5 24.75-10.5T288 177t-10.25-24.75T253 142zm-68.5 8q-11.5 0-19.25 8t-7.75 19q0 11.5 7.75 19.5t19.25 8 19.25-8 7.75-19.5q0-11-7.75-19t-19.25-8zm-52 6.5q-8.5 0-14.5 6t-6 14.5 6 14.75 14.5 6.25 14.5-6.25 6-14.75-6-14.5-14.5-6zm171 117.5q0-10-4-18.75T288.75 240 273 229.75 254 226t-18.75 3.75T220 240q-3.5-11.5-13-19t-22-7.5q-8.5 0-15.75 3.5T157 226q-2-8-8.75-13.25t-15.75-5.25q-10 0-17.5 7.25t-7.5 17.75v40H147V312h52v52h104.5v-90z"/></svg>