<svg xmlns="http://www.w3.org/2000/svg" viewBox="0 0 425 512"><path d="M212 50q43.5 0 81.5 16.5t66.5 44.75 45 66.25 16.5 81.5-16.5 81.5-45 66.5-66.5 45-81.5 16.5-81.5-16.5-66.25-45-44.75-66.5T3 259t16.5-81.5 44.75-66.25T130.5 66.5 212 50zm-14 115.5q19 2.5 35.5 9.5t28.5 17.75 18.75 24.5T287.5 246q0 19-10.25 35t-27.75 27.5q25.5-9.5 40.75-27.25t15.25-39.75q0-15.5-8.25-29.5T275 187.75t-33.25-16.25-40.75-6h-3zM271.5 319q32-11.5 51.75-33.75T343 235.5q0-19.5-10.25-36.5t-28-29.75T263 149t-51-7.5-50.75 8-41.5 21.25-28 31T81.5 239q0 17 8 32t20.75 27T139 318.5t31.5 12Q167 341 158.75 354t-22.25 22q22.5 2.5 43-2 17.5-3.5 36.25-14.75t30.75-34.75q-7 9-18 17-9.5 7-24 13t-35 8q6-8 10.5-15.5t7.5-13q3.5-6.5 6.5-12.5-15-3.5-28.75-9t-25.75-13.25-21-17-14-20.25l-2-10-1-10.5q0-18.5 8.25-34.5t22.75-27.75 35-18.25 44.5-6.5 44.5 6.25 35.5 17.5T315.25 205t8.25 34.5q0 25.5-12.75 46.5t-39.25 33z"/></svg>