<svg xmlns="http://www.w3.org/2000/svg" viewBox="0 0 425 512"><path d="M212.5 51Q256 51 294 67.5t66.25 44.75T405 178.5t16.5 81.5-16.5 81.5-44.75 66.5T294 453t-81.5 16.5T131 453t-66.5-45-45-66.5T3 260t16.5-81.5 45-66.25T131 67.5 212.5 51zM262 378q12.5 0 25.5-7t23.25-18.75 15.5-27.5T329 291t-11-28.5-18.75-16-20.5-7.25T262.5 237q-12.5-.5-10.5-11.75T264.5 196q3.5-6.5 4.5-14.5t-1.25-15.25-7.25-13.5-13-9.25h-27q7 0 12.75 6T243 163t1.25 15.5-7.75 14.5q-6 8-15 15-.5-4-3.5-12t-9.75-17.5-17.5-19-26.75-16h-21q-1.5 0-3-.5t-3.5-.5q8 8 16.75 13.5t15.75 9.5q8 4.5 12.25 12.75T187.5 195q2 9.5 2.5 20-6.5 0-14-2-7-1.5-15.75-4.25T141 201.5q-8-3.5-12.5-9.25t-7.25-12.5-4.5-14.25-4.25-15q-4 3-7 6.5t-5.5 7.5q1.5 4 2.75 8.75t2.75 10.25q4.5 19 15.25 32T143 237q13 9.5 29 15.5-13 3-26 5-11 2-22.5 3.25t-20 .25q-3-.5-6-1.75t-3-3.25v27.5q14.5 4 33 3t36-2q13.5-.5 18.5 4.75t6.25 13 1.25 17.25 3.5 18q9.5 23.5 27.25 32T262 378zm15-119q9 3 15.5 9.25t10 14.5 3.75 17.75-3.25 19-10 17-14.5 12-17 5.75-18-1.75-15.5-9-10-14.25-4-17.75 3-19.5q3.5-9.5 10-17t14.5-12 17.25-5.75T277 259zm-6 68.5q8.5 0 14.25-6.25T291 306q0-7.5-4.25-13.25T275.5 285q-1.5 7.5-6 10.5-3 2.5-7.5 2.75t-9-.25q-1.5 4-1.5 8 0 9 5.5 15.25t14 6.25z"/></svg>