<svg xmlns="http://www.w3.org/2000/svg" viewBox="0 0 425 512"><path d="M212 51q43.5 0 81.5 16.5t66.5 44.75 45 66.25 16.5 81.5-16.5 81.5-45 66.5-66.5 45-81.5 16.5-81.5-16.5-66.25-45-44.75-66.5T3 260t16.5-81.5 44.75-66.25T130.5 67.5 212 51zm71 278.5q20 0 33.5-11.75T330 288.5q0-17-8.75-25.5T294 249q-13.5-4.5-22.25-8.25T263 226q0-7.5 5.25-12.5t13.75-5q11.5 0 20 11l15-7.5q-11.5-20.5-34-20.5-17.5 0-27.75 9.75T245 227t10.25 24.25 31.25 15.25q11.5 4 18 7.75T311 288t-8.25 16.75T281.5 311t-18.75-7-10.25-17.5l-8-18-7.25-16.5-5.25-12.75-2.5-6.25q-9-21-25.75-32t-39.25-11q-14.5 0-27.25 5.5t-22.25 15-15 22.25T94.5 260t5.5 27.25 15 22.25 22.25 15 27.25 5.5q16.5 0 30.5-7t24-18.5l-9-21q-7 12.5-19 20t-26.5 7.5q-10.5 0-19.75-4t-16.25-11-11-16.25-4-19.75 4-19.75 11-16.25 16.25-11 19.75-4q16 0 28.5 8.5t18 22l22.5 51 2.5 5.5q7 16 17.75 24.75T283 329.5z"/></svg>