<svg xmlns="http://www.w3.org/2000/svg" viewBox="0 0 425 512"><path d="M281 246.5q9.5 0 15.5 6 3 3 4.75 6.5t2.25 13.5h-45q1-10 2.75-13.25t4.25-6.25q6-6.5 15.5-6.5zm-107.5-6q-3 2-6.75 4t-8.75 2h-24V207h20.5q5.5 0 9.5 1.25t7.5 2.25q7.5 4 7.5 15.5 0 11-5.5 14.5zm-.5 33q4.5 2.5 6.75 5.75t2.25 9.25q0 15-9.5 20-5.5 3-14.5 3h-24v-39h24.5q5 0 8.5-.25t6 1.25zM212.5 50Q256 50 294 66.5t66.5 44.75 45 66.5T422 259.5 405.5 341t-45 66.5-66.5 45-81.5 16.5-81.75-16.5-66.5-45T19.5 341 3 259.5t16.5-81.75 44.75-66.5 66.5-44.75T212.5 50zM206 315.5q6.5-11 6.5-25 0-13-5.5-23-6-9.5-17-14 7-3.5 11-9 7-8.5 7-23 0-14-7-24-10.5-16.5-37-16.5H94.5v157h65q5.5 0 10.5-.5t9.5-1.5q9-2 16.5-8 6.5-6 10-12.5zM251.5 207H304v-26h-52.5v26zm78.5 78.5v-9l-.25-7-.25-5.5q-2-12.5-8-22-3.5-6-7.75-10t-9.25-6.5q-11-5.5-23.5-5.5-21.5 0-35.5 15.5-13.5 15-13.5 44 0 30.5 15 44.5 14.5 13 35 13 24 0 37-17 4.5-5 6.75-9.5t3.25-12h-26.5q-1 7.5-2.5 7.75t-3 1.25q-2.5 2.5-6.25 4.5t-8.25 2q-8 0-14-4.5-5-3.5-7.5-8.75t-3-15.25h72z"/></svg>