<svg xmlns="http://www.w3.org/2000/svg" viewBox="0 0 425 512"><path d="M225.5 174q15 0 28.25 4.5t23 12 15.5 17.75T298 230t-5.75 21.75-15.5 17.75-23 12-28.25 4.5-28.5-4.5-23.25-12-15.5-17.75T152.5 230t5.75-21.75 15.5-17.75 23.25-12 28.5-4.5zm-13-123Q256 51 294 67.5t66.25 44.75T405 178.5t16.5 81.5-16.5 81.5-44.75 66.5T294 453t-81.5 16.5T131 453t-66.5-45-45-66.5T3 260t16.5-81.5 45-66.25T131 67.5 212.5 51zm13 280q24.5 0 45.75-8t37.25-21.5 25.25-32T343 230t-9.25-39.25T308.5 159t-37.25-21.5-45.75-8-46 8T142 159t-25.25 31.75T107.5 230q0 20 8.25 37.25T138.5 298l-8.5 66.5 55.5-39.5q18.5 6 40 6z"/></svg>