<svg xmlns="http://www.w3.org/2000/svg" viewBox="0 0 425 512"><path d="M305.5 259q0 5-.75 10.25T304 280q0 14.5-4.75 29t-14.75 27q-12 15-29 23t-41.5 9q-28.5-1.5-49.5-15t-31-40q0-3-3.5-6.25t-5-7.25q1-1 1.25-1.5t1.25-1.5h-.5q2.5-2.5 3-6.5t1-9.5q1-9 3.75-22.75t12.75-27.25q8.5-11.5 19.75-21.75t22.25-19.25q10.5-9 19-16.75T222 157.5q9.5 7.5 21.5 18t22.75 22.5 18.5 24.5 8.75 24l3 24zM285 323.5q7.5-9 11.75-19.5t6.75-21l-7 8.5-3-24.5q-1-11.5-8.75-24t-18.5-24.5T243.5 196 222 178q-5 7.5-13.5 15.5t-19 16.5q-11 9.5-22.25 19.75T147.5 251.5q-10 13-12.75 26.75T131 301q-.5 1-.5 3 26.5 49.5 81.5 51.5 49.5-1.5 73-32zM212 50q43.5 0 81.75 16.5t66.75 45 45 66.5 16.5 81.5-16.5 81.75-45 66.75-66.75 45T212 469.5 130.5 453 64 408t-45-66.75T2.5 259.5 19 178t45-66.5 66.5-45T212 50zm-.5 327.5q35-1 56-13.75t32-30.75 14.5-38.5 3-37.5-2.5-27.25T313 222q.5 4-.75 8t-3.25 7.5q-2 4-5 8-2.5-17.5-16-36.25t-29.5-33.75q-18.5-17.5-41-34-.5 8-9.25 17T187.5 178 162 200t-23 25q-8.5 11-12 22.5t-5 20.75-2 15.5-2 6.75q-3 1-7-1-2-1-3.5-2.5 9 30.5 22.75 48.25t28.75 27 29 12 23.5 3.25z"/></svg>