<svg xmlns="http://www.w3.org/2000/svg" viewBox="0 0 425 512"><path d="M212.5 51Q256 51 294 67.5t66.25 44.75T405 178.5t16.5 81.5-16.5 81.5-44.75 66.5T294 453t-81.5 16.5T131 453t-66.5-45-45-66.5T3 260t16.5-81.5 45-66.25T131 67.5 212.5 51zM226 377.5q18.5-1 35.25-9.25t28-20.75 15.5-28-2.25-31.5q-6.5-15.5-18.25-25t-26.75-15.25-31.75-9.5T192 230.5 170.25 218t-1-16.75 14.5-14.5T208 180.5t23.75 6.25 18.5 13.25T265 212.75t12.5 4.75q6-.5 11-5.25t6.75-11.5-1-15T282 169q-16.5-14.5-38.25-21.5t-53.75-4q-12.5 1-24.25 5.75t-21.25 13-15.75 20.5T121 211t6.25 28 20.25 20.75 28.25 14T206 281q10.5 1.5 21.5 4.75t18.5 8.75 9.25 13-6.75 17.5q-7.5 9-18 11.5t-20.75 1.25-19-4.5-12.25-5.75q-4-2.5-8.25-7.5t-9-9.75-10.75-8.5-13-3.25q-7.5.5-12.5 5.25t-6.5 12 1.5 15.75 12 17q8 7.5 16.75 13.5t19.75 9.75 25 5.25 32.5.5z"/></svg>