<svg xmlns="http://www.w3.org/2000/svg" viewBox="0 0 425 512"><path d="M212.5 51Q256 51 294 67.5t66.25 44.75T405 178.5t16.5 81.5-16.5 81.5-44.75 66.5T294 453t-81.5 16.5T131 453t-66.5-45-45-66.5T3 260t16.5-81.5 45-66.25T131 67.5 212.5 51zm30 314q1.5-1.5 3-3.25t3-3.75q-7-11.5-7-25.5 0-12.5 4.75-22.75t13.25-17.25V291q-3.5-11-12-21.5-8-10-20-18.5-11.5-8-34-18-11.5-5-19-9.5T162 215q-9-8-9-19 0-12 10.5-20.5Q174 168 191 168q12 0 21 4-2.5 6-2.5 11 0 11.5 7.75 19.25T236 210t18.5-7.75T262 183q0-12-9-20-12-13.5-27.5-20-19.5-8.5-37.5-8.5-28 0-48 18-19.5 18-19.5 43 0 11 3.5 20 2 4.5 4.5 9.25T135 234q8 9.5 18 16 5.5 3.5 12.5 7.25t17 7.75q9.5 4 16.5 7.5t11.5 7q8 6 14.5 15.5 6 10 6 19.5 0 16-11.5 26.5t-28 10.5q-23.5 0-39.5-18.5 8-8 8-19.5t-7.5-19.25-18.5-7.75-18.75 7.75-7.75 19.25q0 4 1.5 7l-1 .5q12 31.5 34 48.5 22 16 50.5 16t50-20.5zm44-1.5q13 0 21.75-9t8.75-22-8.75-22.25T286.5 301q-12.5 0-21.25 9.25t-8.75 22.25 8.75 22 21.25 9z"/></svg>