<svg xmlns="http://www.w3.org/2000/svg" viewBox="0 0 425 512"><path d="M246 204q-4.5 10-14 17.25t-20 7.25h-1l5-24.5h30zm-45.5 24.5H182l14-62h30.5q11 0 17.25 8t4.75 19q-5-2-9-2h-31zm11.5-178q43.5 0 81.5 16.5t66.5 44.75T405 178t16.5 81.5T405 341t-45 66.5-66.5 45T212 469t-81.5-16.5-66.25-45T19.5 341 3 259.5 19.5 178t44.75-66.25T130.5 67 212 50.5zM94.5 340h63l15.5-62h45.5q16 0 30.5-5.25T275.25 258t20-23 12.25-30q4-18.5 0-32.75t-12.75-23.75T274 134.25t-24-4.75H142zM328 233.5q4-17.5.5-30t-11-21.5q4 8 4.75 17.5t-1.75 22q-4 16.5-12.25 30.75t-20 24.75T262 293.25 231 299h-45l-15.5 66h-53l-2.5 12.5h63l15.5-66.5h45q16.5 0 31-5.75T295.75 289t20-24.75T328 233.5z"/></svg>