<svg xmlns="http://www.w3.org/2000/svg" viewBox="0 0 425 512"><path d="M212.5 51Q256 51 294 67.5t66.25 44.75T405 178.5t16.5 81.5-16.5 81.5-44.75 66.5T294 453t-81.5 16.5T131 453t-66.5-45-45-66.5T3 260t16.5-81.5 45-66.25T131 67.5 212.5 51zm78 277q-19 11.5-37.5 11.5-10.5 0-18.5-4.5-6.5-4-9-10.5-1-3-.5-9t.5-16.5v-65h52v-39.5h-52v-52h-38q-2 17.5-8.5 30-6.5 12-17 20-5.5 4.5-13.25 7.5T134 205.5V234h39v87.5q0 13 1.5 22.75t10 17.75q4 4 9.75 6.75t12.25 4.75q7 2.5 12.75 3.5t14.25 1q15 0 28-3 7-1.5 14-4t15-6v-37z"/></svg>