<svg xmlns="http://www.w3.org/2000/svg" viewBox="0 0 425 512"><path d="M212 50.5q43.5 0 81.5 16.5t66.5 44.75T405 178t16.5 81.5T405 341t-45 66.5-66.5 45T212 469t-81.5-16.5-66.25-45T19.5 341 3 259.5 19.5 178t44.75-66.25T130.5 67 212 50.5zm-6.5 342q15 0 28-4.5t22.75-12 15.5-17.5 5.75-21.5q0-11-5.75-21t-15.5-17.5-22.75-12-28-4.5q-1.5 0-3 .25t-2.5.25q-2.5-6-2.5-12 0-3.5.5-7.75t1.5-4.25h2q12.5 0 23.25-4.75t19-12.75 13-18.75 4.75-22.75q0-5.5-2.25-12.25t-5.75-9.75l21-11.5v-39l-43 23.5q-14.5-10-31.5-10-12.5 0-23.25 4.75T158 158t-12.5 18.75-4.5 22.75q0 14 6 25.75T163 245q-5.5 12.5-5.5 25.5 0 6 1.25 11.75t3.75 11.25q-13 7.5-21 19t-8 24.5q0 11.5 5.75 21.5t15.5 17.5 22.75 12 28 4.5zm0-76.5q13.5 0 22.75 6.25T237.5 337q0 9-9.25 15.25t-22.75 6.25q-13 0-22.5-6.25T173.5 337q0-8.5 9.5-14.75t22.5-6.25zm-4-89q-11.5 0-19.75-8t-8.25-19.5 8.25-19.5 19.75-8 19.75 8 8.25 19.5-8.25 19.5-19.75 8z"/></svg>