<svg xmlns="http://www.w3.org/2000/svg" viewBox="0 0 425 512"><path d="M212.5 51Q256 51 294 67.5t66.25 44.75T405 178.5t16.5 81.5-16.5 81.5-44.75 66.5T294 453t-81.5 16.5T131 453t-66.5-45-45-66.5T3 260t16.5-81.5 45-66.25T131 67.5 212.5 51zm-90 184.5q21-8 39.5-8 13 0 23.25 4.25T203.5 241l21.5-72.5q-3.5-2-11-5.75t-14-5.25q-7.5-2-17.5-2-9 .5-18.75 2.5t-21.25 6.5zm10.5 89q14 0 24.25 4.25T176 338.5q2-6.5 5.25-17t6.25-21.5 5.75-20.5 4.25-14.5q-2-1-4-2.5t-4-2.5q-17-8.5-32-8.5-2.5 0-4 .5-10 1-18.25 2.75T121.5 259l-3 1-3.5 1-20.5 71.5q21-8 38.5-8zm168.5-39q-19.5 6.5-38 6.5-17 0-28.5-4.25T216 278l-21 72q2.5 1.5 7.25 3.75T213 358.5t12.5 4.25 12.5 1.75q19.5 0 44-10zm28.5-97q-20.5 7.5-39.5 7.5-16 0-27.5-4.25T244 182l-21 72.5q20.5 14 45.5 14 20.5 0 40-9.5v-.5h1z"/></svg>