<svg xmlns="http://www.w3.org/2000/svg" viewBox="0 0 425 512"><path d="M295.5 219q13.5 0 22.5 10.5 6 7.5 6.5 20h-59q.5-13.5 9-22 9.5-8.5 21-8.5zm-83-169.5q43.5 0 81.75 16.5T361 111t45 66.75 16.5 81.75-16.5 81.75T361 408t-66.75 45-81.75 16.5-81.75-16.5T64 408t-45-66.75T2.5 259.5 19 177.75 64 111t66.75-45 81.75-16.5zM225 240q0-18.5-8.5-26.5-8.5-9-24.5-9-19.5 0-32.5 18.5-3-9-10.5-13.5-8.5-5-19.5-5t-19 5q-8.5 4.5-13.5 12V207H81v104.5h18v-54q0-14.5 3-22 3-8 9.5-11.5 6.5-4 14-4 10 0 14.5 6 4 6.5 4 17.5v68h18V251q0-16 7.5-23.5t19-7.5q6 0 10.5 3 4 3 6.5 7.5 1.5 4.5 1.5 15v66h18V240zm118.5 19q0-25.5-13.5-40t-34.5-14.5q-21.5 0-36 14.5-13.5 15-13.5 41t13.5 40 37 14q18.5 0 30.5-9 11.5-8.5 16-24.5l-18.5-2.5q-3.5 10.5-11 16.5-6.5 5-17 5-14 0-22-9-9.5-10-10-26.5h79v-5z"/></svg>