<svg xmlns="http://www.w3.org/2000/svg" viewBox="0 0 425 512"><path d="M212.5 50Q256 50 294 66.5t66.5 44.75 45 66.5T422 259.5 405.5 341t-45 66.5-66.5 45-81.5 16.5-81.75-16.5-66.5-45T19.5 341 3 259.5t16.5-81.75 44.75-66.5 66.5-44.75T212.5 50zm1 327q21 0 39.75-7t33-20.25 22.5-31.5T317 277.5t-7.25-39.25-16.25-27.75-17.5-17.25-11.5-7.75q-9-5.5-17.75-9t-17.25-9q-5.5-4-12.5-11.25t-13-14.75q-1 11.5-4.5 17.25T192 168q-9 7-15.5 10.25t-14 7.25q-3 1.5-12 7.5T132 210t-17 27.25-7.5 38.25 8.75 40.5 23.5 32 33.75 21.25 40 7.75zM190 269.5q10 0 18.75 4t16 8.75 13.5 9 11.25 4.25q4.5 0 10.25-3.5t12-7.75T284 276.5t10-3.5q8.5 0 11.5 6.75t3 12.25-1.75 13.5-5.75 14-7.25 8.5-8.25 2q-3 0-7.5-4.25t-9.5-9-9.75-9-8.75-4.25q-5 0-12.75 4.25t-16.5 9.5-18.25 9.5-18 4.25q-10 0-14.5-1.25t-8-3.75q-10.5-7.5-10-22 0-13.5 11-24t27-10.5zm1-74.5q-7 7-13.75 12.5t-19.75 13-18.75 8.25-6.75.25q-.5-.5-1.75-2t1.25-5.5q4-6.5 9.75-11.75t11.5-9.5 10.5-7 7.25-3.75q1.5-1 8.25-4.5t14.75-9q4.5-4 7.75-8.5t4.75-16q1 4 1.75 7.5t.25 8q-.5 4-3.25 6.75L201 177.5l-7 3.5q-1.5 1.5 0 1.5 3 1 3 3 0 1-1 3.25t-5 6.25zm39.5 143.5q-3 2.5-4.25 3.25T224 341q-2-2.5 1.5-6 2-1.5 4.75-3.75t5.75-3.75q3-1 5-1h5q2.5 0 5.25.25t4.75 1.75q2.5 1 3.5 3.5t2 4.5q1 3-2 4.5-1 1-1.5.5t-2-3q-1-2.5-3-4.25t-8-1.75-8.75 1.75-5.75 4.25zm32.5 11q2-1.5 3.5 1v1.75l-1 2.25q-1 1-8 4.75T241 364q-9 1-20.25.25T202 356.5q-1.5-1-1.25-2.5t1.25-2q2-2 3.5-2 1 0 1.5.5 3.5 3 9.25 4.75T233.5 357q11 0 18.5-2.5t11-5z"/></svg>