<svg xmlns="http://www.w3.org/2000/svg" viewBox="0 0 425 512"><path d="M264 256.5q20 0 34 14t14 34q0 9.5-3.5 18t-9.75 14.75-14.5 10.25-17.75 4.5q2-6.5 2-15.5 0-21-11.75-37.75T226 275q7-8.5 16.75-13.5t21.25-5zM203 285q10.5 0 20 4t16.5 11 11 16.5 4 20-4 20-11 16.5-16.5 11-20 4-20-4-16.5-11-11-16.5-4-20 4-20 11-16.5 16.5-11 20-4zm-15.5 43q5 0 8.25-3.25t3.25-8.25q0-4.5-3.25-7.75t-8.25-3.25-8.25 3.25-3.25 7.75q0 5 3.25 8.25t8.25 3.25zm-5.5-53.5q.5-16.5-2.25-30.25t-7.5-23.25T161 206.5t-14-4.5q-14.5 1.5-25 .5t-9-8.5q.5-3.5 3.5-4.25t6.25-.75 6.25-1 3.5-6q.5-4.5-.25-8t-1-6.5 1.25-5.5 6.5-5q4.5-2.5 7.75-1.25t5 5.25 2.25 9.75 0 11.75q17-4 32.75 2.5T215 202.75t21.75 23.5T250.5 246q-2.5 1-4.75 1.5T241 249q-12.5-19.5-24-31t-21.5-17.5-18.5-7.25-14.5-.75q11 8.5 17.75 20.25t10.5 23.25 5 21.25T197 271q-9 1-15 3.5z"/></svg>