<svg xmlns="http://www.w3.org/2000/svg" viewBox="0 0 425 512"><path d="M149 286q2.5 10 6.75 16t9.25 9.75 10.5 6.25 10.5 5v26q-14.5-3-25-7.75T143 329t-12.25-18-7.75-25h26zm37-90q-10 5.5-21 18.25t-16 32.25h-26q6-29 19.75-49.5T186 170v26zm90 50.5q-10.5-40-50.5-50.5v-26q29.5 6.5 49.75 26.75T302 246.5h-26zm-10 13q0 11.5-4.25 21.25t-11.5 17-17 11.5-20.75 4.25q-11.5 0-21.25-4.25t-17-11.5-11.5-17-4.25-21.25q0-11 4.25-20.75t11.5-17 17-11.5T212.5 206q11 0 20.75 4.25t17 11.5 11.5 17T266 259.5zm-53.5 42q17.5 0 29.5-12.25t12-29.75-12-29.5-29.5-12-29.75 12-12.25 29.5 12.25 29.75 29.75 12.25zm0-159.5q24.5 0 45.75 9.25t37.25 25.25 25.25 37.25T330 259.5t-9.25 46T295.5 343t-37.25 25.25-45.75 9.25-46-9.25T129 343t-25.25-37.5-9.25-46 9.25-45.75T129 176.5t37.5-25.25 46-9.25zm0 223.5q22 0 41.25-8.25t33.5-22.75 22.5-33.75T318 259.5t-8.25-41.25-22.5-33.75-33.5-22.75-41.25-8.25-41.25 8.25-33.75 22.75-22.75 33.75-8.25 41.25 8.25 41.25 22.75 33.75 33.75 22.75 41.25 8.25zm13-42.5q9.5-2.5 17.75-5t14.5-6.25 11-9.75 7.25-16h26q-6.5 29.5-27 43.25T225.5 349v-26z"/></svg>