<svg xmlns="http://www.w3.org/2000/svg" viewBox="0 0 425 512"><path d="M343 201v76.5h-26v78H201.5v-78H147v13q13.5 1 24.25 10.25T182 323v24.5q0 3.5-2.5 5.75t-6.5 2.25h-69.5q-4 0-6.5-2.25t-2.5-5.75V323q0-6.5 3.5-12.25t9.25-10 12.75-7 14-3.25v-13H81.5v-78q10-8.5 20.5-15.5 9-5.5 19.25-10.5t19.25-5q8.5 0 19 5t19 10.5q10 7 20.5 15.5v1.5h13.5v-54.5H304V201h39zM160 323q0-4.5-3.75-7.75T147 312h-17.5q-5.5 0-9.25 3.25T116.5 323v11H160v-11zm13-114q-9.5-8.5-18.5-13.75t-14-5.25-14 5.25-19 13.75v42H173v-42zm65.5 3h39v-39.5h-39V212zm78.5 11h-13v15h-91.5v-13H199v26h26.5v78.5h28v-39h11v39h26V251H317v-28z"/></svg>