<svg xmlns="http://www.w3.org/2000/svg" viewBox="0 0 425 512"><path d="M212.5 378q-24.5 0-46-9.25T129 343.5 103.75 306t-9.25-46q0-24 9.25-45.5T129 177t37.5-25.25 46-9.25q24 0 45.5 9.25T295.5 177t25.25 37.5T330 260q0 24.5-9.25 46t-25.25 37.5-37.5 25.25-45.5 9.25zm-57-38q24.5 18 57 18 16 0 30.5-5-3-36.5-14.5-71-22.5 7.5-41.25 22.25T155.5 340zm92.5-63q5 16 8.5 33t5.5 34.5q18-10.5 30.25-27.25t16.25-37.75q-9-2.5-17.75-3.75t-17.25-1.25q-11.5 0-25.5 2.5zm-133.5-12.5q1.5 36 26 62Q155 304 176 288t46-24.5q-2-6.5-5.5-14-21.5 8-43.75 11.75T128 265h-6.25l-7.25-.5zm159-9.5q18 0 37 4.5 0-30-17.5-54.5-27 23.5-58.5 37.5 2 4 3.5 8t3.5 8q8-2 16-2.75t16-.75zm-158-10q3 .5 6 .5h6.5q41 0 79.5-13.5-17-31.5-40-59-21 11-34.75 30t-17.25 42zm71.5-79.5q11.5 14 21.25 28.75T226 224.5q14.5-6.5 28-15.25T280.5 190q-14-13.5-31.5-20.75T212.5 162q-6.5 0-13 1t-12.5 2.5z"/></svg>