<svg xmlns="http://www.w3.org/2000/svg" viewBox="0 0 425 512"><path d="M264.5 170.5q2.5 2 11 8t17.75 17.25 16.5 27.75 7.25 39-8.5 41-22.75 31.5-33 20.25T213 362.5t-40-7.75-33.5-21.25-23.25-32.25-8.75-40.75 7.5-38.25 17-27 18.5-17 12-7.75q7.5-4 14-7t15.5-10q4-3.5 7.25-9.25T204 127q6 7 12.75 14.5T229 153q8.5 5.5 17.25 8.75t18.25 8.75zm-132.5 44q1 .5 6.75-.5t18.75-8q13-7.5 19.75-13T191 180q4-4 5-6.25t1-3.25q0-1.5-3-2.5-2-1 0-1.5l3.5-1.75 3.5-2.25q1-.5 3.75-3.25t3.25-6.75q0-8-2-15.5-1.5 11.5-4.75 16t-8.25 8.5q-7.5 5.5-14.25 9t-8.25 4.5q-2.5 1-7.25 3.75t-10.5 6.75-11.5 9.25-9.75 11.75q-2.5 4-1.25 5.75t1.75 2.25zm133.5 125q1-1 1-2v-2q-1-2.5-3.5-.5-3.5 2.5-11 5t-18.5 2.5q-11.5 0-17.25-2T207 336q-.5-.5-2-.5t-3.5 1.5q-1 1-1 2.25t1 2.25q8 7 19 7.75T241 349t16.5-4.75 8-4.75zm-40-19q-4 3-1.5 5.5 1 2 6.5-2.5 3-2.5 5.75-4T245 318t8 1.75 3 3.75q2 3.5 3.5 2.5 3-.5 2-4.5-1-1.5-2-4t-3.5-4q-2-1.5-4.75-1.75t-5.75-.25q-2.5 0-4.5.25t-5 1.25-5.75 3.25-4.75 4.25zm60-5.5q4.5.5 7.75-2t7.25-8q4-6 6-14.25t2-13.75-3-12-11.5-6.5q-4 0-10 3.5t-12.25 7.5-12 7.75T249.5 281q-5.5 0-11.5-4.25t-13.25-9-16-9T190 254.5q-8 0-14.75 3t-12 7.75-8.25 11-3 12.75q-1 15 10 22 3.5 2.5 8 3.75t14.5 1.25q8.5 0 18-4.25t18.25-9.5 16.5-9.5T250 288.5q4 0 8.75 4.25t9.75 9 9.5 9 7.5 4.25z"/></svg>