<svg xmlns="http://www.w3.org/2000/svg" viewBox="0 0 425 512"><path d="M296.5 285l7-8q-2.5 10.5-6.75 21T285 317.5q-23.5 30.5-73 32-54.5-2-81-52V295q1-9 3.75-22.75t12.75-26.75q8.5-11.5 19.75-21.75T189.5 204q10.5-8.5 19-16.25T222 172.5q9.5 7.5 21.5 17.75t22.75 22.25 18.5 24.5 8.75 24zm16.5-69q-.5-2.5 1.5 7.75t2.25 27.25-3 37.5T299.5 327t-32 30.75T212 371.5q-9.5-.5-23.75-3.25t-29.25-12T130.25 329t-22.75-48.5q1.5 2 3.5 3 3.5 2.5 7 1 2-.5 2.5-6.75t2-15.75 5-20.75T139 219q10-13.5 23.25-25t25.25-21.75T208.25 153t9.25-17q22.5 16.5 41 34 16 15 29.5 33.5t16 36q3-4 5-8 2-3.5 3.25-7.5t.75-8zm-9 58q0-6 1-11.25t.5-10.75l1 .5-10 12-3-24q-1-11.5-8.75-24t-18.5-24.5-22.75-22.5-21.5-18q-5 7.5-13.5 15.5t-19 16.5q-11 9.5-22 19.5T148 224.5q-10 13.5-12.75 27.25t-3.75 22.75q-1 5.5-1.25 9.25T127.5 290v.5q-1 1-1 1.5t-1.5 1.5q1.5 3.5 5.25 6.75T134 307q10 26 30.75 39.75T214 361.5q25-1 41.75-9t28.75-23q9.5-12 14.5-26.5t5-29z"/></svg>