<svg xmlns="http://www.w3.org/2000/svg" viewBox="0 0 425 512"><path d="M173 161.5V253h58q10.5 0 17.25-2t10.75-5.5q4.5-4 7-12.75t3-18.75h8.5v91.5H269q-2-19-5-24.5-3-6.5-10.5-10.5Q246 266 231 266h-58v74q0 9 1.25 14.25t2.25 7.25 2.75 3.75 3.25 2.75q4 2.5 15 2.5H239q10 0 17.5-1T269 367q4.5-1.5 9-4.75t9-7.75q5.5-6 11.25-16t11.25-20h7.5L296 384H107.5v-13.5h9q4 0 8.25.5t8.25-2q2.5-1.5 5.75-3t4.25-4.5 2.5-8.5 1.5-15.5V194q0-12.5-2.25-18.75T140 166.5q-3-4-9.5-4.5t-14-.5h-9v-13H296l2.5 52.5h-7q-2-10-4-16t-4.5-10q-4.5-7-13.5-11-5.5-2.5-25.5-2.5h-71z"/></svg>