<svg xmlns="http://www.w3.org/2000/svg" viewBox="0 0 425 512"><path d="M303.5 290q12.5 7 19.5 15t7 17.5q0 10.5-9.25 19.75T295.5 358.5t-37.5 11-45.5 4q-24.5 0-46-4t-37.5-11-25.25-16.25-9.25-19.75q0-10 7.75-18.25T123.5 289q10 33 32.25 51.25T208 359q15.5 0 30.75-5.5t28-14.75 22.5-22T303.5 290zm-62-99q10.5 6 20 13t16.75 16.5T290 243t4.5 31q0 16-7.5 31t-19.5 27-27.75 19.25-32.25 7.25q-17 0-31.5-7.75T151 329t-16.5-33.75-6-44.25q0-17.5 5.5-37.5t14.25-38.5 20.25-34 23.5-24q-5.5 14-4.25 23.75T193 159t8.75 16.5 6.5 18.25T207 217.5 192.5 250q12 3.5 22.25.5t17.25-11 9.75-20.25-.25-28.25zm-34 150.5q25.5-.5 41.25-12t21.75-27.75 1.75-33.5T252.5 239q-5.5 23.5-17 39.75T205 294.5q-8.5 0-16.75-5.25t-14-14.75-8-22.5 1.25-28q-16 26.5-18 48.25t5.25 37.25 21.5 24 31.25 8z"/></svg>