<svg xmlns="http://www.w3.org/2000/svg" viewBox="0 0 425 512"><path d="M302.5 232.5q22 0 31.25 13.5t9.25 32q0 18-9.25 31.75T302.5 323.5q-11 0-19.5-4t-14.5-9.5q-7-6-12.5-14-5 8-11.5 14-5.5 5.5-14.25 9.5t-20.75 4-19.5-3.75-11.5-8.25q-5-5.5-7-12.5-3 7-9 12.5-5.5 4.5-14.25 8.25T125 323.5t-23-6T89 304q-5.5-9-7.5-20h26q1 5 3.5 9 2.5 3.5 6.25 6.25T128 302q8.5 0 16-7.5t7.5-16.5-4.75-16.75T131 253.5q-5.5 0-9.25 2t-6.25 4.5q-3 2.5-5 6h-26L99 193h69.5v24h-52l-6 27.5q2.5-2.5 6.5-4.5 3.5-1.5 8.25-3t11.75-1.5q10 0 16.5 3.75t10.5 8.25q5 5.5 7.5 12 2-7.5 7-13.5 4-5 11.5-9.25t19.5-4.25 20.75 4.75 14.25 10.25q6.5 6.5 11.5 15 5.5-8.5 12.5-15 6-5.5 14.5-10.25t19.5-4.75zm-90 66.5q5.5 0 10.75-3.25t9.25-7.25q5-4.5 9-10.5-4-5.5-9-10.5-4-4-9.25-7.5t-10.75-3.5q-11 0-17.25 6.25T189 278t6.25 15 17.25 6zm87 0q11 0 17-6t6-15-6-15.25-17-6.25q-5.5 0-10.75 3.5t-9.25 7.5q-5 5-9 10.5 4 6 9 10.5 4 4 9.25 7.25T299.5 299z"/></svg>