<svg xmlns="http://www.w3.org/2000/svg" viewBox="0 0 425 512"><path d="M121 276H94.5V145H121v131zm-20.5 103v-77H148v13h-33.5v18h29v13.5h-29V379h-14zm56-28.5q0-7.5 3-14.5 4-7 9.5-10.5t13.5-3.5q11 0 18.5 8 7.5 8.5 7.5 21 0 13-7.5 21-7.5 8.5-18.5 8.5-5.5 0-13.5-3.5-5.5-3.5-9.5-10.5-3-6.5-3-16zm13.5.5q0 8 3.5 13 3.5 4.5 9 4.5t8.5-4.5q3.5-4 3.5-13 0-8.5-3.5-12.5-3-4.5-8.5-4.5t-9 4.5Q170 344 170 351zm46-.5q0-7.5 3-14.5 3-6.5 9.5-10.5 5.5-3.5 13-3.5 11.5 0 19 8 7.5 8.5 7.5 21 0 13-7.5 21-7.5 8.5-18.5 8.5-4 0-7-1t-6.5-2.5q-6.5-4-9.5-10.5t-3-16zm13.5.5q0 9 3.5 13 3.5 4.5 9 4.5 4.5 0 8.5-4.5 3.5-4 3.5-13 0-8.5-3.5-12.5-4-4.5-8.5-4.5-5.5 0-9 4.5-3.5 4-3.5 12.5zm95 28H312v-8q-3.5 5-7.5 7-4 2.5-8.5 2.5-8.5 0-14.5-8-6.5-8-6.5-21.5 0-14 6-21.5t15.5-7.5q8.5 0 14.5 7.5V302h13.5v77zM289 350q0 9 2 13 2.5 5.5 9 5.5 5 0 8-4 3-4.5 3-13 0-9.5-3-14t-8-4.5-8 4.5q-3 4-3 12.5zm15-205q11 0 18.5 7.75T330 171v78.5q0 11-7.5 18.75T304 276H173q-10.5 0-18.25-7.75T147 249.5V171q0-10.5 7.75-18.25T173 145h26.5l13-26h52l13 26H304zm-65.5 117.5q11 0 20.5-4t16.5-11 11.25-16.5 4.25-20.5-4.25-20.5-11.25-16.5-16.5-11.25-20.5-4.25-20.5 4.25-16.75 11.25T190 190t-4 20.5 4 20.5 11.25 16.5 16.75 11 20.5 4zm26-52q0 11-7.5 18.5t-18.5 7.5T220 229t-7.5-18.5T220 192t18.5-7.5T257 192t7.5 18.5z"/></svg>