<svg xmlns="http://www.w3.org/2000/svg" viewBox="0 0 425 512"><path d="M323.5 212.5q4.5 5.5 6 16.25t-1 24.75q-1.5 9.5-8 23t-19 26.25-31 22.25-43.5 10h-2.5q-31.5 0-52.25-19.75T143 257q-2.5-12.5-10.5-19.75T119 230H94.5v-24.5H128q9.5 0 17.5 4t14.25 10 10.75 13 7 13q1 2 1.5 3.75t1.5 4.25q3 7.5 4.25 16t5.5 16 13.25 13 27.5 7q17.5 1 28.75-6t18-17.5 9.75-21.75 4-18.75q3-16 6.5-24t15-9h1.5q5.5 0 9 4zM213 256q-4-.5-6.5-2.5t-4-4.5q-4-6.5-5.25-15.25t1.25-17.25q3.5-11.5 7.75-13.5t7.75-2q4 0 8 4t7.25 10.75T232 230q-.5 10-4.5 18.25T215 256.5q-1 0-2-.5zm42.5-5q-2.5 0-5-2.5t-4.25-7.25-2.75-10-1.25-10.75-.25-10q1-11.5 3.5-16.5t8-6h1q3.5 0 7 3t6 7.75 4.25 10.75 1.75 12.5q0 28-17.5 29h-.5z"/></svg>