<svg xmlns="http://www.w3.org/2000/svg" viewBox="0 0 425 512"><path d="M212.5 276.5q15 0 28 4.5t22.75 12 15.5 17.5 5.75 21.5-5.75 21.5-15.5 17.5-22.75 11.75-28 4.25-28-4.25T161.75 371t-15.5-17.5-5.75-21.5q0-13.5 8-25t21-19q-2.5-5.5-3.75-11.25T164.5 265q0-13 5.5-25.5-10-8-16-19.75T148 194q0-12 4.5-22.75T165 152.5t18.75-12.75T207 135q17 0 31.5 10l42.5-23.5V161l-20.5 11q3.5 3 5.75 9.75T268.5 194q0 12-4.75 22.75t-13 18.75-19 12.75T208.5 253h-2q-1 0-1.5 4.25t-.5 7.75.5 6.5 1.5 5.5q1.5 0 3-.25t3-.25zm-4-110q-11.5 0-19.75 8T180.5 194t8.25 19.5 19.75 8 19.75-8 8.25-19.5-8.25-19.5-19.75-8zm4 186.5q13.5 0 22.75-6.25T244.5 332q0-9-9.25-15.25t-22.75-6.25q-13 0-22.5 6.25T180.5 332q0 8.5 9.5 14.75t22.5 6.25z"/></svg>