<svg xmlns="http://www.w3.org/2000/svg" viewBox="0 0 425 512"><path d="M268 267q7 0 12.25 6t7.25 13q3.5 10.5 2.25 21.5t-9.25 20q-5.5 6-12.5 6-7.5 0-12.75-6t-7.75-13Q245 304 246.25 293t8.75-20q6-6 13-6zm-111 0q7 0 12.25 6t7.75 13q3 10.5 1.75 21.5t-9.25 20q-5.5 6-12.5 6-7.5 0-12.75-6t-7.75-13Q134 304 135.25 293t8.75-20q6-6 13-6zm176-61q23.5 27 23.5 69 0 36-10.5 57.5-7 13-18.5 22.75T303 370q-6.5 2.5-13.75 4.75t-15.75 3.75-15.75 2.25T244 382t-13.75.75T215 383h-13l-11.5-.5-12-.75-13.5-1.25q-13.5-1.5-26.5-5.5-18-5-34.75-15T79 332.5Q68 311 68 275q0-41 23.5-69-4.5-14-4.5-29 0-20 9-38 19 0 32.5 7 7.5 3.5 15.5 8.75T161.5 167q25.5-6 53.5-6 25 0 48.5 5.5 17.5-14 32.5-21 13.5-6.5 33-6.5 8.5 18.5 8.5 38 0 15-4.5 29zm-35 139q8.5-7 14-18.25t5.5-26.25q0-21-12-35.5-11-14.5-32-14.5-4 0-12.25.75T239.5 254q-6 1-13 1.5t-14 .5q-7.5 0-14.5-.5t-13-1.5q-13-2-21.25-2.75t-12.25-.75q-21 0-32.5 14.5-12 14.5-12 35.5 0 15 5.5 26.25t14 18.25q9 6.5 21 10 13 4 24.5 5.25t25.5 1.25H227q14.5 0 25.75-1.25T277 355q12-3.5 21-10z"/></svg>