<svg xmlns="http://www.w3.org/2000/svg" viewBox="0 0 425 512"><path d="M194 254q0 7.5 7.5 13.75t16.25 13.75T234 299.75t7.5 27.25q0 25.5-22 45-24.5 20.5-66.5 20.5-11.5 0-24-2.5t-23.5-8.25-18-15.25-7-23.5q0-10.5 5.5-21.5 5.5-10 15.5-17.25t23-11.25q24.5-7.5 48.5-8-10.5-12.5-10.5-23.5 0-4 1.5-7 .5-1 1-3.25t1-3.25q-3 0-5.75.25t-5.25.25q-24.5 0-40.5-15.5-17-15.5-17-39 0-22 15-39.5 15-18 37.5-22.5 7.5-1.5 14.75-2.5t14.75-1H249L227.5 141H206q12 8 17.5 20 6 13 6 27 0 11.5-3.5 20.75t-9 14.75q-8 8.5-15.5 15.25T194 254zm-23.5-13.5q15.5 0 22.25-9.5t6.75-25.5q0-20-10-41-5-10-13.5-16.5t-19-6.5q-14.5 0-22.5 11t-8 26q0 9 2.75 20t8.5 20.25 14 15.5 18.75 6.25zm-2 139q9 0 18-2t16.25-6.25 11.5-11.25 4.25-17.5q0-3.5-.5-6.75t-1.5-5.75-3-5.5q-2-2.5-3.25-4.5t-4.25-5q-2-1.5-4.5-4-1-.5-2-1.5t-3-2.5l-5-3.5q-1.5-1-5-3.5l-5-3.5q-1 0-3.25-.25t-4.75-.25q-17 0-33.5 5-13 4-22 12.75t-9 23.75q0 11 5.5 19.25t15 13.25q17.5 9.5 39 9.5zm176-210.5v20.5h-41V230h-20v-40.5H243V169h40.5v-40.5h20V169h41z"/></svg>