<svg xmlns="http://www.w3.org/2000/svg" viewBox="0 0 425 512"><path d="M212.5 148q17.5 0 32.75 6.75T272 173t18.25 26.75T297 232.5q0 15-5 28.75t-14 24.5-21 18.5T231 315l-18.5 72-18.5-72q-14.5-3-26.5-10.75t-20.75-18.5-13.75-24.5-5-28.75q0-17.5 6.5-32.75t18-26.75 27-18.25 33-6.75zm0 147.5q13 0 24.5-5t20-13.5 13.5-20 5-24.5-5-24.5-13.5-20-20-13.5-24.5-5-24.5 5-20 13.5-13.5 20-5 24.5 5 24.5 13.5 20 20 13.5 24.5 5zm34.5-63q0 14.5-10 24.75t-24.5 10.25-24.75-10.25-10.25-24.75 10.25-24.75 24.75-10.25 24.5 10.25 10 24.75z"/></svg>