<svg xmlns="http://www.w3.org/2000/svg" viewBox="0 0 425 512"><path d="M181.5 324.5q-2.5 11-2.5 25t4 26h-12.5q-3.5-13-3.5-27t2-25q-4.5-1-8.75-1.5t-7.75-1.5q0 8.5-2.5 16-1.5 5-6.75 7.25T132.5 346q-9 0-14.5-5.25T112.5 327q0-14.5 11.5-24.75T152 280l5.5-3.5q8.5-6 9.5-14.25t-.5-15.25Q156 261.5 147 270.5t-16.75 13.75-13.75 6.25-10 1.5q-12 0-19-8.5-8-9.5-5.5-22.5 1.5-8.5 7.5-17.25t14-16.5 16.25-14.5T133.5 202q-7.5-6-16.25-14t-16-16.75T89.5 153.5t-4.5-17q0-11.5 9.5-16.5 9.5-6 19-6 7 0 13 3t11 7q5-20.5 14-27.25t17-6.75h2.5q9.5 1 15.5 8.5 5 6.5 6.5 17t1.25 22.5-1.75 25-3 24l-.5 2.5q60 10 92.75 37T324 302q1.5 6 1.5 12 2 2 4 3.75t4 3.25q2.5 2.5 4.75 4.25t4.75 4.25q-1 7.5-3.5 13-3.5-2.5-7-5.75t-7-6.25l-.5-.5q-3.5 19-15 29.75t-23 15.75h-20l-7.5-6.5 13-2.5q.5 0 6.75-1.75T293 358t13.75-14 6.75-23.5q-6-5-11-6.5-7-2-16-3.75T268 308.5q-25.5 0-33.5 16.5-6 12-7.25 25.75t2.25 24.75H217q-3.5-13-1.75-28t8.25-28Q235 296 268 296q10 0 19.75 1.75T305.5 302l3 1 3.5 1.5q-8.5-45.5-40-70.25T181 201l-6-.5 2-15.5q1.5-9 3-20.75t2-23-.5-20.5-5-14.25q-2-3-6.5-4-5-.5-8.75 2.5t-6.5 8-4.25 10.75-2.5 10.75l5.5 5.5q19.5 20.5 16.5 33-.5 2.5-2.25 5.5T161 184q-4 1.5-7.5 1.5-10 0-15-8.25t-5-18.25q0-2 .25-7.5t1.25-13q-9-8.5-16.75-11.25t-17.75 3.25q-3.5 2-3.5 6.5 0 5.5 4.75 13.5t12 16.5T130 183.5t17.5 13.5l8.5 5-8.5 5.5q-5 3.5-13.5 9.75t-17 14.25-15 16.25-8 15.75q-1 7 2.5 12 4 4 10 4 2 0 7.25-1.25t12.5-6.25 16.5-14.75T163 230l5.5-9 5 9.5q2.5 4.5 4.5 11.75t1.75 15-3.75 15.5-11.5 13.75l-5.5 4q-5.5 4-10.5 7.5t-9 7l7.5 1.5q.5 0 8 1.75t16.5 2.75q.5-2 2.5-6 4-8.5 11.25-12.75T198.5 288q10 0 12.5 8.5 1.5 4 1 7.75t-2.5 7.25q-6 10-19.5 12-5 1-8.5 1zm3.5-14q0 1-.5 1h3.5q7.5-1.5 11-6.5 1.5-2 .5-4.5h-1q-2.5 0-6.75 2.25T185 310.5zM146 159q0 5 2 9.5t5.5 4.5q1 0 1.5-.25t1.5-.25l1.25-1.25.75-.75q0-1.5-2.25-6.5T146 150.5v8.5zm-8.5 173q1-4 1-10.25V306Q125 317 125 327q0 6.5 7.5 6.5 2.5 0 3.5-.5t1.5-1z"/></svg>