<svg xmlns="http://www.w3.org/2000/svg" viewBox="0 0 425 512"><path d="M212.5 129.5q27 0 50.75 10.25t41.5 28 28 41.5T343 260t-10.25 51-28 41.75-41.5 28T212.5 391t-51-10.25-41.75-28-28-41.75-10.25-51 10.25-50.75 28-41.5 41.75-28 51-10.25zm0 13q-24.5 0-45.75 9.25T129.5 177t-25.25 37.25T95 260q0 21 7 41 12 1 27-2.75T153.5 286q10-9 14.5-20.75t6-25 1-27.5 0-28.75q27 8 45.75 22t37.75 35q4 4 10.25 13.75t14 20.75 16.5 21.75T317 314.5q6-12.5 9.5-26.25T330 260q0-24.5-9.25-45.75T295.5 177t-37.25-25.25-45.75-9.25z"/></svg>