<svg xmlns="http://www.w3.org/2000/svg" viewBox="0 0 425 512"><path d="M212.5 381q-6 0-11-5L131 298.5q-4.5-5-7-6l-3-2.5-1.5 3.5q-1 2.5-3.5 6.25t-5.5 6.75-5 3q-2.5 0-4.25-2T99 300l-4-37.5q-1-6.5 3-10.5 3.5-4 10-4h2l38.5 3.5q8 1 9.5 5 .5 1 .25 2.5t-2.75 3.5q-6.5 7-13.5 9l-3.5 1.5 2 3q1 1 2.75 2.5t4.25 4l32.5 28q4 3 7 3 5.5 0 5.5-8.5v-75l-1.5-.5q-11.5-6-18-16.5t-6.5-23q0-9 3.5-17.25t9.75-14.25 14.75-9.5 18-3.5 18 3.5 14.75 9.5 9.75 14.25 3.5 17.25q0 12-6 22t-17 16.5l-1.5.5v74.5q0 8.5 6 8.5 2 0 3.75-1t2.75-2l31-26.5q5-4.5 6.5-6.5l2.5-3-4-1.5q-6.5-2-13.5-9-3.5-3.5-2-6 1-4 9-5l39-3.5h1.5q6.5 0 10 4 4.5 4.5 3.5 10.5l-4 37.5q-1.5 9.5-6.5 9.5-2.5 0-5-3-3.5-3-6-6.75t-3.5-6.25l-1-3.5-3.5 2.5q-2.5 1-6.5 6L223.5 376q-5 5-11 5zm0-218q-11.5 0-19.75 8t-8.25 19q0 11.5 8.25 19.25T212.5 217t19.5-7.75 8-19.25q0-11-8-19t-19.5-8z"/></svg>