<svg xmlns="http://www.w3.org/2000/svg" viewBox="0 0 425 512"><path d="M325.5 269q7 13 3 29-4.5 15.5-18.5 23-13.5 7-29.5 2-5.5-1.5-11-4.5 3 12 0 22.5T258 357q-9 5.5-20 2.5-9-3-19-13.5l-.5 2q-4.5 16-18.5 23-14.5 7-30 2.5-8.5-2-15.5-7.5-2-2.5-3.75-5t-3.75-5q-7.5-14.5-2.5-29.5l1.5-4.5 6-9.5q-11.5 3.5-23.5 1-6.5-1-10-4.5-2.5-1-3.75-2.75T112 302.5q-5-9.5-2-17.5 1-4 3-7.5t6-6.5l5-4.5-2.5-.5q-9-1.5-15-7.5-5-3.5-8-8.5-7-13-1-26.5 5.5-14 19.5-21.5 14.5-7.5 29.5-4l8 2.5-2.5-3.5q-7.5-13-5-28 2-14 13-20.5 9.5-5 20-2 12.5 3 20.5 15.5l3 6 1.5 2.5.5-2.5v-.5q0-7.5 6-13.25t13-9.75q14-6.5 30-3 15.5 4 22.5 16l1 1.5q9 14 3.5 30.5L278 198l11-2.5q4-.5 8.25-.5t8.25 1q6 2 8.5 5.25t9.5 8.25v.5q0 4.5 1.75 9.25T325 229.5q-5 12.5-22 20.5 3 1.5 6 2.75t5.5 3.25q3 2 5 4.75t4 5.75zm-83-27.5L241 243l.5 1.5 1 2 41.5-5q3-.5 5.75-1t5.25-2q12.5-5 16-14l.5-3.5-1.5-4.5q-3-6-11.5-7-10-1-18 2.5l-4 1.5zm-24-66.5l.5 13.5 3.5 37.5q5 2.5 9.5 5.5l30.5-36.5q1.5-2.5 2.75-4.75t2.25-5.25l1-7q0-6.5-2.5-11.5-4.5-9-15.5-11-9.5-4-19 1.5-4.5 2.5-8 6.25T219 172zm-57.5-2q-.5 8 4 17.5l1.5 3.5 30 32 5-1.5L195 185q-.5-3-1.75-5.5t-2.25-5q-6-11.5-15.5-14-4-2.5-7.5 0-6.5 4-7 12.5zm-49.5 70q3.5 7.5 13 9l3 .5 49-6q1.5-5 5-10l-29.5-21-9-4q-10-2-19 3-10 4-13 14-3 8 .5 14.5zm44 52l10-8.5q3-2.5 6-5.5t7-6l-1-2.5-2.5-6.5-27 5q-3.5.5-10 4-11.5 5-14 13.5l-.5 3 1 3.5q2 4 10.5 5 9 1 17.5-3.5zm50 33q0-10-1.5-19t-2-17.5q-2.5 0-5.25-1.25T191.5 288L163 321q-3.5 4-5 9.5l-1.5 7.5q0 3 1 6t2 5.5q4 8 14.5 11 10 2.5 18.5-2.5 8.5-3.5 12.5-13.5l.5-3.5v-13zm-11-53q6.5 6.5 15.5 6.5t15.5-6.5q4-3 5.5-7.25t1.5-8.75q0-8.5-7-15.5-6-6-15.5-6-8.5 0-15.5 6-3.5 4-5.25 7.5t-1.75 8q0 10 7 16zm62.5 58q.5-9-4-17.5l-2-3-8.5-11-14.5-14-4.5 2-5.5 2 5 29 4 11q6 12.5 15.5 14.5 4.5 1 7.5-1 5.5-2.5 7-12zm59-45.5q0-9-5-14.5-4-7-12.5-9.5l-3.5-.5-13.5.5-38 3.5-1 4-2.5 5 35.5 28.5q2.5 4 9 5.5 9.5 3.5 19-1.5T315 294z"/></svg>