<svg xmlns="http://www.w3.org/2000/svg" viewBox="0 0 425 512"><path d="M191.5 148q15.5 0 29.25 6.25t24 16.75T261 195.5t6 30-6 30.25-16.25 24.75-24 16.5-29.25 6q-17 0-30-6.5L108 314l14-57.5q-6-14-6-31 0-16 6-30t16.25-24.5 24-16.75T191.5 148zm1 131q10.5 0 19.75-4t16-11T239 247.5t4-20.5q0-10.5-4-20t-10.75-16.75-16-11.25-19.75-4-19.75 4-16 11.25T146 207t-4 20q0 11 3.5 18.5L134 288l36-14.5q10 5.5 22.5 5.5zm74-35q10.5 0 19.75 4t16 11T313 275.5t4 20.5q0 14.5-7.5 26.75T290 341.5L278.5 376 256 346q-17.5-4-28.5-17.75t-11-32.25q0-11 4-20.5t10.75-16.5T247 248t19.5-4zm12.5 74.5q6.5-3.5 10.25-9.5t3.75-14q0-11.5-7.75-19.25T266.5 268t-18.5 7.75-7.5 19.25q0 10 6 17.5t15.5 9l10 17z"/></svg>