<svg xmlns="http://www.w3.org/2000/svg" viewBox="0 0 425 512"><path d="M303.5 242.5H283q2.5 9 2.5 18 0 15-5.75 28.5T264 312.5t-23.5 15.75T212 334t-28.25-5.75-23.25-15.75-15.75-23.5-5.75-28.5q0-9 2.5-18h-21V343q0 4 2.75 6.5T130 352h164.5q4 0 6.5-2.5t2.5-6.5V242.5zm0-64q0-4-2.5-6.75t-6.5-2.75H267q-4 0-6.5 2.75t-2.5 6.75v27q0 4 2.5 6.75T267 215h27.5q4 0 6.5-2.75t2.5-6.75v-27zM212 215q-19 0-32.25 13.25T166.5 260.5q0 9.5 3.5 18t9.75 14.75 14.5 9.75 17.75 3.5 18-3.5 14.75-9.75 9.75-14.75 3.5-18-3.5-17.75-9.75-14.5T230 218.5t-18-3.5zm-91.5 164.5q-11.5 0-19.25-8T93.5 352V169q0-11.5 7.75-19.5t19.25-8h183q11.5 0 19.5 8t8 19.5v183q0 11.5-8 19.5t-19.5 8h-183z"/></svg>