<svg xmlns="http://www.w3.org/2000/svg" viewBox="0 0 425 512"><path d="M212.5 129.5q27 0 50.75 10.25t41.5 28 28 41.5T343 260t-10.25 51-28 41.75-41.5 28T212.5 391t-51-10.25-41.75-28-28-41.75-10.25-51 10.25-50.75 28-41.5 41.75-28 51-10.25zm0 248.5q24.5 0 45.75-9.25t37.25-25.25 25.25-37.5 9.25-46-9.25-45.75T295.5 177t-37.25-25.25-45.75-9.25-45.75 9.25T129.5 177t-25.25 37.25T95 260t9.25 46 25.25 37.5 37.25 25.25T212.5 378zm52-80q1 10-5.25 17t-15.75 8-16.5-5-8-15.5q-.5-9.5 5.75-17.25t15.75-8.75q3-.5 7-.25t4 1.25V215L186 230v82.5-1.5q1 10-5.25 17T165 336t-16.5-5-8-16q-1-9.5 5.25-17.25T161.5 289q3-.5 7.25-.25T173 290v-90l91.5-18.5v118-1.5z"/></svg>