<svg xmlns="http://www.w3.org/2000/svg" viewBox="0 0 425 512"><path d="M236.5 295.5L234 290l-22.5-51q-5.5-13.5-18.25-22T165 208.5q-10.5 0-20 4t-16.25 11T118 239.75t-4 19.75q0 21.5 14.75 36.25T165 310.5q14.5 0 26.5-7.5t18.5-20l9 21q-10 12-24 19t-30 7q-14.5 0-27.25-5.5t-22.25-15-15-22.5-5.5-27.5 5.5-27.25 15-22.25 22.25-15 27.25-5.5q22 0 38.75 11.25T229.5 233q.5 1 2.75 6t5.5 12.5 7 16.5 7.75 18q5 11 10.75 17.5t18.75 7 21-6.25 8-16.75-6.25-13.75T287 266q-21-7-31.5-15.25T245 226.5t10.25-25.75T283 191q23 0 34 20.5l-15 7.5q-7.5-11-20-11-8.5 0-13.5 5t-5 13q0 10.5 8.75 14.25t22.25 8.25q18.5 6 27 14.25T330 288q0 17.5-13.5 29.25T283 329q-18.5 0-29-8.75t-17.5-24.75z"/></svg>