<svg xmlns="http://www.w3.org/2000/svg" viewBox="0 0 425 512"><path d="M123 293q-4.5-12.5-8-24.5t-6-24q-2.5 4-3 9.25t-.5 10.75q-.5 6-.75 12t-2.25 10l-1-.5q-2 0-3.25.25t-2.75.25q-2 .5-6 .5H87q-1-2-2.25-4t-2.25-4q-2.5-3.5-4.5-6.75t-4.5-6.75q-1 2.5 0 6.5.5 3 .75 5.75T74 284.5q-1.5 1-4.75 2.25T62 288h-2.5q-3.5-11.5-3.75-23.25T56 239v-10.5q3-1 6-1.5t6.5-.5q2 0 3 .5 3 4 5.5 9t5 10.5l3 6 3 5.5q3-11.5 5.75-24t9.25-21q0 .5 1 .5h.5q3.5 0 5 .5 1 0 2.25.25t2.75.25h2q4 8.5 6.25 19.5t4.75 22.5q2 8.5 3.75 17.25T136 290.5q-.5-.5-1.5-.5-1.5 0-4.5 1-1.5.5-3.25 1t-3.75 1zm79 3q-7.5 0-15-4t-9-11q-.5-31.5 18-46.5 8.5 1 14 5.5 0 4.5-.5 8.25t-1 7.75q-1 4-1.5 8.5t0 10.5q-1.5 0-3 .25t-3.5.25q-2.5 0-5-.25t-5-.75q-2 3.5-1.5 6.5t2 5.5q5 6 11 6t10-5.5q4 1.5 4.5 4-5 5-14.5 5zm-5.5-45.5q-.5 1-1 2.5t-1 2.5q-1 2.5-2.25 5.5t-1.25 7q1 1.5 3.5 1.5h2q1.5-4 1.75-9.5t-.75-9.5l-.5-2zm-37 47.5q-5 0-8.5-1.5-8.5-3.5-10.75-12.5T139 266q1-10 5.75-18.5t11.75-9.5h1.5q2.5 0 4.25.5t3.25 1l4.5 1.5q1.5 6 2 15.5t-1.5 17q-.5-.5-3-.5h-1q-7.5 0-13.5-1.5-3 11.5 1 17.5 2.5 3 5.5 4h1.5q2.5 0 6.5-1t6-1q3 0 5.5 3-4 1.5-9.25 2.75T159.5 298zm-5.5-33q.5 0 .75.25t.75.25.75.25 1.25.25h.5l1-.5q1-3.5.75-7.25t-1.25-7.75q-5.5 6-6 14v.5h1.5zm182 70.5q-3-1-5.5-1H322q-1.5-4-2.25-9.75t-1.25-11.25q-1-7.5-2.25-14.5T311 287q1-.5 4-1.5.5-.5 2-.5l1.25-11.25 2.25-13.5 3.75-13L330 236.5q7.5-9.5 17.5-9.5 7.5 0 17.5 6 5.5 11 4.25 20.25t-3.75 15.25q-5 10-13.75 17.25T332 295.5q-1.5 27 4 40zm13.5-97.5q-8 8-11.5 20t-5.5 23.5q6.5-2 11.75-7.75T352 261q1.5-4 2-10t-3.5-13l-.5-.5zM281 295.5q-6 0-9.5-4.5-9.5-10.5-6.5-43.5 3.5.5 5.75 1.75t4.75 2.25q1 1 3 2v4.75l.5 5.75q0 12 1.5 24 9-3.5 10.75-14.25T293.5 253v-4q0 .5 1 .5h1q3.5 0 6.25 1.75T307 255q1 8.5-1.25 13.75T300.5 279q-1 1-1.25 2.25T298 283.5q-2.5 2-3.75 4T291 292l-1 1.5q-4 2-9 2zm-49 4q.5-5.5.25-10.25t-.75-9.75q-.5-3-.75-6.25t-.25-6.75l-3-.5q-4-.5-7.5-.75t-6-1.75q0-3.5 1.5-5 .5-1.5 4-1.5 1 0 2 .25t2 .25h4.5q1-5.5.5-11.5t-1.5-12.5q-1.5-11-2.25-21.75T227 191.5q.5.5 1.5.5h.5q5.5 0 8.75 2t5.25 4.5q-1.5 8-1.5 16.75T242 233q1 6.5 1 12.25t-.5 10.75v1h1.5q2 0 2.25-1.5t.25-2.5q0-2 1-2 3 1 5 2.5t4 4q1 1 2 2.25t2 2.25q-1.5 1-4.5 1.5t-6 .5q-3.5 0-7.5 1-.5 9.5 0 19v14.5q-1.5.5-3.25.5H236q-1 0-2 .25t-2 .25z"/></svg>