<svg xmlns="http://www.w3.org/2000/svg" viewBox="0 0 425 512"><path d="M282.5 277.5q0 1.5.25 3t.25 3q0 16-6 29.75t-16 24-23.75 16.25-29.25 6q-22.5 0-40.5-12.25t-27-31.75q7 23.5 26.25 38.5T211 369q15 0 28.5-5.75t23.5-16 15.75-23.75 5.75-29q0-9.5-2-17zM214 340q-15.5 2.5-29.5-1.5t-24-12.5q8.5 10 20.5 15.5t26.5 5.5q21 0 36.75-11.75T265.5 306q-7 13-20.5 22.25T214 340zm-1.5-21.5q-8.5 3.5-17.25 4T179.5 321q4.5 2.5 10.25 4.25T202 327q16 0 27.25-9.75T241 293.5q-4 8-11.25 14.5t-17.25 10.5zm-9-19.5q-1 0-3-2.75t-4-8.25L147 149.5q-1.5-4.5 1-9.5 2-4.5 7-6 1.5-.5 4-.5 9 0 11.5 9.5L204 285.5q1.5 5.5 1.25 9.25T204 299h-.5z"/></svg>