<svg xmlns="http://www.w3.org/2000/svg" viewBox="0 0 425 512"><path d="M263 307q4 2.5 8 5.25t7 8.25 4.5 14.75.5 24.25q-.5 9-3 14t-5 5.25-4.75-4.25-2.25-14q-.5-21.5-4.75-30.5T250 320.5q-3.5 0-9.5-.25T227 320v25.75l-.5 17.25q0 6-2.5 9.25t-5.25 3.75-5-1.5-2.25-6.5v-48.5H195l-10 .5q-6 1-12.75 11.5t-5.25 32q.5 8-1.75 11.75T160 379t-5.25-4-2.25-12q-.5-7.5 0-14.5.5-6 1.25-12.25T156 326q3-8 13-15.75t25.5-8.25h17v-32q-10-1-19.25-5.75T180.5 248.5q-1-6-1.75-14T177 217q-7.5 0-15.25.5T147 218h-12.25l-7.25-.5q-2.5-.5-3-3.25t.25-5.75 2.75-5.5 5-2.5q7-1 19.5-.75t24 .25q-1-15-.75-27.5t.75-15q1-5.5 3-10t6-3.5 7.25 5.5T194 167q-.5 5.5-1 14.5t-1 19h48V157q0-5 4.5-8.5t8 3.5q1 2 1.75 7t1.25 11.75.75 14.5.25 15.25q11.5 0 20 .25t11 .75q7 .5 11.75 1.75T304 209q0 2.5-2.25 3.75t-6 2-8 1-7.25.25h-8.75l-14.75.5q0 7-.25 12.25t-.25 7.75q-1 10-5.75 19.25T235.5 268q-3.5 1-9.5 2 0 5 .25 13.5t.25 18.5q12 .5 22.25 1.5T263 307zm-71-90q.5 11.5 2.5 20.5t6 11.5q5 3 11.75 3.5t12.75-.75 10.5-4.5T240 239v-22.5q-13.5 0-26.5.25T192 217zm-86 92q-8.5 2-10.25-.25T95 303q1.5-4 6-9.5 12-5 22.5-9.5 9-4 17.25-7.5t12.25-5q3.5-1.5 8.75-3t9-2 5 1.5-3.25 7q-4 5.5-11.75 10.75t-17.25 9.75-19.25 8T106 309zm224-13q.5 3.5-1.25 4.5t-4.5.75-6.25-1-6.5-1.25-8.5-2.75-11.5-5-11.25-5-7.25-2.75l-5-1.25-5.75-2.25-4-3.75-.25-5.75q2-5.5 8.25-5.25T286.5 271q7 3 14.5 6.25t13.75 6.25 10.5 6T330 296z"/></svg>