<svg xmlns="http://www.w3.org/2000/svg" viewBox="0 0 425 512"><path d="M261 344.5q-8.5-6-16-17.5-.5-5.5-1.25-12.5T240.5 299q5.5 3 15.25 6t24.25 3q4 0 7.75-.25t7.75-.75q13-2 22.75-10.25T335 276q1.5 10.5 0 21.5t-5 21.25-8.75 18.75T311 352q-6 7-10 8.75t-6.5 1.75q-5.5 0-13.5-4.75t-20-13.25zm-50-64q-6.5-14.5-9.5-26.5t-4-20.5q-1-3.5-1-6.25V222q0-1 .25-1.5t.25-1.5q.5-1.5 1-1.5 1 0 3 2.25t6 8.25 9.25 16.5T228.5 271q7.5 18.5 10 33.75t3 23.25v4q-4-2.5-12.25-15T211 280.5zm83.5 20q-4 .5-7.25.75t-7.25.25q-19 0-29.25-5T238.5 290q-1.5-5-3.25-9.75T231.5 270q-4-10-8-18l-7.5-15q17.5-10 41-10 12 0 23.75 2.75T302.5 237t17.5 10.5 10.5 13q1 1 1.25 2.5t1.25 3q-7 14-16.25 23.25T294.5 300.5zm-99 17q-6 0-13.75-2.5t-17.25-9q-2.5-11-1.5-22.5t8-22q7-10 13.25-13.75T195.5 243q2 8.5 5 18.5T208 282q2 5.5 4 10t4.5 9q-2.5 5-6.25 9.5t-8.75 6q-2 1-6 1zm-1-81q-6 1-13.5 5.5t-15.5 16q-6.5 10-8.25 21t-.25 21.5q-14.5-11-31.5-32.5-20.5-27.5-30.75-45t-14.5-28-4-14.75T77 175q.5-1.5 5-1.5 6 0 14.75 2.75t18.75 7 20 9.75 19 11q10.5 7 20.75 14T194 235q0 1 .5 1.5zm154-40q-1 15.5-3.75 31.25t-8.25 29.75q-4-8-11.75-14.75T306.25 231t-23.5-7.75T257 220.5q-24.5 0-44.5 10.5-1-2-2-3 4.5-15.5 16-31.75T252 166.5t28.75-23.25T307 131q2.5-.5 4.25-.75T315 130q10.5 0 18.5 8 8 8.5 12 24.25t3 34.25zM237 335.5q.5 5.5-.25 12.5T235 361.5t-2.5 11-3 5.5q-.5.5-2 .5-6.5 0-13.75-5t-14-11.75-12.5-13.75-8.75-11.5q-6.5-8-11-21 15.5 9 28 9 4.5 0 8.5-1.5 5.5-2.5 9.25-6.5t6.75-9q4.5 8.5 8.75 14.5t7.75 9.5q0 1 .25 2t.25 2z"/></svg>