<svg xmlns="http://www.w3.org/2000/svg" viewBox="0 0 425 512"><path d="M139.5 194q-8.5 0-14.5-6t-6-14.5 6-14.5 14.5-6 14.5 6 6 14.5-6 14.5-14.5 6zm52 6.5q-11.5 0-19.25-7.75t-7.75-19.25 7.75-19.25 19.25-7.75 19.25 7.75 7.75 19.25-7.75 19.25-19.25 7.75zM260 209q-14.5 0-25-10.5t-10.5-25 10.5-24.75 25-10.25 24.75 10.25T295 173.5t-10.25 25T260 209zm1 13.5q10 0 19 3.75t15.75 10.25 10.75 15.25 4 18.75v90H206V308h-52v-39h-39.5v-40.5q0-10 7.5-17.5t18-7.5q8.5 0 15.25 5.25T164 222.5q10.5-13 28-13 12.5 0 22 7.75t13 19.25q6.5-6.5 15.25-10.25T261 222.5z"/></svg>