<svg xmlns="http://www.w3.org/2000/svg" viewBox="0 0 425 512"><path d="M225.5 391h-26v-55L168 312.5q-4 2.5-8.5 2.5-8 0-13.25-5.25T141 296.5q0-7.5 5.25-13t13.25-5.5q7.5 0 12.75 5.5t5.25 13q0 1-.25 1.5t-.25 1.5l22.5 17v-55L168 238q-4 2.5-8.5 2.5-8 0-13.25-5.25T141 222q0-7.5 5.25-13t13.25-5.5q7.5 0 12.75 5.5t5.25 13q0 1-.25 1.5T177 225l22.5 17v-52l-32-23q-3.5 2-8 2-8 0-13.25-5.25T141 150.5q0-7.5 5.25-13t13.25-5.5q7.5 0 12.75 5.5t5.25 13q0 1-.25 1.75T177 154l22.5 16.5v-41h26v78l22-16.5q0-1-.25-1.25t-.25-1.25q0-7.5 5.25-13t13.25-5.5q7.5 0 13 5.5t5.5 13-5.25 13-13.25 5.5q-5 0-9-2.5l-31 22.5v51.5l22-16.5q0-.5-.25-1t-.25-1q0-8 5.25-13.25t13.25-5.25q7.5 0 13 5.25T284 260q0 7.5-5.25 13t-13.25 5.5q-5 0-9.5-3l-30.5 23V353l22-16.5q0-.5-.25-1t-.25-1q0-7.5 5.25-13t13.25-5.5q7.5 0 13 5.5t5.5 13-5.25 13-13.25 5.5q-5 0-9.5-3l-30.5 22.5V391z"/></svg>