<svg xmlns="http://www.w3.org/2000/svg" viewBox="0 0 425 512"><path d="M240 210h-31l-13.5 61.5h10l11-49.5h31q8 0 14 4.5-2-7-7.5-11.75T240 210zm77.5-10q7.5 9 11 21.75T328 252q-3.5 16.5-11.75 30.75T296 307.25t-26.5 16.25-31 6h-45l-15 66H115l2.5-12.5H171l15-66h45.5q16 0 30.75-5.75t26.5-16.25 20-24.5T320.5 240q2.5-13 1.75-22.25T317.5 200zM250 148q12 0 24 4.75t20.75 14 12.75 23.5 0 33.25q-3.5 16.5-11.75 30t-20 23-26.5 14.75-30.75 5.25h-45l-15.5 62H94.5l48-210.5H250zm-2 68q3.5-12.5-3-21.75T227 185h-31l-13.5 62H212q12 0 22.75-9.25T248 216z"/></svg>