<svg xmlns="http://www.w3.org/2000/svg" viewBox="0 0 425 512"><path d="M265.5 141.5V229q0-1-7-8t-17.75-16.75-23.5-21-23.75-21-18.5-16.5-8.5-7.25Q189 130 212 130q14 0 28.75 3t24.75 8.5zm-118 231V260Q133 273.5 121 284q-10 9-18.5 17t-9 8.5q8 19.5 21.25 35.75t32.75 27.25zM82 261q0 8.5 1.25 17T87 295q1-.5 9.75-8.5t21.5-19.75 27.25-25 27-24.75 21.25-19.25 9.25-8.25q-1-.5-8.5-7.5T178 166.75t-16.5-15-8-7.25q-33 17-52.25 48T82 261zm78.5 52v67.5q20 9 40.5 11h24q34-3.5 62.25-21.5t43.25-57h-170zm118-164v151h58q3.5-10 4.75-20t1.25-21q0-34.5-17.25-63.25T278.5 149z"/></svg>