<svg xmlns="http://www.w3.org/2000/svg" viewBox="0 0 425 512"><path d="M203.5 330q-2-1.5-3.5-4.75t-4-1.25q-4.5 18-10.5 37.5t-14.5 34h-16v-.5q-1.5-7.5-.75-19.5t1.75-19q1.5-9 4.5-19.25t6.5-20.75 5.75-21T175 276q0-8-2.5-16.25t-1-16.75q1-8 6.75-15t13-10.5 14.25-1.75 11 10.75q4.5 10.5 1.25 22T210.5 271t-5.5 20.5 6.5 17q3.5 3 10.5 4.75t14 .25q11-2 19-10.5t12.75-20 6-25.25-.75-26.5-7.75-23-14.75-15.75q-20-11.5-40-9.5t-35.75 12.5T150 222.75 143 258q.5 7 4 12.75t5.75 11 2 10.5T148 303.5q-18.5-7-26.25-20t-7.25-34q0-22 9.75-39.5t26-29.25 37.5-17T232 161q15 1.5 28.5 7.75t24 15.75 17.25 21.75T310 231.5q1.5 12 0 24.75t-5.5 25.25-10.5 23-15.5 18q-6 5-15.5 9t-20 5.5-21 .25-18.5-7.25z"/></svg>