<svg xmlns="http://www.w3.org/2000/svg" viewBox="0 0 425 512"><path d="M212.5 181.5q-24 0-45 7.5t-36.75 20.75-25.25 31.75T95 282v-4.5q0-22.5 9.25-42.25t25.25-34.75 37.25-23.5 45.75-8.5 45.75 8.5 37.25 23.5 25.25 34.75T330 277.5v4.5q-1-22-10.5-40.5t-25.25-31.75T257.5 189t-45-7.5zm0 39.5q-15 0-28.25 4.5T161 237.75t-16 19-7 24.75v-4q0-14 5.75-26.75t16-22.25 23.75-15 29-5.5 29 5.5 23.5 15 16 22.25 6 26.75q0 2.5-.5 4-1-13.5-7-24.75t-16-19-23-12.25-28-4.5zm0 60q-10 0-16.75-6.25T189 259.5t6.75-15.25T212.5 238q9.5 0 16.25 6.25t6.75 15.25-6.75 15.25T212.5 281zm0 96.5q-14.5 0-24.5-17.25t-10-41.75q0-12.5 2.75-19.25t7.5-10 11-3.75 13.25-.5 13.25.5 11 3.75 7.5 10T247 318.5q0 24.5-10 41.75t-24.5 17.25z"/></svg>