<svg xmlns="http://www.w3.org/2000/svg" viewBox="0 0 425 512"><path d="M293.5 260.5q2.5 4 4.75 8.5t5.25 8.75 6.75 7.25 9.75 4.5q-.5 4.5-4.25 7.5t-8.5 4.5-10 1T288 299q-3.5-2-6.25-7t-5.25-9q-3-4.5-5.5-8.75t-5-8.25q-1.5 8.5-2.75 17.75T260 302q-5.5 0-10.5-.25t-8.75-1.75-5.75-4.5-1.5-8.5q0-2.5 1.75-13.75t4-25 4.5-27.25 3.25-21q0-1 .5-1 12-1 19.75 1.25T274 214q-1 10-3.25 22t-3.25 21q4.5-3.5 8-8 3.5-4 7-7.75t7.5-7.75q2-2 4.25-4t4.75-3q6-2.5 14.25-1.5t16.75.5q-2 2.5-7.25 7.25t-11 10-11 10.25-7.25 7.5zM223 195q8 1.5 9.5 7.5 2.5 6.5-1 10.75t-8 6.25q-6 2.5-12.5.75t-7.5-7.75q-2.5-8 2.25-11.75T217.5 195h5.5zm-21.5 32.5q8.5 0 15.75.5t9.75 5.5q1.5 3.5 1 8.25t-1 8.75q-2 13-4 26.25t-4 24.75q-7.5.5-14.75 0T194 297q-2-3-1.75-8t1.25-9.5q2-13 4-26.25t4-24.75v-1zm-47-4.5q15 1 23.5 10t7.5 26q-1 8.5-2.5 16.5t-2.5 16.5q-1.5 8.5-2.75 16.5t-2.25 17H162q-6 0-8.75-3.25T150 314.5t.25-10 1.75-10q-2.5 1.5-4.5 3.75t-5 3.25q-2.5 1-4.5 1.5l-4 1q-19 2-29.5-8.25T95 270q.5-10 4-17.25t9-13.25q7-8 18.5-12.75t28-3.75zm-6 57q3-2.5 5.5-7.25t3.25-10-.25-10-4.5-7.25q-2-1-5.25-1.75t-5.75-.25q-4.5.5-8.5 3-3 2.5-5.25 7t-3.25 9.75 0 10.25 5 7.5q4.5 2.5 10.25 2t8.75-3z"/></svg>