<svg xmlns="http://www.w3.org/2000/svg" viewBox="0 0 425 512"><path d="M317 254q-1 28-14.5 51T267 342.5q5.5 7.5 10.5 11.25t9 5.25q4.5 2 8 1v18.5Q287 382 279 383q-7 1-14.75-1.25T249.5 371q-6.5-8-11-15.5-14.5 4.5-30 4.5-21.5 0-40.25-8.25T136 329t-21.25-33.75T108 254q.5-22 9.5-41.25T141.25 179t34-22.75T216 148t40.5 8.25T289 179t21 33.75 7 41.25zm-48.5-2q.5-16-3.25-30.25T254.5 197t-16.75-16.75T217 174q-11.5 0-21.5 6.25T177.75 197t-12.5 24.75T160 252t3.25 30.25T174 307t16.5 16.75 21 6.25q8 0 13-2.5-1-2.5-2.25-4.5t-2.25-4q-3-4-6.25-5.75T207.5 311q-3.5-.5-6.5.5V293q8-3 16.5-2.5 7 .5 15.5 4.5t15.5 15q8.5-11 13.75-25.75T268.5 252z"/></svg>