<svg xmlns="http://www.w3.org/2000/svg" viewBox="0 0 425 512"><path d="M262.5 157q0-6 2.5-11l-44.5-10.5q-3.5 0-4.5 1-2.5 1.5-2.5 4l-9 59q0 6 5 7h1q4.5 0 5.5-5l7.5-53zm24.5 32q-13 0-22-9.5t-9-22.5 9-22.5 22-9.5 21.75 9.5 8.75 22.5-8.75 22.5T287 189zm0-51q-7.5 0-12.75 5.5T269 157t5.25 13.5T287 176t12.75-5.5T305 157t-5.25-13.5T287 138zm22.5 66q-9 0-16.5 4.25t-12 11.25q2.5 1.5 5.25 3.25t5.25 3.75q2.5-4 7.25-6.75T309.5 217q8.5 0 14.75 5.75T330.5 237q0 7.5-4.75 13T314 257l2 6 1.5 6.5q11-2.5 18.25-11.5t7.25-21q0-14-9.75-23.5T309.5 204zM107 256q-5.5-2.5-9.25-7.5T94 237q0-8.5 6.25-14.25T115 217q10 0 16.5 8l10.5-7.5q-4.5-6-11.5-9.75T115 204q-14 0-23.75 9.5T81.5 237q0 11 6 19.25t16 12.25q1-7 3.5-12.5zm103.5 104.5q-23.5 0-44.25-6.5T130 336t-24.5-26.5-9-32.5q0-17 9-32.25t24.5-26.5 36.25-17.75 44.25-6.5 44.25 6.5 36 17.75 24.25 26.5 9 32.25q0 17.5-9 32.5T290.75 336t-36 18-44.25 6.5zm0-153.5q-21 0-39.5 5.5t-32.25 15T117 249.75 109 277t8 27.25 21.75 22.25 32.25 15 39.5 5.5 39.25-5.5 32-15 21.75-22.25 8-27.25-8-27.25-21.75-22.25-32-15-39.25-5.5zm39.5 93.5q-4.5 4.5-14 7.5-5.5 1.5-11.5 2.5t-13 1-12.75-1-11.25-2.5q-10.5-3.5-14-7.5-4.5-4.5-9 0-2 2-2 4.75t2 4.75q3.5 4 8.5 6.5t11 4.5 13 2.75 14.5.75q17 0 28-3.5 12.5-4 19.5-11 2-2 2-4.75t-2-4.75q-4.5-4.5-9 0zm-64.5-43q0 6.5-4.25 10.75T171 272.5t-10.5-4.25-4.5-10.75 4.5-10.75 10.5-4.25 10.25 4.25 4.25 10.75zm82 0q0 6.5-4.25 10.75T253 272.5t-10.5-4.25-4.5-10.75 4.5-10.75 10.5-4.25 10.25 4.25 4.25 10.75z"/></svg>