<svg xmlns="http://www.w3.org/2000/svg" viewBox="0 0 425 512"><path d="M317 51q21.5 0 40.5 8.25t33.25 22.5 22.5 33.25 8.25 40.5v209q0 21.5-8.25 40.75t-22.5 33.5-33.25 22.5-40.5 8.25H107.5q-21.5 0-40.5-8.25t-33.25-22.5-22.5-33.5T3 364.5v-209Q3 134 11.25 115t22.5-33.25T67 59.25 107.5 51H317zm13 208.5q0-7-3.5-10.5-3.5-4-10-4H315l-39 3.5q-8 1-9.5 5-.5 1-.25 2.5t2.75 3.5q7 7 13.5 9l3.5 1.5-2 3q-1.5 2-6.5 6.5l-31 26q-1 1-3 2.25t-4 1.25q-5.5 0-5.5-8.5V226l1.5-.5Q246 219 252.25 209t6.25-22q0-9-3.75-17.25t-10-14.25-14.5-9.5-17.75-3.5-18 3.5-14.75 9.5-10 14.25T166 187q0 12.5 6.75 23T191 226.5l1.5.5v75q0 8.5-5.5 8.5-4 0-7-3l-33-28q-5-4.5-6.5-6.5l-2-3 3.5-1.5q6.5-2 13.5-9 2.5-2 2.75-3.5t-.25-2.5q-1.5-4-9.5-5l-39-3.5H108q-6.5 0-10 4-4.5 4.5-3.5 10.5l4 37.5q1.5 9 6.5 9 1 0 2.25-.25t2.75-2.25q3.5-3 6-6.75t3.5-6.25l1-3.5 3.5 2q1.5 1 7 6.5l70 77q4.5 5.5 11.5 5.5 6.5 0 11-5.5l70-77q5.5-5.5 7-6.5l3.5-2 1 3.5q1 2.5 3.5 6.25t6 6.75q1.5 2 2.75 2.25t2.25.25q5 0 6.5-9zM212.5 160q11.5 0 19.5 8t8 19q0 11.5-8 19.25T212.5 214t-19.75-7.75T184.5 187q0-11 8.25-19t19.75-8z"/></svg>