<svg xmlns="http://www.w3.org/2000/svg" viewBox="0 0 425 512"><path d="M317 51q21.5 0 40.5 8.25t33.25 22.5 22.5 33.25 8.25 40.5v209q0 21.5-8.25 40.75t-22.5 33.5-33.25 22.5-40.5 8.25H107.5q-21.5 0-40.5-8.25t-33.25-22.5-22.5-33.5T3 364.5v-209Q3 134 11.25 115t22.5-33.25T67 59.25 107.5 51H317zM212.5 155.5q-31.5 0-58.25 12t-42.75 33l67 64L279 172q-14.5-8-31.75-12.25t-34.75-4.25zm-118 93q0 37 32.5 63.5l41.5-38.5-64.5-61q-9.5 17.5-9.5 36zm118 93q44.5 0 78.5-24l-74-70-82 76-.5 1q-3.5 7-8.25 14T115 350q3 .5 7 1t9.5.5q24 0 43-13l3-1.5 2.5.5q17 4 32.5 4zm89-32.5q28.5-26 28.5-60.5 0-20-10-38t-29-31l-63.5 59z"/></svg>