<svg xmlns="http://www.w3.org/2000/svg" viewBox="0 0 425 512"><path d="M317 51q21.5 0 40.5 8.25t33.25 22.5 22.5 33.25 8.25 40.5v209q0 21.5-8.25 40.75t-22.5 33.5-33.25 22.5-40.5 8.25H107.5q-21.5 0-40.5-8.25t-33.25-22.5-22.5-33.5T3 364.5v-209Q3 134 11.25 115t22.5-33.25T67 59.25 107.5 51H317zM196 199l81.5 66 16.5-20-81.5-66zm-29.5 55.5l94 46L272 277l-94-46zm-17 60.5l102 23.5 6-25.5-102-23.5zm-2.5 63h104.5v-26.5H147V378zm157-105h-26.5v118H121V273H94.5v144H304V273zm18.5-54.5l-64-82.5-20.5 16 64 82.5zm34-19l-44-95-23.5 11 44 95z"/></svg>