<svg xmlns="http://www.w3.org/2000/svg" viewBox="0 0 425 512"><path d="M147 321q5.5 0 9.25 3.25T160 332v11h-43.5v-11q0-4.5 3.75-7.75t9.25-3.25H147zm-39.5-103q9.5-8.5 18.75-13.75T140.5 199q4.5 0 13.75 5.25T173 218v42h-65.5v-42zm170 3h-39v-39.5h39V221zM317 51q21.5 0 40.5 8.25t33.25 22.5 22.5 33.25 8.25 40.5v209q0 21.5-8.25 40.75t-22.5 33.5-33.25 22.5-40.5 8.25H107.5q-21.5 0-40.5-8.25t-33.25-22.5-22.5-33.5T3 364.5v-209Q3 134 11.25 115t22.5-33.25T67 59.25 107.5 51H317zm26 159h-39v-54.5h-91.5V210H199v-1.5q-10.5-8.5-20.5-15.5-9-5.5-19.25-10.5t-18.75-5q-9 0-19.25 5T102 193q-10.5 7-20.5 15.5V286H134v13.5q-7 .5-14 3.25t-12.75 7-9.25 10T94.5 332v24.5q0 3.5 2.5 5.75t6.5 2.25H173q8.5 0 8.5-8V332q0-13-10.5-22.25t-24-10.25V286h54.5v78.5H317V286h26v-76zm-39 22h13v28h-26.5v78.5h-26v-39h-11v39h-28V260H199v-26h13.5v13H304v-15z"/></svg>