<svg xmlns="http://www.w3.org/2000/svg" viewBox="0 0 425 512"><path d="M317 51q21.5 0 40.5 8.25t33.25 22.5 22.5 33.25 8.25 40.5v209q0 21.5-8.25 40.75t-22.5 33.5-33.25 22.5-40.5 8.25H107.5q-21.5 0-40.5-8.25t-33.25-22.5-22.5-33.5T3 364.5v-209Q3 134 11.25 115t22.5-33.25T67 59.25 107.5 51H317zM136 293.5q-3-7.5-5-16.25t-3.5-17.75l-5-22-6.5-20h-1.5q-3.5 0-5-.5-1 0-2.5-.25t-2.5-.25H103q-6.5 8.5-9.5 20.75T88 261.5l-6-12q-2.5-5-5.25-10.25T71.5 230H68q-7.5 0-12 2l-.5 10.5q-.5 13.5 0 25.5t4 23q.5.5 2.5.5 4 0 7.25-1.5t4.75-2.5q.5-5.5-1-12 0-1.5-.25-3t.75-3.5q5 6.5 8.5 13 1.5 2.5 2.75 4.5t2.25 4h2.5q1.5 0 3-.25t3-.25q1.5-.5 6-.5l1 .5q2-4.5 2.25-10.25T105 268q.5-5.5.75-11t2.75-9.5q2.5 12.5 6.25 24.25T123 296q1.5 0 3.25-.5t3.75-1q3-1 4-1h2zm23.5 7.5q5 0 10.25-1.25T179 297q-2.5-3-5.5-3-2 0-6 1-4 1.5-6.5 1.5-1 0-1.5-.5-3 0-5.5-3.5-4-6.5-1-17.5 2.5.5 5.75 1t7.25.5h4.5q2-7.5 1.25-17T169.5 244q-1 0-4-1-4-1.5-7.5-1.5h-1.5q-7 1-11.75 9.5T139 269q-1 9 1.25 18.25T151 300q2 .5 4 .75t4.5.25zm42.5-1.5q9.5 0 14.5-5-1-3-5-4-3 5.5-9.5 5.5t-11-6q-4-5.5-1-12.5l5 1 5 .5q3 0 7-1-.5-5.5 0-10t1.5-9q.5-3.5 1-7.25t.5-8.25q-7-5.5-14-6-19 14.5-18 47 1 7 8.5 11t15.5 4zm47.5-32q3.5-.5 6.5-.75t4.5-1.75q-2.5-1.5-4-4l-4.25-4.25-4.75-2.75q-1 0-1 2.5 0 3.5-2.5 3.5h-1.5v-.5q.5-5 .25-10.75T242 236.5q-.5-9-.75-18t1.25-16.5q-2-2.5-5.25-4.75T228.5 195q-1.5 0-1.5-.5-3 9.5-2.25 20.5t2.25 22q1 6.5 1.25 12.5t-.75 11.5q-3 0-4.5-.5h-3.5q-3 0-4.5 1.5-1 2-1 4.5 2.5 1.5 6 2t7.5.5l3 .5q0 4 .25 7t.75 6.5q0 4.5.25 9.25t.25 10.25h4q2-.5 6.5-.5v-7.5l-.5-7q0-5-.25-9.5t.25-9.5q2.5-1 7.5-1zm51 15q3-5 5.25-10.25T307 258.5q-2.5-2-5.25-4t-6.25-2h-2l-.5 3.5q0 5-.25 10.5t-1.5 10.5-3.75 8.75-7 5.25q-1-5.5-1.25-11.75T278.5 267v-10q-1-.5-1.75-1t-1.75-1q-2.5-1.5-4.5-2.5T265 251q-3 33 6.5 43.5 3.5 4 9.5 4 4.5 0 9-1.5l1-2q1.5-2.5 3-4.25t4-3.75q.5-1.5 2.5-4.5zm64.5-11q3-6 4.25-15t-4.25-20q-10-6-17.5-6-10 0-17.5 9-4 4.5-6.25 11T320 263.75 318 277t-1 11q-1 .5-2 .5-3.5 1-4 2 4 4.5 5 11.75t2 14.25q1 6 1.5 11.5t2.5 9.5q1 .5 5 .5h3.5q3.5 0 5 .5-2.5-7-3.5-16.5t0-23q10.5-2.5 19.5-10t13.5-17.5zm-14.5-30q4 6.5 3.5 12.75t-2 10.25q-2.5 7-7.75 12.5T332 284.5q2.5-11.5 6-23.5t11.5-19.5l.5-1zm-195 27.5q-.5-.5-1.5-.5h-2l.5-1q.5-8 6-14 1 4 1.25 8t-.75 7l-1 .5h-2.5zm38.5 3.5q-2.5 0-3-1.5 0-4 1-6.75t2-5.75q1-2 2-5l1-2 .5 2q1 4 .75 9.5t-1.75 9.5H194z"/></svg>