<svg xmlns="http://www.w3.org/2000/svg" viewBox="0 0 425 512"><path d="M141.5 243.5q2.5-.5 5.75 0t5.25 2q3.5 2.5 4.5 7.25t.25 10-3.25 10-5.5 7.25-8.75 3-10.25-2.5q-4-2.5-5-7.25t0-10 3.25-9.75 5.25-7 8.5-3zM317 51q21.5 0 40.5 8.25t33.25 22.5 22.5 33.25 8.25 40.5v209q0 21.5-8.25 40.75t-22.5 33.5-33.25 22.5-40.5 8.25H107.5q-21.5 0-40.5-8.25t-33.25-22.5-22.5-33.5T3 364.5v-209Q3 134 11.25 115t22.5-33.25T67 59.25 107.5 51H317zM180 292q1.5-8.5 3-16.5t2.5-16.5q1-17-7.5-26t-23.5-10q-16.5-1-28 3.75T108 239.5q-5.5 6-9 13.25T94.5 270q-1 15.5 9.5 25.75t29.5 8.25q2.5-.5 4.5-1t4-1.5q3-1 5.25-3.25t4.75-3.75q-1 4.5-1.75 10t-.25 10 3.25 7.75 8.75 3.25h13q1.5-9 2.75-17.25T180 292zm46.5-41.5q1-4.5 1.5-9t-1.5-8q-2.5-5-9.5-5.5t-15.5-.5q-.5 0-.5 1-1.5 11.5-3.5 24.75t-4 26.25q-1 4.5-1.25 9.5t1.75 8q2.5 4 10 4.5t15 0q2-11.5 3.75-24.75t3.75-26.25zm-3.5-31q5-2 8.5-6.25t1-11.25q-1.5-5-9.5-7.5h-5.5q-7 2.5-11.75 6.25T203 212.5q1.5 6 8 7.75t12-.75zm70.5 41q2-2.5 7.25-7.5t11-10.25 11-10.25T330 225q-8.5 1-17 0t-14 1.5q-2.5 1-4.75 3T290 233q-4 4-7.5 8t-7.5 8q-2 2.5-3.75 4.25L267.5 257q1-9 3.25-21t3.25-22q.5-11-7-13.25T247.5 199q-.5 0-.5 1-1 7.5-3.25 21t-4.5 27.25-4 25T233.5 287q-.5 5.5 1.5 8.5t5.75 4.5 8.75 1.75 10.5.25q2-9 3-18.25t3-17.75q2.5 3.5 5 8l5 9q2.5 4 5.5 8.75t6 7.25q4 3 9.25 3.5t10.25-1 8.5-4.5 4.5-7.5q-6-1.5-10-4.5t-6.75-7.25-5-8.75-4.75-8.5z"/></svg>