<svg xmlns="http://www.w3.org/2000/svg" viewBox="0 0 425 512"><path d="M165.5 281l-4 1q-7 3-13 3-16.5 0-28-12.5t-11.5-30 11.5-29.75 28-12.25q8 0 15.25 3.25t12.5 9 8.5 13.5T188 242.5q0 8-3 15.5l-1 3 27.5 41.5 103-112V235l-103 94.5zM317 51q21.5 0 40.5 8.25t33.25 22.5 22.5 33.25 8.25 40.5v209q0 21.5-8.25 40.75t-22.5 33.5-33.25 22.5-40.5 8.25H107.5q-21.5 0-40.5-8.25t-33.25-22.5-22.5-33.5T3 364.5v-209Q3 134 11.25 115t22.5-33.25T67 59.25 107.5 51H317zm13 101.5l-8.5 9.5-76.5 82-32.5-33.5-13.5 14q-5.5-17-19.25-27.75T148.5 186q-11.5 0-21.25 4.5t-17 12.25-11.5 18-4.25 21.75 4.25 21.75 11.5 18 16.75 12.5 20.5 4.75l65 68.5 75-79-7.5-8 50-40v-88.5z"/></svg>