<svg xmlns="http://www.w3.org/2000/svg" viewBox="0 0 425 512"><path d="M317 51q21.5 0 40.5 8.25t33.25 22.5 22.5 33.25 8.25 40.5v209q0 21.5-8.25 40.75t-22.5 33.5-33.25 22.5-40.5 8.25H107.5q-21.5 0-40.5-8.25t-33.25-22.5-22.5-33.5T3 364.5v-209Q3 134 11.25 115t22.5-33.25T67 59.25 107.5 51H317zm-75.5 91.5q-13 0-22.5 9.25T209.5 174t9.5 22 22.5 9q13.5 0 22.75-9t9.25-22-9.25-22.25-22.75-9.25zm69 212l-2.5-4q-25-50-72.5-73.5-.5 0-1-.5h-.5l-.5-.5-.5-.5q-1.5-.5-1.5-1.5 1-3 1.75-3.5t1.75-.5h4q4.5 1 9 1.5t9 .5q10 0 21.25-3.25t25.25-10.25l4-2.5-13.5-30-4.5 2q-5.5 2.5-13.25 4.5t-16.75 2q-10 0-19-3l-2-1-.5-1.5q-.5-.5-.5-1.5t-.5-2v-8l-4-.5q-7-1.5-15.5-6l-2.5-1.5-2.5 1q-16.5 9.5-24.75 25.25T177 278.5q-1 7-1.5 9.75t-1 3.75q-5.5 11-12.5 18.75t-14.75 13-15 8.25-12.75 4.5L114 338l15 40 4.5-1.5q16.5-4 28.25-10T182 353.75 196.5 340t11.5-14l3.5-5q1-1 2-1l2 1q13.5 6 23.5 12.5t17.25 13 11.5 12.5 6.75 10l2.5 4.5z"/></svg>