<svg xmlns="http://www.w3.org/2000/svg" viewBox="0 0 425 512"><path d="M317 51q21.5 0 40.5 8.25t33.25 22.5 22.5 33.25 8.25 40.5v209q0 21.5-8.25 40.75t-22.5 33.5-33.25 22.5-40.5 8.25H107.5q-21.5 0-40.5-8.25t-33.25-22.5-22.5-33.5T3 364.5v-209Q3 134 11.25 115t22.5-33.25T67 59.25 107.5 51H317zm-165.5 98q-6 4.5-8 7.5t-1.75 5.25 1.75 4 3 3.75L191 242q2.5 4 6.75 6.75t7.75 2.25q3-1 5.25-4.75T213 237l-.5-84.5q0-11-15-14-4-.5-9.75-.25t-12.25 1.5-13 3.5-11 5.75zm-30 151q1 5.5 5.75 8.75t9.25 1.25l45-15.5q5-2 8.5-6t4-8q1-4-2.25-8t-7.75-6L136.5 248q-4.5-2-9.25 1.75t-5.75 10.75q-.5 9.5-.5 17.5 0 7-.25 13.25t.75 8.75zm93.5 18q.5-5-2-8.75t-6-4.25q-3.5 0-8 2.25t-7.5 6.25L160 351q-3.5 4-2.25 10.75t6.25 8.75l33 11q4.5 2 10.75-1.75t6.25-9.25zm86.5 9q2-6.5-.75-11.5t-7.25-6L254 298q-5-1-9.5-1t-6.5 1.5-1.75 5.75T239 313l25 45q1 2.5 3.75 3.25t5.75.75 5.75-1.25 4.25-3.75q4.5-6.5 8-12l6-10 4-8zm-5-64q6-1 6.75-7t-.25-10q-1-2-3.25-6t-5.25-8.25-6.5-8-6-6.25q-5-4-10-4t-8.5 4l-25.5 30q-3 4-4 9t1.5 9q2.5 3.5 7.25 5.25t9.75.75z"/></svg>