<svg xmlns="http://www.w3.org/2000/svg" viewBox="0 0 425 512"><path d="M185 229q-6 0-10.25-4.25T170.5 215q0-6 4.25-10t10.25-4h41q6 0 10.25 4t4.25 10q0 5.5-4.25 9.75T226 229h-41zM317 51q21.5 0 40.5 8.25t33.25 22.5 22.5 33.25 8.25 40.5v209q0 21.5-8.25 40.75t-22.5 33.5-33.25 22.5-40.5 8.25H107.5q-21.5 0-40.5-8.25t-33.25-22.5-22.5-33.5T3 364.5v-209Q3 134 11.25 115t22.5-33.25T67 59.25 107.5 51H317zm27.5 190l-.5-3.5-2-4-3.5-2.5q-1.5-1.5-6-1.5t-9.5-.25-9.75-.75-6.75-2.5q-3.5-3-4.25-8t-1.75-12-1.75-11-1.5-6.5-1.75-4-2-4q-4-8-10.75-15.25T268 152.75t-16.5-8.5T236 140h-52q-15.5 0-29 6t-23.75 16T115 185.5t-6 29V301q0 15.5 6 29t16.25 23.75 23.75 16 29 5.75h85.5q15.5 0 29-5.75t23.5-16T338 330t6-29zM269 286q5.5 0 9.75 4t4.25 10q0 5.5-4.25 9.75T269 314h-84q-6 0-10.25-4.25T170.5 300q0-6 4.25-10t10.25-4h84z"/></svg>