<svg xmlns="http://www.w3.org/2000/svg" viewBox="0 0 425 512"><path d="M317 55.5q21.5 0 40.5 8.25t33.25 22.5 22.5 33.25 8.25 40.5v209q0 21.5-8.25 40.75t-22.5 33.5-33.25 22.5T317 474H107.5Q86 474 67 465.75t-33.25-22.5-22.5-33.5T3 369V160q0-21.5 8.25-40.5t22.5-33.25T67 63.75t40.5-8.25H317zM224 373q22.5-19.5 22.5-45 0-16.5-7.5-27t-16.25-18.25-16.25-14T199 255q0-8.5 7.5-15.25T222 224.5q5-5.5 8.75-14.5t3.75-21q0-7-1.75-13.5T228 162q-6-12.5-17.5-19.5H232l21.5-13H184q-7 0-14.5 1t-15 2.5q-22 4.5-37 22.5-15 17.5-15 39.5 0 24 16.5 39 17 15.5 40.5 15.5h5.25l6.25-.5q-.5 1-1.25 3.25t-1.25 3.25q-1 4-1 7 0 11.5 10 23.5-23 .5-48.5 8-13 4-23 11.5T91 323q-6 11.5-6 21 0 14 7 23.5t18 15.25 23.5 8.25 24 2.5q42 0 66.5-20.5zm125-202.5h-40.5v-41H288v41h-40.5v20H288V231h20.5v-40.5H349v-20zM203.5 205q0 16-6.75 25.5T174.5 240q-10.5 0-18.75-6.25T142 218t-8.5-20.25-3-19.75q0-16 8-26 8-11 23-11 10.5 0 18.75 6.5T193.5 164q10 21 10 41zm14 119q2 3 3 5.5t1.75 5.5.75 6.5q0 10.5-4.5 17.75t-11.75 11.5-16 6.25-17.75 2q-10 0-20.25-2.25t-19.25-7.25-14.75-13.5-5.75-19.5q0-14.5 9-23.25t22-12.75q17-5 34-5 6 0 8 .5l4.5 3q4.5 3 5.5 4l4.5 3.5q3.5 2.5 5.5 4l4 4q3 2.5 4.25 4.5t3.25 5z"/></svg>