<svg xmlns="http://www.w3.org/2000/svg" viewBox="0 0 425 512"><path d="M317 51q21.5 0 40.5 8.25t33.25 22.5 22.5 33.25 8.25 40.5v209q0 21.5-8.25 40.75t-22.5 33.5-33.25 22.5-40.5 8.25H107.5q-21.5 0-40.5-8.25t-33.25-22.5-22.5-33.5T3 364.5v-209Q3 134 11.25 115t22.5-33.25T67 59.25 107.5 51H317zM212 378q16 0 27.25-14t11.25-42q0-14-3.25-21.5t-8.5-11-12.25-4-14.5-.5-14.5.5-12.25 4-8.5 11-3.25 21.5q0 28 11.25 42T212 378zm-26-122q0 10 7.5 17.25t18.5 7.25 18.5-7.25T238 256t-7.5-17-18.5-7-18.5 7-7.5 17zm108.5 13.5q0-1 .25-2.25T295 265q0-16-6.5-31t-17.75-26.75-26.25-18.75-32-7q-17.5 0-32.5 7t-26.5 18.75-18 26.75-6.5 31q0 1 .25 2.25t.25 2.25q1-15 7.75-26.5t18-19.25 26-11.75 31.25-4 31 4 25.5 11.75T286.75 243t7.75 26.5zm48-4.5q0-25.5-10.25-47.75t-28-38.75-41.5-26.25T212 142.5t-50.75 9.75-41.5 26.25-28 38.75T81.5 265v5q1-24.5 11.5-43.5t28.25-31.75 41-19.5T212 168.5t49.75 6.75 40.75 19.5 28.25 31.75T342.5 270v-5z"/></svg>