<svg xmlns="http://www.w3.org/2000/svg" viewBox="0 0 425 512"><path d="M317 51q21.5 0 40.5 8.25t33.25 22.5 22.5 33.25 8.25 40.5v209q0 21.5-8.25 40.75t-22.5 33.5-33.25 22.5-40.5 8.25H107.5q-21.5 0-40.5-8.25t-33.25-22.5-22.5-33.5T3 364.5v-209Q3 134 11.25 115t22.5-33.25T67 59.25 107.5 51H317zm-25 159l2.5-1.25 3.5-.75h19l3-4 10-9.5H225.5l4 13.5h28l-47 44.5q-3.5-5.5-9.25-13.5T189 221.5t-13.25-19.75T163 181.5h36V173l.5-3h-.5v-1.5H81.5v13H116q5 5 15.75 18.75t22 28.75 19.75 27.75T183 272q0 2.5.25 10t.25 15.75-.25 15.25-1.25 8q-2 2-6.75 3t-10 1.5-10 .5h-6.75l-2 12H173l15.5-.25 11.5-.25h36l15.75.25 8.75.25.5-12.5q-2-.5-7.5-.5H231l-6.5-.5q-.5-2-.75-9.75t-.5-16.5-.25-16 .5-8.75q1.5-4.5 11.25-14.75T256.5 238t22.5-18.75 13-9.25zm33.5 110h-9l-10-1.5V337l8 1 8.5.5zm17.5-89q-1 0-6-.5t-10.75-1.25-11-1.25-6.75-1l.5 79 15.5 1.5z"/></svg>