<svg xmlns="http://www.w3.org/2000/svg" viewBox="0 0 425 512"><path d="M317 51q21.5 0 40.5 8.25t33.25 22.5 22.5 33.25 8.25 40.5v209q0 21.5-8.25 40.75t-22.5 33.5-33.25 22.5-40.5 8.25H107.5q-21.5 0-40.5-8.25t-33.25-22.5-22.5-33.5T3 364.5v-209Q3 134 11.25 115t22.5-33.25T67 59.25 107.5 51H317zM215.5 364.5q8 0 20.5-7.5t26.75-20.25 27.75-29.25 23.25-34.25 14-35.75-.25-34Q320 178 303 167t-35-11.5q-15 0-25.25 6.25T226 175.5t-9.75 13.75-4.25 6.25-4-6.25-9-13.75-16.25-13.75-25.25-6.25q-18.5 0-35.75 11T97 203.5q-5 16-.25 34t15.5 35.75 25.25 34.25 29.25 29.25T194.5 357t21 7.5z"/></svg>