<svg xmlns="http://www.w3.org/2000/svg" viewBox="0 0 425 512"><path d="M317 51q21.5 0 40.5 8.25t33.25 22.5 22.5 33.25 8.25 40.5v209q0 21.5-8.25 40.75t-22.5 33.5-33.25 22.5-40.5 8.25H107.5q-21.5 0-40.5-8.25t-33.25-22.5-22.5-33.5T3 364.5v-209Q3 134 11.25 115t22.5-33.25T67 59.25 107.5 51H317zm-106 78.5q-22.5 0-45 8.5 1 1 8.5 7.5t18.5 16.25 23.5 21 23.25 21 17.75 16.75 7 8V141q-10-5.5-24.5-8.5t-29-3zm-129.5 131q0 17.5 5 34 1-1 9.75-8.75t21.25-19.5 27.25-25T172 216.5t21-19.25 9-8.25q-1-.5-8.5-7.5T177 166.25t-16.5-15-8-7.25q-33 17-52 48t-19 68.5zm65.5-1q-14.5 13.5-26.5 24-10 9-18.5 17t-9 8.5q8 19.5 21.25 35.75T147 372.5v-113zM224 391q34.5-3.5 62.5-21.5t43-57H160V380q19 8.5 40 11h24zm111.5-91.5q4-10 5.25-20t1.25-21q0-34.5-17.25-63.25T277.5 148.5v151h58z"/></svg>