<svg xmlns="http://www.w3.org/2000/svg" viewBox="0 0 425 512"><path d="M317 51q21.5 0 40.5 8.25t33.25 22.5 22.5 33.25 8.25 40.5v209q0 21.5-8.25 40.75t-22.5 33.5-33.25 22.5-40.5 8.25H107.5q-21.5 0-40.5-8.25t-33.25-22.5-22.5-33.5T3 364.5v-209Q3 134 11.25 115t22.5-33.25T67 59.25 107.5 51H317zm-75 176.5q0 4 .25 9.5t1.25 11 2.75 10 4.25 7q2 2.5 5 2.5h.5q17.5 0 17.5-28.5 0-6.5-1.75-12.5t-4.25-11-6-8-7-3h-1q-10 1.5-11.5 23zm-44 6q-2.5 8-1 17t5.5 15q1.5 2.5 4 4.75T213 273h2q8.5 0 12.5-8t4.5-18q0-7.5-3-14.25T222 222q-3.5-4-8-4-3.5 0-7.75 2T198 233.5zm130.5 37q2.5-14 1-25t-6-16q-4-4.5-9-4.5H313q-11.5 1-15 9.25t-6.5 24.25q-1.5 7.5-4.5 18.75t-9.75 21.5-18 17.25-28.25 6q-18.5-1-27.5-6.5t-13.25-13-5.5-16-4.25-16q-1-2.5-1.5-4.5t-1.5-4q-2.5-6-7-12.75t-11-12.75-14.5-10-17.5-4h-33V247h24q5.5 0 13.75 7.25T143 274q8.5 38.5 29.25 58t52.25 19.5h2.5q25-.5 43.5-9.75t30.75-22 19-26.5 8.25-22.75z"/></svg>