<svg xmlns="http://www.w3.org/2000/svg" viewBox="0 0 425 512"><path d="M234.5 242.5q15.5-7 30.25-16.5T293 205q8.5 12 12.75 26t4.75 28.5q-19-4.5-37.5-4.5-7.5 0-15.5.75T241 258.5l-3-8-3.5-8zM317 51q21.5 0 40.5 8.25t33.25 22.5 22.5 33.25 8.25 40.5v209q0 21.5-8.25 40.75t-22.5 33.5-33.25 22.5-40.5 8.25H107.5q-21.5 0-40.5-8.25t-33.25-22.5-22.5-33.5T3 364.5v-209Q3 134 11.25 115t22.5-33.25T67 59.25 107.5 51H317zM212.5 378q24 0 45.5-9.25t37.5-25.25 25.25-37.5 9.25-46q0-24-9.25-45.5T295.5 177 258 151.75t-45.5-9.25q-24.5 0-46 9.25T129 177t-25.25 37.5T94.5 260q0 24.5 9.25 46T129 343.5t37.5 25.25 46 9.25zM248 277q14-2.5 25-2.5 18.5 0 35.5 5-4 20.5-16.25 37.5T262 344.5q-2-17.5-5.5-34.5t-8.5-33zm32.5-87q-13 10.5-26.5 19.25t-28 15.25q-8.5-15.5-18-30.25t-21-28.75q6-1.5 12.25-2.5t13.25-1q19 0 36.5 7.25T280.5 190zm-125 150q13-21 31.75-35.75T228.5 282q11.5 34.5 14.5 71-14.5 5-30.5 5-32.5 0-57-18zm66.5-76.5q-25 8.5-46 24.5t-35.5 38.5q-24.5-26-26-62 4 .5 7 .5h6.5q22.5 0 44.75-3.75T216 249.5q2 3.5 3.25 7t2.75 7zM207.5 232Q169 245.5 128 245.5h-6.75l-5.75-.5q3.5-23 17.25-42t34.75-30q23 27.5 40 59z"/></svg>