<svg xmlns="http://www.w3.org/2000/svg" viewBox="0 0 425 512"><path d="M166 278.5v-35q13 5.5 16 14.5t2 20.5h-18zm-46.5 22q-7 0-11-2.25t-6-5.5-2.25-7-.25-7.25h66v8.5h-27.5q0 5-3.5 9.25t-15.5 4.25zM261 206q16 2.5 20 10t4 17.5v20zm56-155q21.5 0 40.5 8.25t33.25 22.5 22.5 33.25 8.25 40.5v209q0 21.5-8.25 40.75t-22.5 33.5-33.25 22.5-40.5 8.25H107.5q-21.5 0-40.5-8.25t-33.25-22.5-22.5-33.5T3 364.5v-209Q3 134 11.25 115t22.5-33.25T67 59.25 107.5 51H317zm52 143.5h-32l-24.5 51-22.5-51h-34.5L261 206q-2.5-.5-5.25-.5H250q-7 0-12.75 1.25T227.5 211q-9 5.5-9 20.5h24q0-5 1.25-9t7.75-4q7 0 8.5 3.5t1.5 9v6.5q-10.5-.5-20 .5t-15.5 6q-3-2.5-6.75-4.25T210 238q-12.5 0-19.5 9.5h-.5v-44h-24v40q-2.5-1.5-5.75-2.25T153 239.5q-6.5-1-14.75-1.75T119.5 237q-22 0-34.5 3t-19.25 8-8.5 12-1.75 14.5q0 8.5 2 15.75t8.75 12.5T85.5 311t34 3q10 0 18.25-1t15.25-2.5 13-4v17h23v-9h.5q5.5 11 20 11 7.5 0 12.25-3t7.25-7.75 3.5-10.5 1.5-11.75q1.5.5 5.5.5 15 0 22.5-13h.5l1 11.5h23l-1-8-.5-8v-22l10 19.5v41h32v-41zm-249.5 55q8 0 12.25 1.75t6 4.5 2 5.75.25 5.5h-40q0-2 .25-5.25t2-5.75 5.75-4.5 11.5-2zm121 15.5q0-5.5 1.5-8.5t4.5-4 6.75-1.25 8.25-.75v8.25l-.75 9.25-3.5 7.5-7.75 3q-6 0-7.5-4.5t-1.5-9zM200 252.5q8 0 9 8t1 20.5q0 16-1.75 23t-8.25 7-8.25-7-1.75-23q0-12.5 1.25-20.5t8.75-8zM183.5 287q-1 12-17 19 0 .5-.5.5V287h17.5zm42.5-43q-9.5 6.5-9.5 22 0 10 4 17.25t13.5 9.25v-11q0-9-1-20t-7-17.5z"/></svg>