<svg xmlns="http://www.w3.org/2000/svg" viewBox="0 0 425 512"><path d="M317 50.5q21.5 0 40.5 8.25t33.25 22.5 22.5 33.25 8.25 40.5v209q0 21.5-8.25 40.75t-22.5 33.5-33.25 22.5T317 469H107.5Q86 469 67 460.75t-33.25-22.5-22.5-33.5T3 364V155q0-21.5 8.25-40.5t22.5-33.25T67 58.75t40.5-8.25H317zM312 208q14.5-10 25.5-26-7 3-14.25 5t-14.75 3q16.5-10.5 22-28.5-15 9.5-32 12.5-15-16-37.5-16-10.5 0-19.75 4t-16 11-10.75 16.25-4 19.75q0 3 .25 5.75t.75 5.75Q180 219 153 204.75t-46-37.25q-7 11.5-7 25.5 0 13 6.25 24t16.25 18q-6 0-11.75-1.75T99.5 229v.5q0 18.5 11.75 32.25t29.25 17.75q-7 1.5-13.5 1.5h-4.75l-4.75-1q5 15.5 17.75 25.25T165 315.5q-13 10-29.25 16t-33.75 6q-3.5 0-6.5-.25t-6-.75q17 11 36.75 17t41.25 6q35 0 62-13.25t45.25-34 27.75-46.5 9.5-51.25V208z"/></svg>