<svg xmlns="http://www.w3.org/2000/svg" viewBox="0 0 425 512"><path d="M317 51q21.5 0 40.5 8.25t33.25 22.5 22.5 33.25 8.25 40.5v209q0 21.5-8.25 40.75t-22.5 33.5-33.25 22.5-40.5 8.25H107.5q-21.5 0-40.5-8.25t-33.25-22.5-22.5-33.5T3 364.5v-209Q3 134 11.25 115t22.5-33.25T67 59.25 107.5 51H317zM212.5 378q24 0 45.5-9.25t37.5-25.25 25.25-37.5 9.25-46-9.25-45.75T295.5 177 258 151.75t-45.5-9.25q-24.5 0-46 9.25T129 177t-25.25 37.25T94.5 260t9.25 46T129 343.5t37.5 25.25 46 9.25zm0-159.5q17.5 0 29.5 12t12 29.5-12 29.75T212.5 302q-9 0-16.5-3.25t-13.25-9-9-13.5T170.5 260t3.25-16 9-13.25 13.25-9 16.5-3.25zm0-64.5q21.5 0 40.75 8.25T287 185t22.75 33.75T318 260t-8.25 41.25T287 335t-33.75 22.75T212.5 366q-22 0-41.25-8.25T137.5 335t-22.75-33.75T106.5 260t8.25-41.25T137.5 185t33.75-22.75T212.5 154zM186 170.5q-29.5 6.5-43.25 27T123 247h25.5q5.5-19.5 16.5-32.25t21-18.25v-26zm0 153q-5-2.5-10.5-5t-10.5-6.25-9.5-10-7-16.25H123q3 15 7.75 25.5t12.25 18 18 12.25 25 7.75v-26zM158.5 260q0 11 4.25 20.75t11.5 17 17 11.5 21.25 4.25q11 0 20.75-4.25t17-11.5 11.5-17T266 260t-4.25-20.75-11.5-17-17-11.5-20.75-4.25q-11.5 0-21.25 4.25t-17 11.5-11.5 17T158.5 260zm67 89.5q14.5-3 27.25-7.75t22.5-12.25 16.75-18 10-25.5h-26q-2.5 10-7.25 16.25t-11 10-14.5 6.25-17.75 5v26zM302 247q-6.5-29.5-26.75-49.75T225.5 170.5v26q40 10.5 50.5 50.5h26z"/></svg>