<svg xmlns="http://www.w3.org/2000/svg" viewBox="0 0 425 512"><path d="M317 51q21.5 0 40.5 8.25t33.25 22.5 22.5 33.25 8.25 40.5v209q0 21.5-8.25 40.75t-22.5 33.5-33.25 22.5-40.5 8.25H107.5q-21.5 0-40.5-8.25t-33.25-22.5-22.5-33.5T3 364.5v-209Q3 134 11.25 115t22.5-33.25T67 59.25 107.5 51H317zM147 312.5q11 0 20.5-4t16.5-11.25 11-16.75 4-20.5q0-22-15-37t-37-15q-11 0-20.5 4t-16.75 11-11.25 16.5-4 20.5 4 20.5 11.25 16.75 16.75 11.25 20.5 4zm130.5 0q11 0 20.5-4t16.5-11.25 11.25-16.75T330 260t-4.25-20.5T314.5 223 298 212t-20.5-4q-10.5 0-20 4t-16.75 11-11.25 16.5-4 20.5 4 20.5 11.25 16.75 16.75 11.25 20 4z"/></svg>