<svg xmlns="http://www.w3.org/2000/svg" viewBox="0 0 425 512"><path d="M317 51q21.5 0 40.5 8.25t33.25 22.5 22.5 33.25 8.25 40.5v209q0 21.5-8.25 40.75t-22.5 33.5-33.25 22.5-40.5 8.25H107.5q-21.5 0-40.5-8.25t-33.25-22.5-22.5-33.5T3 364.5v-209Q3 134 11.25 115t22.5-33.25T67 59.25 107.5 51H317zm-8 297.5q3.5-5.5-.25-12.25T300.5 328q-2-.5-5.75-.25t-5.25-1.25q-1-1-.75-7.5t.25-10.5v-97q0-9.5-.5-20.75t3-15.75q1-1 3.75-2t5.5-2.25 5-2.5 2.75-2.75q.5-2.5-.5-6.5t-2.75-7.75-4.5-6.25-4.75-2.5h-16.5q-10 2-19.25 3.5t-17.75 5.5q-2.5 1-5 2.75T234 158q-2.5 8 2.5 13.25T247 179q2 1 5.75 1.25T258 182q2 2 1.5 8t-1 10q-1 10-1 18.5t1 19.5q.5 3.5 1.25 9.25t-2.25 8.25q-1 1-3.75 1.25t-6 .5l-6.5.5-5.25.75q-8 1-14.25 1.75t-12.25 2l-12 2.5-13.5 2.75-5 1.25-5.5-.25q-1.5-.5-2.25-5.25t-.75-6.75q-1-14.5 0-25.5t1-25v-9l1-6 3.75-2.5 6-1.75 6-1.75 4.25-3q1.5-2.5 1.25-6t-1.25-6q-2.5-6-7-8.75T175 158t-13.25.5T147 161q-11 2-20 4.75t-13 9.75v4.5q2.5 5.5 5.25 8.5t7.25 5.5q2.5 1 6.25 1.25t4.75 1.75q1.5 1.5 1.25 7.75t-.25 10.75q0 16.5.75 29.5t.75 29q.5 13.5 1 28.5t2 28q1 4.5 1.25 10.25T143 348.5q-1 1-2.75 1.25t-2.75.75q-4 1-8.5 3.5t-5 6.5q-.5 5 4.25 10.25T138 377q3 1 5.5 1t6.5-.5q5.5-.5 13.25-1.5t15-3 12.5-5.25 5.75-7.75q.5-5.5-3.25-10t-7.75-6q-1.5-.5-6 0t-6-2q-1-2-.75-5.75T173 330t-.5-6.5-.75-8.25 0-7.75 1.25-5q2.5-3.5 8.5-5t9.5-2.5q11.5-4 20.5-5.25t22.5-3.25q1.5 0 5.25-.5t7.5-.75 7 0 4.25 1.25.75 4.75-.25 6.25V310q0 5.5 1 12.75t-1.5 9.75q-2 1.5-5.75 1.5t-5.75 1q-7.5 3.5-8 7.5-1 6 6 12.5t13 7q10 1 21.5-2t18.5-6.5l6.75-2.25 4.75-2.75z"/></svg>