<svg xmlns="http://www.w3.org/2000/svg" viewBox="0 0 425 512"><path d="M317 51q21.5 0 40.5 8.25t33.25 22.5 22.5 33.25 8.25 40.5v209q0 21.5-8.25 40.75t-22.5 33.5-33.25 22.5-40.5 8.25H107.5q-21.5 0-40.5-8.25t-33.25-22.5-22.5-33.5T3 364.5v-209Q3 134 11.25 115t22.5-33.25T67 59.25 107.5 51H317zm-65 130.5q-11.5 0-19.75 8.5T224 211q0 12 8.25 20.5T252 240t19.75-8.5T280 211q0-12.5-8.25-21T252 181.5zm-76.5 0q-11.5 0-19.75 8.5t-8.25 21q0 12 8.25 20.5t19.75 8.5 19.75-8.5 8.25-20.5q0-12.5-8.25-21t-19.75-8.5zm163.5 62q4-8 3.75-11t-.75-4q0-1-1.5-1-3.5 0-8.5 5.5-3 4-10.75 8T305 248.25t-16 5.5-9.5 2.25H238q-7.5 0-15.5 2t-8 6v7q-1.5-1-3-2.5-4.5-4.5-10-7.75t-14-3.25H182q-11 0-27-1.5t-27-4q-6-1.5-13.25-5.75t-14.25-8.75q-6-3.5-10.75-6.25t-7.25-2.75q-.5 0-.5.5-1.5 4 .5 7.75T90 247.5l2.5 2.5q3 4 10.75 8.75t15.5 8.75 14 6.5l6.25 2.5.5.5v47q0 5 4.5 11t10.75 11 13.25 8.25 12 3.25q10 0 17-5.5t7-10.5v-45l1.5 1q3.5 2.5 9 3v41q0 2.5 1.75 6.25t6 7.5 11.5 6.5 17.75 2.75T269 359t11-12.75 5.5-13.75 1.5-8.5v-43.5l.5-.5q3.5-2 6.75-3.5t6.75-3q11.5-5.5 21.75-12t16.25-18z"/></svg>