<svg xmlns="http://www.w3.org/2000/svg" viewBox="0 0 425 512"><path d="M317 51q21.5 0 40.5 8.25t33.25 22.5 22.5 33.25 8.25 40.5v209q0 21.5-8.25 40.75t-22.5 33.5-33.25 22.5-40.5 8.25H107.5q-21.5 0-40.5-8.25t-33.25-22.5-22.5-33.5T3 364.5v-209Q3 134 11.25 115t22.5-33.25T67 59.25 107.5 51H317zM125.5 273.5q16.5 22 31.5 33-1.5-10.5 0-21.5t8.5-21q7.5-11.5 15.25-16t13.25-5.5V241q-8.5-10-18.75-17.25T154 209.5q-8.5-5.5-18.75-10.75t-20-9.5-18.5-7T82 179.5q-4 0-5 1-.5 1-.75 5.5t4 15 14.5 28 30.75 44.5zm45.5-6q-7 10.5-8 22t1.5 22.5q9.5 6.5 17.25 9t13.25 2.5q4.5 0 6.5-1 4.5-1.5 8.5-6t6.5-9.5q-2.5-4.5-4.5-9t-4.5-10q-9-21.5-12-39-5 1-11.25 4.75T171 267.5zM229.5 384q1.5-1 3-5.5t2.5-11 1.75-13.5.25-12.5q0-1-.25-2t-.25-2q-7.5-6.5-16.5-24-3 5-7 9t-9.5 6.5q-2.5 1-8.5 1-12.5 0-28-8.5 5 13.5 11.5 21 3 4.5 8.75 11.5t12.5 13.75 14 11.75 13.75 5q1.5 0 2-.5zm-19-97.5q10 24 18.5 36.25t12.5 14.75v-4q-.5-8-3-23T228 277q-7-16-12.25-26.5t-9.25-17q-3.5-5.5-5.5-7.75t-3-2.75q-1 1-1 2-.5 1-.5 3v5.25l.5 6.25q1 8.5 4.25 20.5t9.25 26.5zm5-43.5q4 7 7.75 15t7.75 18q2.5 5.5 4.25 10.25T238 296q2.5 1.5 12.75 6.25T280 307h7l7.5-.5q13-2 22.25-11.25T332.5 272q-1-4-2-5.5-3-7-10.5-13T302.5 243t-21.75-7.25T257 233q-23 0-41.5 10zM311 358q5-6 10.25-14.5t8.75-18.75 5-21.25 0-21.5q-7 12.5-16.75 20.75T295.5 313q-4 .5-8 .75t-7.5.25q-14.5 0-24.25-3t-15.25-6q4 18.5 4 27.5 8 12 16.5 18 12 8.5 20 13.25t13.5 4.75q2.5 0 6.25-1.75T311 358zm37-155.5q1-18.5-2.75-34.25T333 144q-7.5-8-18.5-8-2.5 0-7.5 1-11.5 2.5-26.25 12.25t-29 23.25-25.5 29.75T210.5 234q.5 1 1 1.5t1 1.5q20-10.5 44.5-10.5 13 0 25.5 2.75t23.25 7.75 18.75 11.75 12 14.75q5-14 7.75-29.75T348 202.5z"/></svg>