<svg xmlns="http://www.w3.org/2000/svg" viewBox="0 0 425 512"><path d="M317 51q21.5 0 40.5 8.25t33.25 22.5 22.5 33.25 8.25 40.5v209q0 21.5-8.25 40.75t-22.5 33.5-33.25 22.5-40.5 8.25H107.5q-21.5 0-40.5-8.25t-33.25-22.5-22.5-33.5T3 364.5v-209Q3 134 11.25 115t22.5-33.25T67 59.25 107.5 51H317zM112.5 182.5q-1 7.5 9.25 8.5t25.25-.5q7-.5 13.5 4.5t11.25 14.5 7.5 23 2.25 30.5q7-2.5 15.5-3.5-.5-4-1.75-13.75t-4.75-21.25-10.25-23.25T162.5 181q6-.5 14.5.75t18.5 7.25 21.5 17.5 24 31q2.5-1 4.75-1.5t4.75-1.5q-4.5-7.5-13.75-19.75T215 191.25t-28.25-17.75T154 171q.5-6 0-11.75t-2.25-9.75-5-5.5-7.75 1q-5 3-6.5 5.5t-1.25 5.5 1 6.5.25 8q-.5 5-3.5 6t-6.25 1-6.5.75-3.75 4.25zm90.5 194q10.5 0 20-4t16.5-11 11-16.5 4-20-4-20-11-16.5-16.5-11-20-4-20 4-16.75 11T155 305t-4 20 4 20 11.25 16.5 16.75 11 20 4zm63.5-36q9.5-.5 17.75-4.5t14.5-10.25T308.5 311t3.5-18q0-20-14-34t-34-14q-11.5 0-21.25 5T226 263.5q19 7 30.75 23.75T268.5 325q0 9-2 15.5zm-79-46.5q4.5 0 7.75 3.25t3.25 7.75q0 5-3.25 8.25t-7.75 3.25q-5 0-8.25-3.25T176 305q0-4.5 3.25-7.75t8.25-3.25z"/></svg>