<svg xmlns="http://www.w3.org/2000/svg" viewBox="0 0 425 512"><path d="M317 51q21.5 0 40.5 8.25t33.25 22.5 22.5 33.25 8.25 40.5v209q0 21.5-8.25 40.75t-22.5 33.5-33.25 22.5-40.5 8.25H107.5q-21.5 0-40.5-8.25t-33.25-22.5-22.5-33.5T3 364.5v-209Q3 134 11.25 115t22.5-33.25T67 59.25 107.5 51H317zm-84.5 318q3.5-10 6.5-19.25t4-12.25q-3-2-11.25-8t-16.75-13q-10-8-22.5-17H255q1 0 4-9t6.5-20q4-13 8.5-29.5 4.5 16.5 8.5 29.5 3.5 11 6.75 20t4.25 9h33l-52.5-157L231.5 270h-137zm97.5-60h-43l-13-40-13 40h-43l34.5 26-13 43 34.5-27 34.5 27-13-43z"/></svg>