<svg xmlns="http://www.w3.org/2000/svg" viewBox="0 0 425 512"><path d="M225.5 174q15 0 28.25 4.5t23 12 15.5 17.75T298 230t-5.75 21.75-15.5 17.75-23 12-28.25 4.5-28.5-4.5-23.25-12-15.5-17.75T152.5 230t5.75-21.75 15.5-17.75 23.25-12 28.5-4.5zM317 51q21.5 0 40.5 8.25t33.25 22.5 22.5 33.25 8.25 40.5v209q0 21.5-8.25 40.75t-22.5 33.5-33.25 22.5-40.5 8.25H107.5q-21.5 0-40.5-8.25t-33.25-22.5-22.5-33.5T3 364.5v-209Q3 134 11.25 115t22.5-33.25T67 59.25 107.5 51H317zm-91.5 280q24.5 0 45.75-8t37.25-21.5 25.25-32T343 230t-9.25-39.25T308.5 159t-37.25-21.5-45.75-8-46 8T142 159t-25.25 31.75T107.5 230q0 20 8.25 37.25T138.5 298l-8.5 66.5 55.5-39.5q18.5 6 40 6z"/></svg>