<svg xmlns="http://www.w3.org/2000/svg" viewBox="0 0 425 512"><path d="M317 51q21.5 0 40.5 8.25t33.25 22.5 22.5 33.25 8.25 40.5v209q0 21.5-8.25 40.75t-22.5 33.5-33.25 22.5-40.5 8.25H107.5q-21.5 0-40.5-8.25t-33.25-22.5-22.5-33.5T3 364.5v-209Q3 134 11.25 115t22.5-33.25T67 59.25 107.5 51H317zM106 307.5q8.5-2 18.25-5.5t19-8 17-9.75 12.25-10.75q4.5-5 3.25-7t-5-1.5-9 2-8.75 3q-4 1.5-12.5 5t-17.5 7.5q-10.5 4.5-22.5 9.5-4 5.5-5.5 9.5-1 3.5.75 5.75t10.25.25zM283 358q1-15-.5-24.25T278 319t-7.25-8.25-7.75-5.25q-4.5-2.5-14.75-3.5t-21.75-1.5q0-10-.25-18.5t-.75-13.5q6.5-1 9.5-2 11-3 15.75-12.25T256.5 235v-20q9-.5 15.25-.5h8.75q3 0 7.25-.25t8-1 6-2 2.25-3.75q-.5-5-5-6t-11.5-2q-2.5 0-11-.25t-20-.25q0-7.5-.5-15.25t-.75-14.5-1-11.75-1.75-7q-3.5-7-8-3.5t-4.5 8.5V199h-48q.5-10 1-19t1-14.5q1.5-13-1.75-17.5t-7.25-5.5-6 3.5-3 10q-.5 2.5-.75 15t.75 27.5q-11.5 0-24-.25t-19.5.75q-3 0-5 2.5t-2.75 5.5-.25 5.75 3 3.25q1.5.5 6.75.5h12.25l15-.5 15.5-.5q.5 9 1.5 17.25t2 14.25q2.5 11 11.5 15.75t19 5.75q0 5.5.25 13.75t.25 18.25h-17q-15.5.5-25.75 8.25T156 324.5q-1.5 4-2.25 10t-1.25 12q-.5 7 0 14.5-.5 8.5 2 12.5t5.25 4 5-4 1.75-12q-1.5-21 5.5-31.5t13-11.5q2.5-.5 10-.5h16.5v30.5l-.5 18q0 4.5 2.25 6.5t5.25 1.5 5.5-3.75 2.5-9.75q0-5 .25-16.75t-.25-25.75q7.5 0 13.75.25t9.75.25q9 .5 13.25 9.5T268 359q0 9.5 2.25 14t4.75 4.25 4.75-5.25 3.25-14zm28.5-61q3 .5 6.25 1.5t6 1.25 4.5-.75 1.75-4.5q-.5-3.5-4.75-6.75t-10.5-6.25-13.75-6-14.5-6q-14.5-6-20.5-6t-8 5.5q-1 3.5.25 5.75t4 3.75 5.75 2.25l5 1.25 7 2.75 11 5 11.75 4.75 8.75 2.5zm-72-59.5q0 5-4.25 8.25t-10.5 4.5-13 .75-11.25-3.5q-4.5-2.5-6.25-11.5T192 215.5q8 0 21.25-.25T240 215v13.5l-.5 9z"/></svg>