<svg xmlns="http://www.w3.org/2000/svg" viewBox="0 0 425 512"><path d="M295 220q13.5 0 22.5 10.5 6 7.5 6.5 19.5h-59q.5-13.5 9.5-21.5Q283 220 295 220zm22-169q21.5 0 40.5 8.25t33.25 22.5 22.5 33.25 8.25 40.5v209q0 21.5-8.25 40.75t-22.5 33.5-33.25 22.5-40.5 8.25H107.5q-21.5 0-40.5-8.25t-33.25-22.5-22.5-33.5T3 364.5v-209Q3 134 11.25 115t22.5-33.25T67 59.25 107.5 51H317zm-92 189.5q0-17-8.5-26.5-8.5-8.5-24.5-8.5-20 0-32.5 18.5-3-9-10.5-13.5-7-5-19.5-5-10.5 0-19 5-7.5 4-13 12V208h-16v104.5h18V258q0-14 3-21.5 2-7 9-11.5 6-4 14-4 10 0 14.5 6 4.5 5.5 4.5 17.5v68h18v-61q0-16.5 7-23.5 8-7 18.5-7 6.5 0 11 3 4 2 6.5 7.5 1.5 4.5 1.5 15v66h18v-72zM343 260q0-25.5-13.5-40T295 205.5q-22 0-35.5 14.5-14 14.5-14 41 0 25.5 13.5 39.5t37 14q18.5 0 30-8.5 12-9 16.5-25l-18.5-2.5q-4.5 11.5-11 16.5t-17 5q-13 0-22-9-9.5-9-10-26.5h79V260z"/></svg>