<svg xmlns="http://www.w3.org/2000/svg" viewBox="0 0 425 512"><path d="M317 51q21.5 0 40.5 8.25t33.25 22.5 22.5 33.25 8.25 40.5v209q0 21.5-8.25 40.75t-22.5 33.5-33.25 22.5-40.5 8.25H107.5q-21.5 0-40.5-8.25t-33.25-22.5-22.5-33.5T3 364.5v-209Q3 134 11.25 115t22.5-33.25T67 59.25 107.5 51H317zm-80 327q19 0 36-6.75T302.75 353t20-27 7.25-33q0-18-5.5-33.5t-15-27-22.25-18T260 208h-46.5q-9.5 0-16.25 5t-6.75 14.5 6.75 14.5 16.25 5H260q8.5 0 16 11.25t7.5 27.75q0 8.5-3.75 15.75t-10 12.5T255 322.5t-18 3h-23.5q-19 0-29.75-11.75T173 283V165.5q0-10-8.25-16.5T147 142.5q-10 0-18 6.5t-8 16.5V283q0 19 7.25 36T148 349.25t29.5 21 36 7.75H237z"/></svg>