<svg xmlns="http://www.w3.org/2000/svg" viewBox="0 0 425 512"><path d="M173.5 241.5q-3 2-6.75 3.75T158 247h-24v-39h20.5q5.5 0 9.5 1t7.5 2.5q4 1.5 5.75 5.5t1.75 9.5q0 11-5.5 15zM173 274q4.5 2.5 6.75 5.75t2.25 9.75q0 14.5-9.5 19.5-6 3.5-14.5 3.5h-24V273h32.75l6.25 1zM317 51q21.5 0 40.5 8.25t33.25 22.5 22.5 33.25 8.25 40.5v209q0 21.5-8.25 40.75t-22.5 33.5-33.25 22.5-40.5 8.25H107.5q-21.5 0-40.5-8.25t-33.25-22.5-22.5-33.5T3 364.5v-209Q3 134 11.25 115t22.5-33.25T67 59.25 107.5 51H317zm-65.5 157H304v-26.5h-52.5V208zM206 316q6.5-11.5 6.5-25 0-13-6-23-5.5-9-16.5-13.5 7-4 11-9 6.5-8.5 6.5-23t-6.5-24q-10.5-16-37-17H94.5v157h65q5.5 0 10.5-.5t9.5-1.5q9.5-2.5 16-8 3.5-2.5 5.75-5.5t4.75-7zm124-30q-.5-4.5-.5-8.5 0-3.5-.25-7T329 265q-1-7-3-12.25t-5-10.25q-7-11.5-17-16.5t-23-5q-22 0-35.5 15-13.5 16-13.5 44.5 0 30.5 15 44t35 13.5q11.5 0 20.75-4.5T319 321q4-5.5 6.5-10t3-11.5H302q-1 7-2.25 7.25T297 308.5q-3 2.5-6.5 4.25t-8 1.75q-8.5 0-14.5-4.5-4.5-3-7-8.5t-3-15.5h72zm-49-39q9 0 15 6 3.5 3 5 6.5t2 13.5h-44.5q1-10 2.75-13t4.25-6.5Q271 247 281 247z"/></svg>