<svg xmlns="http://www.w3.org/2000/svg" viewBox="0 0 425 512"><path d="M317 51q21.5 0 40.5 8.25t33.25 22.5 22.5 33.25 8.25 40.5v209q0 21.5-8.25 40.75t-22.5 33.5-33.25 22.5-40.5 8.25H107.5q-21.5 0-40.5-8.25t-33.25-22.5-22.5-33.5T3 364.5v-209Q3 134 11.25 115t22.5-33.25T67 59.25 107.5 51H317zM198 166.5q19 2.5 35.5 9.5t28.5 17.75 18.75 24.5T287.5 247q0 19-10.25 35t-27.75 27.5q25.5-9.5 41-27.25T306 242.5q0-15.5-8.25-29.5t-22.5-24.25T242 172.5t-40.5-6H198zM272 320q31.5-11.5 51.25-33.75T343 236.5q0-19.5-10.25-36.5t-28-29.75-41.5-20.25-50.75-7.5-51 8-41.75 21.25-28 31T81.5 240q0 17 8 32t20.75 27T139 319.5t31.5 12Q167 342 158.75 355t-22.25 22q23 2.5 43.5-2 17.5-3.5 36.25-14.75t30.25-34.75q-7 9-18 17-9.5 7-24 13t-35 8q6-8 10.5-15.5t7.5-13q3.5-6.5 6.5-12.5-30-7-54.5-22.25T105 263q-1.5-5-2.5-10t-1-10.5q0-18.5 8.25-34.5t22.75-27.75 35-18.25 44.5-6.5q24.5 0 45 6.25t35.25 17.5 23 26.75 8.25 34.5q0 25.5-12.75 46.5T272 320z"/></svg>