<svg xmlns="http://www.w3.org/2000/svg" viewBox="0 0 425 512"><path d="M317 51q21.5 0 40.5 8.25t33.25 22.5 22.5 33.25 8.25 40.5v209q0 21.5-8.25 40.75t-22.5 33.5-33.25 22.5-40.5 8.25H107.5q-21.5 0-40.5-8.25t-33.25-22.5-22.5-33.5T3 364.5v-209Q3 134 11.25 115t22.5-33.25T67 59.25 107.5 51H317zm-64 91.5q-14.5 0-25 10.25t-10.5 24.75 10.5 25 25 10.5 24.75-10.5 10.25-25-10.25-24.75T253 142.5zm-68.5 8q-11.5 0-19.25 8t-7.75 19q0 11.5 7.75 19.5t19.25 8 19.25-8 7.75-19.5q0-11-7.75-19t-19.25-8zm-52 6.5q-8.5 0-14.5 6t-6 14.5 6 14.75 14.5 6.25 14.75-6.25 6.25-14.75-6.25-14.5-14.75-6zM304 274.5q0-10-4-18.75t-10.75-15.25-15.75-10.25-19-3.75-19 3.75T220 240.5q-3-11.5-12.75-19T185 214q-8.5 0-15.5 3.5t-12.5 9q-2-8-8.75-13.25T133 208q-10.5 0-18 7.25T107.5 233v40H147v39.5h52v52h105v-90z"/></svg>