<svg xmlns="http://www.w3.org/2000/svg" viewBox="0 0 425 512"><path d="M317 51q21.5 0 40.5 8.25t33.25 22.5 22.5 33.25 8.25 40.5v209q0 21.5-8.25 40.75t-22.5 33.5-33.25 22.5-40.5 8.25H107.5q-21.5 0-40.5-8.25t-33.25-22.5-22.5-33.5T3 364.5v-209Q3 134 11.25 115t22.5-33.25T67 59.25 107.5 51H317zM212.5 391q27 0 50.75-10.25t41.5-28 28-41.75T343 260t-10.25-50.75-28-41.5-41.5-28-50.75-10.25-51 10.25-41.75 28-28 41.5T81.5 260t10.25 51 28 41.75 41.75 28 51 10.25zm0-248.5q24 0 45.5 9.25T295.5 177t25.25 37.25T330 260q0 14.5-3.5 28.25t-10 25.75q-9-6-17.75-16.75t-16.5-21.75-14-20.75T258.5 241q-19-21-37.75-35t-46.25-22q-.5 14.5 0 28.75t-.75 27.5-5.75 25T153.5 286q-4.5 4-11 7t-13.5 5-14 2.75-13 .25q-3.5-10-5.5-20t-2-21q0-24.5 9.25-45.75T129 177t37.5-25.25 46-9.25z"/></svg>