<svg xmlns="http://www.w3.org/2000/svg" viewBox="0 0 425 512"><path d="M317 51q21.5 0 40.5 8.25t33.25 22.5 22.5 33.25 8.25 40.5v209q0 21.5-8.25 40.75t-22.5 33.5-33.25 22.5-40.5 8.25H107.5q-21.5 0-40.5-8.25t-33.25-22.5-22.5-33.5T3 364.5v-209Q3 134 11.25 115t22.5-33.25T67 59.25 107.5 51H317zM177.5 257.5l84-42q5.5 4.5 12.25 7.25t14.75 2.75q17.5 0 29.5-12t12-29.5-12-29.5-29.5-12-29.5 12-12 29.5v2.5l-84 42q-5.5-4.5-12.25-7.25T136 218.5q-17.5 0-29.5 12t-12 29.5 12 29.5 29.5 12q15.5 0 27-10l84 42.5v2q0 17.5 12 29.75T288.5 378t29.5-12.25T330 336q0-17-12-29.25t-29.5-12.25q-8 0-14.75 2.75t-12.25 7.25l-84-42v-5z"/></svg>