<svg xmlns="http://www.w3.org/2000/svg" viewBox="0 0 425 512"><path d="M317 51q21.5 0 40.5 8.25t33.25 22.5 22.5 33.25 8.25 40.5v209q0 21.5-8.25 40.75t-22.5 33.5-33.25 22.5-40.5 8.25H107.5q-21.5 0-40.5-8.25t-33.25-22.5-22.5-33.5T3 364.5v-209Q3 134 11.25 115t22.5-33.25T67 59.25 107.5 51H317zM94.5 286H121V155.5H94.5V286zm53.5 26.5h-48v77h14.5V357h29v-13.5h-29v-18H148v-13zm53 70q7.5-8 7.5-21 0-12.5-7.5-21-7.5-8-18.5-8-8 0-13.5 3.5-6.5 4-9.5 10.5-3 7-3 14.5 0 9.5 3 16t9.5 10.5q8 3.5 13.5 3.5 11 0 18.5-8.5zm59.5 0q7-8.5 7-21t-7-21q-7.5-8-19-8-8 0-13.5 3.5-6 4-9 10.5-3.5 8-3.5 14.5 0 5 1 8.75T219 377q3 6.5 9.5 10.5 7 3.5 13 3.5 11.5 0 19-8.5zm64-70H311V340q-6-7.5-14.5-7.5-9.5 0-15.5 7.5-6 7-6 21.5t6.5 21.5q6 8 14.5 8 4.5 0 8.5-2.5 4-2 7.5-7v8h12.5v-77zm5.5-131q0-10.5-7.75-18.25T304 155.5h-26.5l-13-26h-52l-13.5 26h-26q-11 0-18.5 7.75T147 181.5V260q0 11 7.5 18.5T173 286h131q10.5 0 18.25-7.5T330 260v-78.5zm-88.5 163q5 0 9 4.5 3.5 4 3.5 12.5 0 9-3.5 13-4 4.5-9 4.5-5.5 0-8.5-4.5-3.5-4-3.5-13 0-8.5 3.5-12.5 3-4.5 8.5-4.5zm-59 0q4.5 0 8.5 4.5 3.5 4 3.5 12.5 0 9-3.5 13-4 4.5-8.5 4.5-5.5 0-9-4.5-3.5-4-3.5-13 0-8.5 3.5-12.5 3.5-4.5 9-4.5zm117.5-1q5 0 8 4.5t3 14q0 8.5-3 13-4 4-8 4-6 0-9-5.5-2.5-5-2.5-13T292 348q3-4.5 8-4.5zm-61.5-175q11 0 20.5 4.25T275.5 184t11 16.5 4 20.5q0 22-15 37t-37 15q-11 0-20.5-4t-16.75-11T190 241.5t-4-20.5 4-20.5 11.25-16.5T218 172.75t20.5-4.25zm0 78.5q11 0 18.5-7.5t7.5-18.5-7.5-18.75-18.5-7.75-18.5 7.75-7.5 18.75 7.5 18.5 18.5 7.5z"/></svg>