<svg xmlns="http://www.w3.org/2000/svg" viewBox="0 0 425 512"><path d="M317 51q21.5 0 40.5 8.25t33.25 22.5 22.5 33.25 8.25 40.5v209q0 21.5-8.25 40.75t-22.5 33.5-33.25 22.5-40.5 8.25H107.5q-21.5 0-40.5-8.25t-33.25-22.5-22.5-33.5T3 364.5v-209Q3 134 11.25 115t22.5-33.25T67 59.25 107.5 51H317zM213 378q21 0 39.75-7.25t33-20.25T308.5 319t8.5-41-7.25-39-16.5-27.75-17.75-17.5-11-7.75q-9.5-5.5-18.25-8.75T229 168.5q-5.5-4-12.25-11.5t-13.25-14.5q-1 11.5-4.25 17.25T192 169q-9 7-15.5 10t-14 7q-3 1.5-12 7.75t-18.5 17-17 27-7.5 38.25 8.75 40.75T139.5 349t33.5 21.25 40 7.75zm17.5-39q-5.5 4.5-7 2.5-1.5-2.5 2-5.5 2-2 4.75-4.25t5.75-3.25q3-1.5 5-1.5h4.5q3 0 5.5.25t5 1.75q2 1.5 3.25 4t2.25 4q1 4-2 4.5-1.5 1-3.5-2.5-1-2-3-3.75t-8-1.75-8.75 1.5-5.75 4zm32.5 11.5q3-2 3 .5 1 2.5-.5 4-1 1-8 4.75T241 364.5t-20.5.25-19-7.75q-1-1-1-2.25t1-2.25q2-1.5 3.5-1.5t2 .5q3.5 2.5 9.25 4.5t17.25 2q11 0 18.5-2.5t11-5zM190 270q10 0 18.75 4.25t16 9T238 292t11.5 4q4.5 0 10.25-3.5t12-7.5 12-7.5 9.75-3.5q8.5 0 11.75 6.5t3.25 12-2 13.75-6 14.25q-4 5.5-7.25 8t-8.25 2q-3 0-7.5-4.25t-9.25-9-9.75-9-9-4.25q-5 0-12.5 4.25t-16.25 9.5-18.25 9.5-18 4.25q-10.5 0-14.75-1.25T162 326.5q-11-7-10-22 0-6.5 3-12.75t8.25-11 12-7.75 14.75-3zm1-74.5q-7 7.5-14 13t-19.5 13q-13 7-19 8t-6.5.5-1.75-2.25 1.25-5.75q4-6.5 9.75-11.75t11.5-9.25 10.5-6.75 7.25-3.75q1.5-1 8.25-4.5t14.25-9q5-4 8.25-8.5t4.75-16q2 6.5 2 15.5-.5 4-3.25 6.5T201 178t-3.5 2.25L194 182q-2 .5 0 1.5 3 1 3 2.5 0 1-1 3.25t-5 6.25z"/></svg>