<svg xmlns="http://www.w3.org/2000/svg" viewBox="0 0 425 512"><path d="M317 51q21.5 0 40.5 8.25t33.25 22.5 22.5 33.25 8.25 40.5v209q0 21.5-8.25 40.75t-22.5 33.5-33.25 22.5-40.5 8.25H107.5q-21.5 0-40.5-8.25t-33.25-22.5-22.5-33.5T3 364.5v-209Q3 134 11.25 115t22.5-33.25T67 59.25 107.5 51H317zm29 211q-12.5-16.5-34-28-18.5-10-48.25-15.5t-73.75 2h-2l-11-23-33.5 4 13.5 28q-13.5 5.5-22.25 12.5t-14 15-7.5 16.25-2.75 16.25q-1 18.5 7 38l108-31-29.5-60q20-5.5 37.5-4t31 6q15.5 5.5 29 14L257 262l-10.5-19.5q-7.5-1-16-1.5t-17.5 1l25 51zm-199.5 30q-3-7-1.5-14 1-6 5.5-13.5t16-15l16 32.5z"/></svg>