<svg xmlns="http://www.w3.org/2000/svg" viewBox="0 0 425 512"><path d="M317 51q21.5 0 40.5 8.25t33.25 22.5 22.5 33.25 8.25 40.5v209q0 21.5-8.25 40.75t-22.5 33.5-33.25 22.5-40.5 8.25H107.5q-21.5 0-40.5-8.25t-33.25-22.5-22.5-33.5T3 364.5v-209Q3 134 11.25 115t22.5-33.25T67 59.25 107.5 51H317zm11.5 164.5q3.5-17.5-1.75-28.25T311.25 172 288 169t-25 8-21.5 17.75-12 26.75q10-6 17.5-5.25t11.5 5.5 3.75 13T257 252q-10 18.5-18.75 29.5t-14.25 11q-5 0-9.25-11.5T205 247.5q-3-11-5-25.25t-5.75-26.5-10.5-19.75-18.75-5.5q-11.5 2.5-23.75 10.75T118.5 198.5Q106 209 94.5 222l9.5 12q5.5-4 11-6.5 4.5-2.5 8.75-3t6.75 2q1.5 2 4.5 10t6.75 19.25 8 24.25 8 25 7.25 21.5 5.5 13.5q3 5.5 8 11.25t11.5 9.25 14 4 16-4.5q8-5 24.25-18.25t33.25-32.5T309 266t19.5-50.5z"/></svg>