<svg xmlns="http://www.w3.org/2000/svg" viewBox="0 0 425 512"><path d="M246 204.5q-4.5 10-14 17.25T212 229h-1l5.5-24.5H246zM317 51q21.5 0 40.5 8.25t33.25 22.5 22.5 33.25 8.25 40.5v209q0 21.5-8.25 40.75t-22.5 33.5-33.25 22.5-40.5 8.25H107.5q-21.5 0-40.5-8.25t-33.25-22.5-22.5-33.5T3 364.5v-209Q3 134 11.25 115t22.5-33.25T67 59.25 107.5 51H317zM158 340.5l15.5-62h45q16 0 30.75-5.25t26.5-14.75 20-23 11.75-30q4-18.5 0-32.75T294.75 149 274 134.75 250 130H142.5l-48 210.5H158zM328 234q4-17.5.5-30t-11-21.5q4 8 4.75 17.5t-1.75 22q-3.5 16.5-11.75 30.75t-20 24.75-26.5 16.25-30.75 5.75H186l-15 66h-53.5L115 378h63.5l15-66.5H239q16 0 30.75-5.75t26.5-16.25 20-24.75T328 234zm-127.5-5h-18l13.5-62h31q10.5 0 16.75 8t5.25 19q-2.5-1-4.5-1.5t-4.5-.5h-31z"/></svg>