<svg xmlns="http://www.w3.org/2000/svg" viewBox="0 0 425 512"><path d="M317 51q21.5 0 40.5 8.25t33.25 22.5 22.5 33.25 8.25 40.5v209q0 21.5-8.25 40.75t-22.5 33.5-33.25 22.5-40.5 8.25H107.5q-21.5 0-40.5-8.25t-33.25-22.5-22.5-33.5T3 364.5v-209Q3 134 11.25 115t22.5-33.25T67 59.25 107.5 51H317zM81.5 281q0 5 6 5H114l33-52H87.5q-6 0-6 4.5V281zm44.5 66.5q5.5-3.5 0-6.5l-15.5-9q-5-2.5-6 3l-2.5 23.5q-.5 2.5.75 3t3.25-.5zm5-13.5q5 3.5 8-2l72-125q1-2 .5-4.5t-3-3.5l-15.5-9q-2-1-4.5-.5t-3.5 3L113.5 317q-3.5 5 2 8.5zm119.5-48l-22-52H213l-33.5 52h71zm24 8.5q4.5 2.5 7 1.75T287 294q3.5-1 7-5t1-9.5q-1.5-2.5-7.5-13.5T274 240.75t-15.25-28.5T245.5 189q-5.5-8.5-11.75-19.25T222 149.5t-10-15.25-6.5-4.75q-3 1.5-.75 10.25T211.5 160t9.75 23 8.25 18.5 9.5 22 13.75 30.25 13.25 27.5 8.5 13.25zm20 32.5q3.5 5 9.5 2.5l6-4q2.5-1 3.25-3.75t-.75-5.25l-7.5-14q-1-2.5-3.5-3.25t-5 .25l-9 4.5q-2.5 1-3 3.5t1 5zm34.5 39q1-13-1-22-1.5-7.5-6.5-11.75t-15 1.25q-1.5 1.5-3.75 5.5t2.75 11q2.5 3.5 6.25 5.5T319 359t6.25 3 3.75 4zm14-127.5q0-4.5-6-4.5h-52.5l26.5 52h26q6 0 6-5v-42.5z"/></svg>