<svg xmlns="http://www.w3.org/2000/svg" viewBox="0 0 425 512"><path d="M317 51q21.5 0 40.5 8.25t33.25 22.5 22.5 33.25 8.25 40.5v209q0 21.5-8.25 40.75t-22.5 33.5-33.25 22.5-40.5 8.25H107.5q-21.5 0-40.5-8.25t-33.25-22.5-22.5-33.5T3 364.5v-209Q3 134 11.25 115t22.5-33.25T67 59.25 107.5 51H317zM212.5 391q27 0 50.75-10.25t41.5-28 28-41.75T343 260t-10.25-50.75-28-41.5-41.5-28-50.75-10.25-51 10.25-41.75 28-28 41.5T81.5 260t10.25 51 28 41.75 41.75 28 51 10.25zm0-248.5q24 0 45.5 9.25T295.5 177t25.25 37.25T330 260t-9.25 46-25.25 37.5-37.5 25.25-45.5 9.25q-24.5 0-46-9.25T129 343.5 103.75 306t-9.25-46 9.25-45.75T129 177t37.5-25.25 46-9.25zm-40 57.5h.5v90q0-1-4.25-1.25t-7.25.25q-9.5 1-15.75 8.75T140.5 315q1 10 7.75 16t16.75 5q9-1 15-7.75t5.5-15.75h.5V230l65.5-15v62.5q0-1-4.25-1.25t-7.25.25q-9.5 1-15.75 8.5T219 302.5q1 9.5 8 15.5t16.5 5q9-1 15-7.75t6-15.75v-118z"/></svg>