<svg xmlns="http://www.w3.org/2000/svg" viewBox="0 0 425 512"><path d="M317 51q21.5 0 40.5 8.25t33.25 22.5 22.5 33.25 8.25 40.5v209q0 21.5-8.25 40.75t-22.5 33.5-33.25 22.5-40.5 8.25H107.5q-21.5 0-40.5-8.25t-33.25-22.5-22.5-33.5T3 364.5v-209Q3 134 11.25 115t22.5-33.25T67 59.25 107.5 51H317zm-26.5 277q-19 11.5-37.5 11.5-10.5 0-18.5-4.5-6.5-4-9-10.5-1-3-.5-9t.5-16.5v-65h52v-39.5h-52v-52h-38q-2 17.5-8.5 30-6.5 12-17 20-5.5 4.5-13.25 7.5T134 205.5V234h39v87.5q0 13 1.5 22.75t10 17.75q4 4 9.75 6.75t12.25 4.75q7 2.5 12.75 3.5t14.25 1q15 0 28-3 7-1.5 14-4t15-6v-37z"/></svg>