<svg xmlns="http://www.w3.org/2000/svg" viewBox="0 0 425 512"><path d="M317 51q21.5 0 40.5 8.25t33.25 22.5 22.5 33.25 8.25 40.5v209q0 21.5-8.25 40.75t-22.5 33.5-33.25 22.5-40.5 8.25H107.5q-21.5 0-40.5-8.25t-33.25-22.5-22.5-33.5T3 364.5v-209Q3 134 11.25 115t22.5-33.25T67 59.25 107.5 51H317zm-17.5 287.5q9 0 17-4.75t13.75-12.25 9.25-16.25T343 289q0-15.5-10-23t-20.5-11q1-3.5 1.5-7t.5-7.5q0-12-5-22.75T296 199t-19.75-12.75T252 181.5q-21 0-37.25 11.75T192.5 223Q182 210 166 210q-15 0-25.75 12t-10.75 29v2.5q-1.5-.5-3.25-.5H123q-6 0-13.25 2t-13.5 6.5-10.5 11.25T81.5 289q0 9 3.5 18t9.25 16T108 334.25t17 4.25h174.5z"/></svg>