<svg xmlns="http://www.w3.org/2000/svg" viewBox="0 0 425 512"><path d="M317 51q21.5 0 40.5 8.25t33.25 22.5 22.5 33.25 8.25 40.5v209q0 21.5-8.25 40.75t-22.5 33.5-33.25 22.5-40.5 8.25H107.5q-21.5 0-40.5-8.25t-33.25-22.5-22.5-33.5T3 364.5v-209Q3 134 11.25 115t22.5-33.25T67 59.25 107.5 51H317zm-14.5 274.5q22 0 31.25-13.75T343 280q0-18.5-9.25-32t-31.25-13.5q-11.5 0-20 4.75T268 249.5q-7 6.5-12 15-5-8.5-11.5-15-5.5-5.5-14.25-10.25t-20.75-4.75-19.5 4.25-11.5 9.25q-5 6-7 13.5-2.5-6.5-7.5-12-4-4.5-10.75-8.25t-16.75-3.75q-6.5 0-11.25 1.5t-8.25 3q-4 2-6.5 4.5l6-27.5h52v-24.5H99l-14.5 73h26q2-3.5 5-6 2.5-2.5 6.25-4.25t9.25-1.75q11 0 15.75 7.5t4.75 17q0 9-7.5 16.5t-16 7.5q-7 0-10.75-2.75T111 295q-2.5-4-3.5-9h-26q2 11 7.5 20 4.5 7.5 13 13.5t23 6 23.25-3.75 14.25-8.25q6-5.5 9-12.5 2 7 7 12.5 4 4.5 11.5 8.25t19.5 3.75 20.75-4 14.25-9.5q6.5-6 11.5-14 5 8 12 14 6 5.5 14.5 9.5t20 4zm-3-67q11 0 17 6t6 15.5q0 9-6 15t-17 6q-5.5 0-10.75-3.25t-9.25-7.25q-5-4.5-9-10.5 4-5.5 9-10.5 4-4 9.25-7.5t10.75-3.5zm-87 0q5.5 0 10.75 3.5t9.25 7.5q5 5 9 10.5-4 6-9 10.5-4 4-9.25 7.25T212.5 301q-11.5 0-17.5-6t-6-15q0-9.5 6-15.5t17.5-6z"/></svg>