<svg xmlns="http://www.w3.org/2000/svg" viewBox="0 0 425 512"><path d="M317 51q21.5 0 40.5 8.25t33.25 22.5 22.5 33.25 8.25 40.5v209q0 21.5-8.25 40.75t-22.5 33.5-33.25 22.5-40.5 8.25H107.5q-21.5 0-40.5-8.25t-33.25-22.5-22.5-33.5T3 364.5v-209Q3 134 11.25 115t22.5-33.25T67 59.25 107.5 51H317zm-91.5 227.5V227l30.5-22.5q5 2.5 9.5 2.5 7.5 0 12.75-5.5t5.25-13-5.25-13T265 170q-7.5 0-13 5.5t-5.5 13q0 1 .5 1.25t.5 1.25l-22 16.5v-78H199v41L177 154q0-1 .25-1.75t.25-1.75q0-7.5-5.25-13T159 132q-7.5 0-13 5.5t-5.5 13q0 8 5.5 13.25t13 5.25q5 0 8.5-2l31.5 23v51.5L177 225q0-1 .25-1.5t.25-1.5q0-7.5-5.25-13T159 203.5q-7.5 0-13 5.5t-5.5 13 5.5 13 13 5.5q4.5 0 8.5-2.5l31.5 23.5V316l-22-16.5q0-1 .25-1.5t.25-1.5q0-7.5-5.25-13T159 278q-7.5 0-13 5.5t-5.5 13q0 8 5.5 13.25t13 5.25q4 0 9-2.5l31 23.5v55h26.5v-18.5L256 350q3.5 3 9.5 3 7.5 0 12.75-5.5t5.25-13q0-8-5.25-13.25T265 316q-7.5 0-13 5.25t-5.5 13.25q0 .5.5 1t.5 1l-22 16.5v-55l30.5-22.5q4.5 3 9.5 3 7.5 0 12.75-5.5t5.25-13q0-8-5.25-13.25T265 241.5q-7.5 0-13 5.25T246.5 260q0 .5.5 1t.5 1z"/></svg>