<svg xmlns="http://www.w3.org/2000/svg" viewBox="0 0 425 512"><path d="M317 51q21.5 0 40.5 8.25t33.25 22.5 22.5 33.25 8.25 40.5v209q0 21.5-8.25 40.75t-22.5 33.5-33.25 22.5-40.5 8.25H107.5q-21.5 0-40.5-8.25t-33.25-22.5-22.5-33.5T3 364.5v-209Q3 134 11.25 115t22.5-33.25T67 59.25 107.5 51H317zM97 161.5q-7 4.5-7 12 0 6 4.25 10.25T104.5 188q1 0 1.5-.25t1.5-.25q24-9.5 49.25-14.5t52.25-5 52.25 5T310 187.5q1 0 1.75.25t1.75.25q6 0 10-4.25t4-10.25q0-9-8-12-25.5-10-53.25-15.5T209 140.5q-30 0-58 5.5t-54 15.5zM209 214q24 0 46.75 5t43.75 14q1 0 1.25.25t1.25.25q2.5 0 4.5-1.25t3.5-2.75l1.5-6q0-4.5-3-7-23-10-47.75-15.5T209 195.5t-51.75 5.5-47.75 15.5q-3.5 3.5-3.5 7l2 5.5q2.5 4 7.5 4 2.5 0 3.5-.5 42.5-18.5 90-18.5zm86.5 58q2-4 0-7.75t-5-4.75q-18.5-9.5-39-13.75T209 241.5q-44.5 0-83 18.5-1.5 1-3.5 3.75t0 7.75q2 5.5 5 6t5-.5q36.5-17 76.5-17 20 0 38.5 4.25t36 11.75q8.5 4 12-4zm13 108q10 0 18.75-3.75T343 366.5q-9-17.5-22.5-32t-30.25-24.75-36.25-16-40.5-5.75q-22 0-42 6t-37.25 17-30.75 26.5-22 34Q94 380 109 380h32q12.5-17 31.25-27t41.25-10 41.5 10 31 27h22.5z"/></svg>