<svg xmlns="http://www.w3.org/2000/svg" viewBox="0 0 425 512"><path d="M317 51q21.5 0 40.5 8.25t33.25 22.5 22.5 33.25 8.25 40.5v209q0 21.5-8.25 40.75t-22.5 33.5-33.25 22.5-40.5 8.25H107.5q-21.5 0-40.5-8.25t-33.25-22.5-22.5-33.5T3 364.5v-209Q3 134 11.25 115t22.5-33.25T67 59.25 107.5 51H317zM173 364.5l-65.5-65v39l-13 13L121 378l13-13.5h39zm81.5 0q0-30-11.75-56.75T211 261t-46.75-31.75-56.75-11.75V260q21 0 40.5 8t34 22.5 22.25 33.75T212 364.5h42.5zm75.5 0q0-45.5-17.5-86t-48-70.75-71-47.75-86-17.5V185q37 0 69.75 14.25t57.25 38.5 38.75 57 14.25 69.75H330z"/></svg>