<svg xmlns="http://www.w3.org/2000/svg" viewBox="0 0 425 512"><path d="M212.5 162q13 0 24.5 5t20 13.5 13.5 20 5 24.5-5 24.5-13.5 20-20 13.5-24.5 5-24.75-5-20.25-13.5-13.5-20-5-24.5 5-24.5 13.5-20 20.25-13.5 24.75-5zm0 98q14.5 0 24.5-10.25T247 225t-10-24.75T212.5 190t-24.75 10.25T177.5 225t10.25 24.75T212.5 260zM317 51q21.5 0 40.5 8.25t33.25 22.5 22.5 33.25 8.25 40.5v209q0 21.5-8.25 40.75t-22.5 33.5-33.25 22.5-40.5 8.25H107.5q-21.5 0-40.5-8.25t-33.25-22.5-22.5-33.5T3 364.5v-209Q3 134 11.25 115t22.5-33.25T67 59.25 107.5 51H317zm-86.5 256.5q14-3 26.25-10.75t21-18.75 13.75-24.5 5-28.5q0-17.5-6.5-32.75t-18-26.75-26.75-18.25-32.75-6.75-33 6.75-27 18.25-18 26.75T128 225q0 15 5 28.5t13.75 24.5 20.75 18.75T194 307.5l18.5 72z"/></svg>