<svg xmlns="http://www.w3.org/2000/svg" viewBox="0 0 425 512"><path d="M317 51q21.5 0 40.5 8.25t33.25 22.5 22.5 33.25 8.25 40.5v209q0 21.5-8.25 40.75t-22.5 33.5-33.25 22.5-40.5 8.25H107.5q-21.5 0-40.5-8.25t-33.25-22.5-22.5-33.5T3 364.5v-209Q3 134 11.25 115t22.5-33.25T67 59.25 107.5 51H317zm-125.5 81q-12 8.5-23.25 23.75t-20.25 34-14.5 38.75T128 266q0 24.5 6.25 44.25T151 344t25 21.75 31.5 7.75q16.5 0 32-7.25T267.25 347 287 320t7.5-31q0-18-4.5-31t-11.75-22.5T261.5 219t-20-13q3 16 .25 28.25t-10 20.25-17.5 11T192 265q11.5-19.5 14.5-32.75t1.25-23.5-6.25-18.25T193 174t-5.25-18.25T191.5 132zm21 256.5q24 0 45.5-4t37.5-11 25.25-16.25T330 337.5q0-9.5-7-17.5t-19.5-15q-4.5 14-14.25 26.5t-22.5 22-28 15-31.25 5.5q-30-.5-52-18.75t-32-51.25q-13.5 7-21.25 15.25T94.5 337.5q0 10.5 9.25 19.75T129 373.5t37.5 11 46 4zm-5-32q-17 .5-31.25-8t-21.5-24-5.25-37.25 18-48.25q-3.5 15-1.25 28t8 22.5T188 304.25t16.5 5.25q19 .5 30.75-15.75T252.5 254q15.5 12 19.75 29.25t-1.75 33.5-21.75 27.75-41.25 12z"/></svg>