<svg xmlns="http://www.w3.org/2000/svg" viewBox="0 0 425 512"><path d="M280.5 192.5q-7.5 0-13-5.5t-5.5-13.5q0-7.5 5.5-13t13-5.5 12.75 5.5 5.25 13q0 8-5.25 13.5t-12.75 5.5zm-160.5 45q-17.5 13.5-25 32-7.5-6.5-7.5-15.5 0-8.5 6.25-14.5t14.75-6q6.5 0 11.5 4zm83.5-9q20 0 38 5.25t31.25 14 21 20.75 7.75 25.5-7.75 25.25-21 20.75-31.25 14-38 5q-20.5 0-38.25-5t-31-14-21-20.75T105.5 294t7.75-25.5 21-20.75 31-14 38.25-5.25zm-54 46q0 6 4.25 10.5t10.25 4.5q6.5 0 10.75-4.5t4.25-10.5q0-6.5-4.25-11T164 259q-6 0-10.25 4.5t-4.25 11zm103 52q4.5-4.5 0-9t-9 0T229 325t-24 3q-14.5 0-24-3-10-3-14.5-7.5t-9 0 0 9q7 7.5 20 11 13 4 27.5 4t27.5-4q12.5-3.5 20-11zm-6.5-37q6.5 0 10.75-4.5t4.25-10.5q0-6.5-4.25-11T246 259q-6 0-10.25 4.5t-4.25 11q0 6 4.25 10.5t10.25 4.5zm56.5-56q9 0 15 6t6 14.5q0 12-10.5 17.5-6.5-18-24-32.5 5.5-5.5 13.5-5.5zM317 51q21.5 0 40.5 8.25t33.25 22.5 22.5 33.25 8.25 40.5v209q0 21.5-8.25 40.75t-22.5 33.5-33.25 22.5-40.5 8.25H107.5q-21.5 0-40.5-8.25t-33.25-22.5-22.5-33.5T3 364.5v-209Q3 134 11.25 115t22.5-33.25T67 59.25 107.5 51H317zm-.5 233q8.5-4 14-12t5.5-18q0-14-9.75-23.75t-23.75-9.75q-7 0-13.25 3T278.5 231q-14-8.5-31.25-13.75T210.5 211l6.5-46 32.5 7.5v1q0 13.5 9 22.75t22 9.25 21.75-9.25T311 173.5q0-13-8.75-22.25T280.5 142q-10 0-17.5 5.5t-11 14l-38.5-9q-2-.5-4.5 1-2 1-2 3.5l-8 54q-19.5.5-36.75 5.5T131 230q-9.5-9.5-22.5-9.5-14 0-23.75 9.75T75 254q0 9 4.5 16.5t11.5 12q-1.5 5.5-1.5 11.5 0 17.5 9 32.5t24.5 26.25 36.25 17.75 44.25 6.5 44.25-6.5T284 352.75t24.5-26.25 9-32.5q0-2.5-.25-5t-.75-5z"/></svg>