<svg xmlns="http://www.w3.org/2000/svg" viewBox="0 0 425 512"><path d="M317 51q21.5 0 40.5 8.25t33.25 22.5 22.5 33.25 8.25 40.5v209q0 21.5-8.25 40.75t-22.5 33.5-33.25 22.5-40.5 8.25H107.5q-21.5 0-40.5-8.25t-33.25-22.5-22.5-33.5T3 364.5v-209Q3 134 11.25 115t22.5-33.25T67 59.25 107.5 51H317zm-91.5 327q16 0 30.25-6.25t25-17 17-25T304 299.5q0-16.5-6.25-30.75t-17-24.75-25-16.75T225.5 221H199v39h26.5q16 0 27.5 11.5t11.5 28q0 16-11.5 27.5t-27.5 11.5q-16.5 0-28-11.5T186 299.5v-157h-39v157q0 16 6.25 30.25t16.75 25 24.75 17T225.5 378z"/></svg>