<svg xmlns="http://www.w3.org/2000/svg" viewBox="0 0 425 512"><path d="M223.5 153q26 0 42.25 20.25T282 225.5q0 34.5-16.25 54.75T222.5 300.5q-19 0-33.75-11.5T169 258.5q-1.5-6-1.5-14.5v-33q0-6 2-14 5-19.5 20-31.75t34-12.25zM317 51q21.5 0 40.5 8.25t33.25 22.5 22.5 33.25 8.25 40.5v209q0 21.5-8.25 40.75t-22.5 33.5-33.25 22.5-40.5 8.25H107.5q-21.5 0-40.5-8.25t-33.25-22.5-22.5-33.5T3 364.5v-209Q3 134 11.25 115t22.5-33.25T67 59.25 107.5 51H317zm-88.5 273q15.5 0 30.75-6t27.25-18.25T306 268.5t7.5-45q0-21-5.75-38.25t-16.25-29.5-25-19.25-32-7q-45 0-66 35.5l-1.5 1h-2.5l-2-32.5h-27q.5 13.5 1 28t.5 32V391h30.5v-95l.5-2h3l.5 1q8.5 13.5 23.5 21.25t33.5 7.75z"/></svg>