<svg xmlns="http://www.w3.org/2000/svg" viewBox="0 0 425 512"><path d="M317 51q21.5 0 40.5 8.25t33.25 22.5 22.5 33.25 8.25 40.5v209q0 21.5-8.25 40.75t-22.5 33.5-33.25 22.5-40.5 8.25H107.5q-21.5 0-40.5-8.25t-33.25-22.5-22.5-33.5T3 364.5v-209Q3 134 11.25 115t22.5-33.25T67 59.25 107.5 51H317zm-84.5 130q3 4.5 3.25 10t.25 11v4q-4.5.5-10 .75T215 208q-8.5 1-16.5 2.75t-15 5.25q-13.5 6-21.75 18t-8.25 29.5q0 22.5 12.25 33.75t29.75 11.25q10.5 0 19.5-2.5 14-4.5 26.5-18.5 4 5.5 6.5 9.25t9.5 9.75q4 1.5 7-.5 4-4 10.75-9.5T286 287q2.5-2.5.5-7.5-4-5.5-7.5-11.25t-3.5-15.75V207q0-14.5-1-27.25t-11-22.75q-8.5-8-20.5-11.25t-22-3.25h-6q-9 .5-18.25 3t-17 7.75-13.5 13.5T158.5 187q-1 3 .5 4.25t3 1.75l27.5 3.5q4-.5 5-5.5 1.5-8.5 7.5-12.5t13-5h2q4.5 0 8.75 1.75t6.75 5.75zM318 344q3.5-2.5 1.5-5.5t-6-1.5q-1.5 1-3.25 1.5T307 340q-23 9-46.25 13.5T215 358q-35.5 0-68.5-9.5t-61-26q-2.5-1.5-3.75.25T83 326.5q25.5 24 58.5 37.75T212 378q24 0 49-6.75t46-19.75q3-2 5.75-3.5t5.25-4zm25-19q0-3-1-5-2-2.5-12.75-3.5T307 319q-6.5 2.5-11.5 6-2 1-1.75 2.5T296 329q2.5-.5 5.25-.75t5.75-.75q7-1 13.75-.5t9.25 3q1.5 1.5.75 5.75t-2.25 9.5-3.25 10.25T322 364q-1 2 .5 2.5t3.5-1q8.5-7.5 12.5-19.5t4.5-19.5V325zm-148.5-66.5q0-12 6-18.25t14.5-8.75q5-1 10.25-1.5t10.75-.5v6q0 8.5-.5 15.75T231 266q-5.5 11-16 13.5-.5 0-1.5.25t-2 .25q-8.5 0-12.75-6t-4.25-15.5z"/></svg>