<svg xmlns="http://www.w3.org/2000/svg" viewBox="0 0 425 512"><path d="M317 51q21.5 0 40.5 8.25t33.25 22.5 22.5 33.25 8.25 40.5v209q0 21.5-8.25 40.75t-22.5 33.5-33.25 22.5-40.5 8.25H107.5q-21.5 0-40.5-8.25t-33.25-22.5-22.5-33.5T3 364.5v-209Q3 134 11.25 115t22.5-33.25T67 59.25 107.5 51H317zm-92 109.5q-6 6.5-10.25 16.25T212 196.5q10 1 19.5-4t16-12.5 10.25-17.5 2.25-20q-9 .5-18.75 5.5T225 160.5zm68.5 188Q302 336 306 326t4.5-11l-5.25-2.5-11.25-8-11-14.5-5-22.5q0-11 3.75-19.5t8.75-14 9-8.25 4.5-3.25q-5.5-7.5-11.75-12t-12.5-7-11.5-3.25-8.25-.75q-7-.5-13.75 1T233.5 204t-11 4-8.5 2-8-1.75-9.75-3.5-10.75-3.25T174 200q-15.5 0-28.5 8t-21 21.5T115 259t1.25 32.25 9.25 31 14 25.75q3.5 5.5 7.75 11t9 9.75 10 6.75 11.25 2q6 0 10.25-1.5t8.5-3.25 9-3.25T217 368t11.75 1.5 9 3.25 8.75 3.25 10.5 1.5q12-.5 20.5-9.25t16-19.75z"/></svg>