<svg xmlns="http://www.w3.org/2000/svg" viewBox="0 0 425 512"><path d="M317 51q21.5 0 40.5 8.25t33.25 22.5 22.5 33.25 8.25 40.5v209q0 21.5-8.25 40.75t-22.5 33.5-33.25 22.5-40.5 8.25H107.5q-21.5 0-40.5-8.25t-33.25-22.5-22.5-33.5T3 364.5v-209Q3 134 11.25 115t22.5-33.25T67 59.25 107.5 51H317zM122.5 235.5q21-8 39.5-8 13 0 23.25 4.25T203.5 241l21.5-72.5q-3.5-2-11-5.75t-14-5.25q-7.5-2-17.5-2-9 .5-18.75 2.5t-21.25 6.5zm10.5 89q14 0 24.25 4.25T176 338.5q2-6.5 5.25-17t6.25-21.5 5.75-20.5 4.25-14.5q-2-1-4-2.5t-4-2.5q-17-8.5-32-8.5-2.5 0-4 .5-10 1-18.25 2.75T121.5 259l-3 1-3.5 1-20.5 71.5q21-8 38.5-8zm168.5-39q-19.5 6.5-38 6.5-17 0-28.5-4.25T216 278l-21 72q2.5 1.5 7.25 3.75T213 358.5t12.5 4.25 12.5 1.75q19.5 0 44-10zm28.5-97q-20.5 7.5-39.5 7.5-16 0-27.5-4.25T244 182l-21 72.5q20.5 14 45.5 14 20.5 0 40-9.5v-.5h1z"/></svg>