<svg xmlns="http://www.w3.org/2000/svg" viewBox="0 0 425 512"><path d="M317 51q21.5 0 40.5 8.25t33.25 22.5 22.5 33.25 8.25 40.5v209q0 21.5-8.25 40.75t-22.5 33.5-33.25 22.5-40.5 8.25H107.5q-21.5 0-40.5-8.25t-33.25-22.5-22.5-33.5T3 364.5v-209Q3 134 11.25 115t22.5-33.25T67 59.25 107.5 51H317zm1 283.5q12-16.5 12-41.5 0-10-2.75-18.75T320 258q-4-7.5-11.5-12.5t-16-8l28-57.5v-11.5H244L213 280l-31.5-111.5H159l10.5 36.5-21 75L117 168.5H94.5l52 173.5h2l32-113L213 342h2l44.5-153H298l-36.5 57v4h15q8.5 0 14.25 4.25t9.75 9.75q3.5 4.5 5.25 12.5t1.75 16.5q0 14-6.5 25.5-6 10.5-15.5 10.5-8.5 0-14.5-6-6.5-6-10.5-16l-17.5 7.5q5 17.5 16.5 27 10.5 10 26 10 20 0 32.5-17z"/></svg>