<svg xmlns="http://www.w3.org/2000/svg" viewBox="0 0 425 512"><path d="M317 51q21.5 0 40.5 8.25t33.25 22.5 22.5 33.25 8.25 40.5v209q0 21.5-8.25 40.75t-22.5 33.5-33.25 22.5-40.5 8.25H107.5q-21.5 0-40.5-8.25t-33.25-22.5-22.5-33.5T3 364.5v-209Q3 134 11.25 115t22.5-33.25T67 59.25 107.5 51H317zM212.5 378q24 0 45.5-6.5t37.5-18 25.25-26.5 9.25-32.5q0-17-9.25-32.25t-25.25-26.5T258 218t-45.5-6.5q-10.5 0-20 1t-18.75 4-19 8T134 237v-94.5H94.5V297h.5q.5 16.5 10 31.25T130.25 354t37 17.5 45.25 6.5zm0-139q15.5 0 29 4.5t23.5 12 16 17.5 6 21.5-6 21.75T265 334t-23.5 11.75-29 4.25-29.25-4.25T159.5 334t-16-17.75-6-21.75 6-21.5 16-17.5 23.75-12 29.25-4.5zm0 91q10 0 19-2.75t15.75-7.75T258 308t4-14q0-15.5-14.5-26t-35-10.5q-21 0-35.5 10.5t-14.5 26q0 7.5 4 14t10.75 11.5 15.75 7.75 19.5 2.75z"/></svg>