<svg xmlns="http://www.w3.org/2000/svg" viewBox="0 0 425 512"><path d="M317 51q21.5 0 40.5 8.25t33.25 22.5 22.5 33.25 8.25 40.5v209q0 21.5-8.25 40.75t-22.5 33.5-33.25 22.5-40.5 8.25H107.5q-21.5 0-40.5-8.25t-33.25-22.5-22.5-33.5T3 364.5v-209Q3 134 11.25 115t22.5-33.25T67 59.25 107.5 51H317zm-8.5 118H274q-13.5 0-24.75 7.5t-18.25 19V169h-34.5q-10.5 0-19.75 4.5T160.5 186t-11 18.25-4 22.25V249h-38v38h38v91.5h38V287H223v91.5h38V287h38v-38h-38v-22.5q0-8.5 4.25-13.75t8.75-5.25h34.5V169zM226 207.5q-3 9-3 19V249h-39.5v-22.5q0-8.5 4.25-13.75t8.75-5.25H226z"/></svg>