<svg xmlns="http://www.w3.org/2000/svg" viewBox="0 0 425 512"><path d="M317 51q21.5 0 40.5 8.25t33.25 22.5 22.5 33.25 8.25 40.5v209q0 21.5-8.25 40.75t-22.5 33.5-33.25 22.5-40.5 8.25H107.5q-21.5 0-40.5-8.25t-33.25-22.5-22.5-33.5T3 364.5v-209Q3 134 11.25 115t22.5-33.25T67 59.25 107.5 51H317zm26 117.5h-39v131q-1 3-5.25 7.5t-6.75 5.5h-17q-2.5-.5-6.25-4.5t-4.25-6.5V241q0-5-1.5-13t-6.75-15.5T241 199.75t-27-5.25h-73q-9.5 0-17.5 4.75t-13.75 12-9 15.75-3.25 16q0 8.5 3.25 14.75T108.5 269t9.75 8.5 9.25 6L160 296q4 3 6.5 7.25T170 310q-1 1-2 1.75t-2.5.75h-84v39h84q9 0 16.75-3.25t13.75-9 9.5-13T209 311q0-13-8.5-27.25T179 262l-32.5-13q-4.5-2.5-6.5-4.25t-3-2.75q1-2.5 2.5-4.75T142 234h72q5.5 0 8.5 1 1.5.5 2 .5 0 .5.5 1.75t.5 3.75v60.5q0 9 4.25 18t11.5 16.25 16 11.5T275 351.5h17q9 0 18-4.75t16.5-12 12-16.5T343 300V168.5z"/></svg>