<svg xmlns="http://www.w3.org/2000/svg" viewBox="0 0 425 512"><path d="M305.5 259.5q0 5-.75 10.25T304 280.5q0 14.5-5 28.75T284 336q-11.5 15-28.5 23t-41.5 9q-28.5-1-49.25-14.75T134 313.5q0-3.5-3.75-6.75T125 300q1-1 1.25-1.5t1.25-1.5v-.5q2.5-2.5 2.75-6.25t1.25-9.25q1-9 3.5-22.75T147.5 231q8.5-11.5 19.75-21.5T189.5 190q10.5-8.5 19-16.5T222 158q9.5 7.5 21.5 18t22.5 22.5 18.25 24.5 9.25 24l3 24zM285 324q7-9 11.25-19.5t6.75-21l-6.5 8-3-24q-1.5-11.5-9.25-24T266 219t-22.5-22.25T222 179q-5 7.5-13.5 15.25t-19 16.25q-11 9.5-22.25 19.75T147.5 252q-10 13-12.75 26.75T131 301.5q0 2-.5 2.5 27.5 50 81.5 52 49.5-1.5 73-32zm32-273q21.5 0 40.5 8.25t33.25 22.5 22.5 33.25 8.25 40.5v209q0 21.5-8.25 40.75t-22.5 33.5-33.25 22.5-40.5 8.25H107.5q-21.5 0-40.5-8.25t-33.25-22.5-22.5-33.5T3 364.5v-209Q3 134 11.25 115t22.5-33.25T67 59.25 107.5 51H317zM212 378q34.5-1 55.5-13.75t32-30.75 14.25-38.5 3-37.5-2.5-27.25-1.75-7.75q1 4-.25 8T309 238q-2 4-5 8-2.5-17.5-16-36t-29.5-33.5q-18.5-17.5-41-34-.5 8-9.25 17t-20.75 19.25T162 200.5t-23 25q-8 11-11.5 22.25t-5 20.75-2 15.75T118 291q-3.5 1.5-7-1-2-1-3.5-3 9 30.5 22.75 48.5T159 362.75t29.25 12T212 378z"/></svg>