<svg xmlns="http://www.w3.org/2000/svg" viewBox="0 0 425 512"><path d="M255.5 194.5q16 11 25.5 28t9.5 37.5q0 21-9.5 38t-25.5 27.5q-3 2.5-9 5-.5.5-.75.5t-.75.5q-2.5 1-4.75 1.75T235.5 335h-.5q-5.5 2-9.5 2.5H223q-2.5 1-5.25 1h-11l-5.25-1H199q-4-.5-9.5-2.5h-.5q-2.5-1-4.75-1.75t-4.75-1.75q-.5-.5-.75-.5t-.75-.5q-4-2-9-5-16-10.5-25.5-27.5t-9.5-38q0-20.5 9.5-37.5t25.5-28q2.5-1 4.5-2.25t4.5-2.75q.5 0 .75-.25t.75-.25q5-2.5 9.5-4h.5q2.5-1 4.75-1.25T199 183q1-.5 2.5-.5 2.5-.5 5.25-.75t5.75-.25q2.5 0 5.25.25t5.25.75q1.5 0 2.5.5 2.5.5 4.75.75T235 185h.5q4.5 1.5 9.5 4 .5 0 .75.25t.75.25q2.5 1.5 4.75 2.75t4.25 2.25zm22 65.5q0-13.5-5-25.5t-14-20.75-20.75-14-25.25-5.25V208q10.5 0 20 4t16.75 11 11.25 16.5 4 20.5h13zM317 51q21.5 0 40.5 8.25t33.25 22.5 22.5 33.25 8.25 40.5v209q0 21.5-8.25 40.75t-22.5 33.5-33.25 22.5-40.5 8.25H107.5q-21.5 0-40.5-8.25t-33.25-22.5-22.5-33.5T3 364.5v-209Q3 134 11.25 115t22.5-33.25T67 59.25 107.5 51H317zm26 143.5q0-5.5-3.75-9.25T330 181.5h-71q-10-6-21.75-9.5t-24.75-3.5-25 3.5-22 9.5H147q0-5.5-3.75-9.25T134 168.5h-26.5q-5.5 0-9.25 3.75t-3.75 9.25q-5.5 0-9.25 3.75t-3.75 9.25v131q0 5.5 3.75 9.25t9.25 3.75h71q20.5 13 47 13 26 0 46.5-13h71q5.5 0 9.25-3.75t3.75-9.25v-131zm-194.5 0q-13 13-20.25 29.75T121 260t7.25 36 20.25 29.5h-54v-131h54zm168.5 0h13v131h-54q13-12.5 20.5-29.5t7.5-36-7.5-35.75T276 194.5h41z"/></svg>