<svg xmlns="http://www.w3.org/2000/svg" viewBox="0 0 425 512"><path d="M317 51q21.5 0 40.5 8.25t33.25 22.5 22.5 33.25 8.25 40.5v209q0 21.5-8.25 40.75t-22.5 33.5-33.25 22.5-40.5 8.25H107.5q-21.5 0-40.5-8.25t-33.25-22.5-22.5-33.5T3 364.5v-209Q3 134 11.25 115t22.5-33.25T67 59.25 107.5 51H317zM121 378q10.5 0 18.25-7.75T147 351.5q0-10.5-7.75-18.25T121 325.5q-11 0-18.75 7.75T94.5 351.5q0 11 7.75 18.75T121 378zm117.5 0q0-30-11.25-56.25T196.5 276t-45.75-30.75T94.5 234v48q20 0 37.5 7.5t30.5 20.5 20.5 30.5 7.5 37.5h48zm91.5 0q0-48.5-18.5-91.5t-50.5-75-75-50.5-91.5-18.5v49q38.5 0 72.5 14.75t59.25 40 40 59.25T281 378h49z"/></svg>