<svg xmlns="http://www.w3.org/2000/svg" viewBox="0 0 425 512"><path d="M317 51q21.5 0 40.5 8.25t33.25 22.5 22.5 33.25 8.25 40.5v209q0 21.5-8.25 40.75t-22.5 33.5-33.25 22.5-40.5 8.25H107.5q-21.5 0-40.5-8.25t-33.25-22.5-22.5-33.5T3 364.5v-209Q3 134 11.25 115t22.5-33.25T67 59.25 107.5 51H317zm6.5 187q9-10 5.5-17.5t-17-7.5h-58l-28-58q-5.5-12.5-13.75-12.5T198.5 155l-28 58h-58q-14 0-17.25 7.5T101 238l.5.5 44.5 54-22.5 65.5q-4.5 13 1 17.75t18-1.25l70-35 69.5 35q12.5 6 18 1.25t1-17.75l-22.5-65.5 44.5-54z"/></svg>