<svg xmlns="http://www.w3.org/2000/svg" viewBox="0 0 425 512"><path d="M317 51q21.5 0 40.5 8.25t33.25 22.5 22.5 33.25 8.25 40.5v209q0 21.5-8.25 40.75t-22.5 33.5-33.25 22.5-40.5 8.25H107.5q-21.5 0-40.5-8.25t-33.25-22.5-22.5-33.5T3 364.5v-209Q3 134 11.25 115t22.5-33.25T67 59.25 107.5 51H317zm-34 278.5q20 0 33.5-11.75T330 288.5q0-17-8.75-25.5T294 249q-13.5-4.5-22.25-8.25T263 226q0-7.5 5.25-12.5t13.75-5q11.5 0 20 11l15-7.5q-11.5-20.5-34-20.5-17.5 0-27.75 9.75T245 227t10.25 24.25 31.25 15.25q11.5 4 18 7.75T311 288t-8 16.75-21 6.25q-13.5-.5-19-7t-10.5-17.5l-8-18-7.25-16.5-5.25-12.75-2.5-6.25q-9-21-25.75-32t-39.25-11q-14.5 0-27.25 5.5t-22.25 15-15 22.25T94.5 260t5.5 27.25 15 22.25 22.25 15 27.25 5.5q16.5 0 30.5-7t24-18.5l-9-21q-6.5 12.5-18.5 20t-27 7.5q-10.5 0-19.75-4t-16-11T118 279.75 114 260t4-19.75T128.75 224t16-11 19.75-4q16 0 28.75 8.5t18.25 22l22 51 3 5.5q7 16 17.5 24.75t29 8.75z"/></svg>