<svg xmlns="http://www.w3.org/2000/svg" viewBox="0 0 425 512"><path d="M317 51q21.5 0 40.5 8.25t33.25 22.5 22.5 33.25 8.25 40.5v209q0 21.5-8.25 40.75t-22.5 33.5-33.25 22.5-40.5 8.25H107.5q-21.5 0-40.5-8.25t-33.25-22.5-22.5-33.5T3 364.5v-209Q3 134 11.25 115t22.5-33.25T67 59.25 107.5 51H317zm-8.5 223.5q-12.5 24-37 41.25T215 337.5q-28.5 4-53.75-3t-43.75-23q15 18 37 28.5t48.5 10.5q19 0 36-5.75t31-16 24-24 14.5-30.25zm-45-24q-6.5 14.5-19.75 27.25T212 297.5q-16 6.5-31.5 7.5t-28.5-3q8.5 5.5 18.75 8.5t21.75 3q14.5 0 27.5-5t22.75-13.5T258 275t5.5-24.5zm-115-112q-3 7-1 13.5L195 265.5q2.5 7.5 5.5 11.5t4 4l3.5-1.5q1-.5 1.75-4.5t-1.25-12.5l-28.5-120q-1.5-5.5-6-9.25t-10-3.75q-3.5 0-5 .5-7.5 2.5-10.5 8.5zm61 252.5q27.5 0 51.75-11t42.5-29.75 28.75-44T343 252.5q0-8.5-1-16.25T339.5 221q0 2.5.25 5.5t.25 5.5q0 29.5-10.75 55.25T300 332t-43.25 30.25T204 373.5q-20.5 0-39-6t-34.5-16.75T102 325t-20.5-33q6 21.5 18.25 39.5T129 362.75t37.5 20.75 43 7.5z"/></svg>