<svg xmlns="http://www.w3.org/2000/svg" viewBox="0 0 425 512"><path d="M317 286h-13v-39h13v39zm0-235q21.5 0 40.5 8.25t33.25 22.5 22.5 33.25 8.25 40.5v209q0 21.5-8.25 40.75t-22.5 33.5-33.25 22.5-40.5 8.25H107.5q-21.5 0-40.5-8.25t-33.25-22.5-22.5-33.5T3 364.5v-209Q3 134 11.25 115t22.5-33.25T67 59.25 107.5 51H317zM147 181.5h-26V221H81.5v91.5H147v-131zm39 39.5h-26v91.5h26V221zm0-39.5h-26V208h26v-26.5zm78.5 39.5H199v91.5h39.5v13H199v26h65.5V221zm78.5 0h-65.5v91.5H317v13h-39.5v26H343V221zm-235.5 26H121v39h-13.5v-39zm131 39h-13v-39h13v39z"/></svg>