<svg xmlns="http://www.w3.org/2000/svg" viewBox="0 0 425 512"><path d="M242 244l34.5-28 4-1.5q9-4 18-2.5 8.5 1 11.5 7l1.5 4.5-.5 3.5q-3.5 9-16 14-2.5 1.5-5.25 2t-6.25 1l-41.5 5-.5-2.5-.5-1zm56.5 22q8.5 2.5 12.5 9.5 5 6.5 5 14.5l-1 6.5q-3 10-11.5 14.5-10 5-19 1.5-6.5-1.5-9-5.5L240 278l2-4.5 1-4 38.5-3.5 13.5-.5zm-107 24.5q2.5 1 5 2.25T202 294q.5 8.5 1.75 17.5t1.25 19V347q-4 10-12.5 13.5-8.5 5-18.5 2.5-10.5-3-14.5-11-3-5-3-11.5l1.5-7.5q.5-4 5-9.5zm61 27.5q2.5 4 3.75 8.25t.25 9.25q-1 9-6.5 12-3 2-8 1-9.5-2-15-14.5l-4-11-5-29 5.5-2 4.5-2 14 14 9 11zM219 191l-.5-13.5.5-3q1-5 4.5-8.75t8-6.25q9-5.5 19-1.5 10.5 2 15.5 11 2.5 5 2.5 11.5l-1 7q-2 5.5-5 10L232 234q-5-3.5-10-5.5zm-54.5 2q-2-4.5-3-8.75t-.5-8.75q1-9 7-12.5 3.5-2.5 7.5 0 9 2 15.5 14l2 5 2 5.5 6.5 39.5-5 1.5-30-32zM124 254.5q-8.5-1.5-12.5-9-4.5-6.5-1-14.5 4-10.5 13.5-14 9-5 19-3l9 4 29.5 21q-4.5 6-5.5 10l-48.5 6zm54.5 23q-4 3-7 6t-6 5.5l-10 8.5-3 1.5q-9 4.5-17.5 3.5-8-1-11-5l-1-3.5 1-3q2.5-8.5 13.5-13.5 3.5-1.5 5.75-2.5t4.75-1.5l27-5 2 6.5zm54-16q0 4.5-1.5 8.75t-5.5 7.25Q218 284 210 284q-9.5 0-16-6.5-6.5-6-6.5-16 0-9 6.5-15.5 7-6 16-6 9.5 0 15.5 6 7 6.5 7 15.5zM317 51q21.5 0 40.5 8.25t33.25 22.5 22.5 33.25 8.25 40.5v209q0 21.5-8.25 40.75t-22.5 33.5-33.25 22.5-40.5 8.25H107.5q-21.5 0-40.5-8.25t-33.25-22.5-22.5-33.5T3 364.5v-209Q3 134 11.25 115t22.5-33.25T67 59.25 107.5 51H317zm11.5 249.5q4-16-3-29l-2-2.5q-2-3-4.25-5.75T314 258.5q-2.5-2-5.5-3.25t-5.5-2.75q8-4 13.5-8.75t8-11.75q2-5.5.5-10.25t-1.5-9.25v-.5q-7.5-5-9.75-8.25T305 198.5q-4-1-8-1t-8 .5l-11.5 2.5 4-8.5q5-15.5-3.5-30.5l-1-1.5q-7-12-22.5-16-16-4.5-30 3-7 4-13.25 9.75T205 170v2.5l-1.5-2-3.5-6q-7.5-12.5-20.5-15.5-10-2.5-20 2-10.5 6.5-12.5 20.5-3 14 5 28l2.5 3.5-8.5-2.5q-14.5-3.5-29 4-14 6.5-20 21.5-5.5 14.5 1.5 26.5 3 5 8 8.5 6 6 15 7.5l2.5.5-5 4.5q-4 3-6 6.25t-3.5 7.25q-2.5 9.5 2.5 18 2.5 4.5 6 6.5 2.5 1.5 4.75 2.75t5.25 1.25q11.5 3 24-.5l-6 9.5-2 4.5q-5 14.5 3 29.5 1.5 2.5 3.5 5l4 5q6 5.5 15.5 7.5 15.5 4.5 30-2.5 14-7 18.5-23l.5-2q10 10.5 19 13.5 11 3 19.5-2.5 9-5 12-16 2-10.5 0-23 5 3.5 11 5 15.5 5 29.5-2 14-8 18.5-23z"/></svg>