<svg xmlns="http://www.w3.org/2000/svg" viewBox="0 0 425 512"><path d="M206 316.5q13 0 22.25 6.25t9.25 14.75q0 9-9.25 15.25T206 359q-13.5 0-22.75-6.25T174 337.5q0-8.5 9.25-14.75T206 316.5zm-4-89q-11.5 0-19.75-8T174 200t8.25-19.5 19.75-8 19.5 8 8 19.5-8 19.5-19.5 8zM317 51q21.5 0 40.5 8.25t33.25 22.5 22.5 33.25 8.25 40.5v209q0 21.5-8.25 40.75t-22.5 33.5-33.25 22.5-40.5 8.25H107.5q-21.5 0-40.5-8.25t-33.25-22.5-22.5-33.5T3 364.5v-209Q3 134 11.25 115t22.5-33.25T67 59.25 107.5 51H317zM205.5 393q15 0 28-4.5t22.75-12 15.5-17.5 5.75-21.5q0-11-5.5-21T256.75 299 234 287t-28-4.5q-1.5 0-3 .25t-3 .25q-1-2.5-1.5-5.75T198 271q0-3.5.5-7.75T200 259h2q12.5 0 23.25-4.75T244 241.5t12.75-18.75T261.5 200q0-5.5-2.25-12.25T254 178l20.5-11.5v-39l-43 23.5q-7-5-14.5-7.5t-17-2.5q-12.5 0-23.25 4.75T158 158.5t-12.5 18.75T141 200q0 14 6.25 25.75t16.25 19.75q-6 12-6 25.5 0 6 1.25 11.75T162.5 294q-13 7.5-20.75 19T134 337.5q0 11.5 5.5 21.5t15.25 17.5 22.75 12 28 4.5z"/></svg>