<svg xmlns="http://www.w3.org/2000/svg" viewBox="0 0 425 512"><path d="M317 51q21.5 0 40.5 8.25t33.25 22.5 22.5 33.25 8.25 40.5v209q0 21.5-8.25 40.75t-22.5 33.5-33.25 22.5-40.5 8.25H107.5q-21.5 0-40.5-8.25t-33.25-22.5-22.5-33.5T3 364.5v-209Q3 134 11.25 115t22.5-33.25T67 59.25 107.5 51H317zM199 325.5q-10 0-18-8t-8-18V260h104.5q10 0 18.25-8t8.25-18-8.25-18-18.25-8H173v-39.5q0-10-8-18t-18-8-18 8-8 18v131q0 19.5 6.75 34.25t17.75 24.5 25 14.75 28.5 5h78.5q10 0 18.25-8.25T304 351.5t-8.25-18-18.25-8H199z"/></svg>