<svg xmlns="http://www.w3.org/2000/svg" viewBox="0 0 425 512"><path d="M317 51q21.5 0 40.5 8.25t33.25 22.5 22.5 33.25 8.25 40.5v209q0 21.5-8.25 40.75t-22.5 33.5-33.25 22.5-40.5 8.25H107.5q-21.5 0-40.5-8.25t-33.25-22.5-22.5-33.5T3 364.5v-209Q3 134 11.25 115t22.5-33.25T67 59.25 107.5 51H317zM180.5 241q0 11.5 7.5 18 7 6.5 20 6.5 13.5 0 20.5-6.5 7.5-6 7.5-18v-46q0-9.5-7.5-16.5-7-6.5-19.5-6.5-13 0-20.5 6-8 6-8 16.5V241zm-27 24.5h-59v16h20v94h19v-94h20v-16zm.5-52l25-71h-22L144 191h-1.5l-14-48.5H107l25.5 73v48H154v-50zm55.5 81h-17V356q-1 1.5-2.5 2.5l-3 2q-3 1.5-4.5 1.5-2.5 0-3.5-1t-1-4.5v-62h-17v68q0 7 3 10.5 3 4 8.5 4 4.5 0 10-3 4.5-2 10-7.5v9h17v-81zM271 314q0-10-4.5-15.5-3.5-5-12-5-4.5 0-8 2-4 1.5-7 5.5v-35.5H222v110h17.5v-6q1.5 2 3.25 3.25t3.75 2.25q3.5 1.5 9 1.5 7.5 0 11.5-4.5 4-5 4-13v-45zm-6-49.5q6 0 11-2.5t11-8.5v10h19V174h-19v68q-2 2.5-6 5-3 1.5-5 1.5-3.5 0-4-1.5-1.5-1.5-1.5-4.5V174h-19v75q0 8 3.5 11.5 2.5 4 10 4zm65 52q0-12-6.5-18-6-6-18-6-11.5 0-18.5 6.5-7 7-7 17.5v36q0 12 6.5 18.5 7 7 18 7 12.5 0 19-6.5 6.5-6 6.5-19v-4h-17.5v3.5q0 7.5-1.5 9.5-2 2-6 2-5 0-6-2.5-1.5-2-1.5-9v-15H330v-20.5zm-25-10q4 0 5.5 2.5 2 2 2 7v8.5h-15V316q0-4.5 1.5-7 2.5-2.5 6-2.5zm-58.5 0q3.5 0 5 2 2 2 2 6v42q0 4-1.5 5.5-1.5 2-4.5 2-2 0-4-1-2.5-1-4-3v-50.5q2-2 3.5-2.5 1-.5 3.5-.5zM208 250q-4 0-5.5-2-2.5-1.5-2.5-5.5V194q0-2.5 2.5-5 2-1.5 5.5-1.5t6.5 1.5q2 2 2 5v48.5q0 4-2 5.5-2 2-6.5 2z"/></svg>