<svg xmlns="http://www.w3.org/2000/svg" viewBox="0 0 425 512"><path d="M317 51q21.5 0 40.5 8.25t33.25 22.5 22.5 33.25 8.25 40.5v209q0 21.5-8.25 40.75t-22.5 33.5-33.25 22.5-40.5 8.25H107.5q-21.5 0-40.5-8.25t-33.25-22.5-22.5-33.5T3 364.5v-209Q3 134 11.25 115t22.5-33.25T67 59.25 107.5 51H317zm0 261.5h-7.5q-5.5 10-11.25 20t-11.25 16q-4.5 4.5-9 7.75t-9 4.75q-5 1.5-12.5 2.5t-18 1h-41q-11 0-15-2.5-4.5-2.5-6-6.5-1-2-2.25-7.25T173 334v-74h58q15 0 22.5 4.5 7.5 4 10.5 10.5 1.5 3 2.75 8.75T269 299.5h8.5V208H269q-.5 10-3 18.75t-7.5 12.75Q251 247 231 247h-58v-91.5h71q19 0 25.5 2.5 9 4 13.5 11 2.5 4 4.5 9.75t4 15.75h7l-2.5-52H107.5v13h9q7.5 0 14 .5t9.5 4.5q2.5 2.5 4.75 8.75T147 188v143.5q0 10-1.75 15.5t-2.75 8.5-4 4.5l-6 3q-4 2.5-8 2t-8-.5h-9V378H296z"/></svg>