<svg xmlns="http://www.w3.org/2000/svg" viewBox="0 0 425 512"><path d="M241.5 330.5q0 13.5 7 26-1.5 1.5-3 3.25t-3 3.25q-20 20.5-50 20.5-28.5 0-50.5-16-22.5-17-33.5-48.5l.5-.5q-1-4-1-7 0-11.5 7.5-19.25t18.5-7.75 18.5 7.75 7.5 19.25-8 19.5q15.5 18.5 39.5 18.5 17 0 28.5-10.5 11-10.5 11-26.5 0-9.5-6-19.5-3-4.5-6.5-8.5t-8-7q-8-6-28-14.5-19.5-8.5-29.5-15-5.5-3.5-9.75-7.5T135 232t-6.5-9.25-4.5-9.25q-1.5-4.5-2.5-9.5t-1-10.5q0-25 20-43 19.5-18 47.5-18 18 0 38 8.5 15 6.5 27 20 9 8 9 20 0 11.5-7.5 19.5t-18.5 8-18.5-8T210 181q0-6.5 2-11-8-4-21-4-17.5 0-27.5 8-10.5 7.5-10.5 20 0 10.5 9.5 19 9 8 31 18 22.5 10 34 18 6.5 4 11.25 8.75t8.75 9.75q8.5 10.5 12 21.5 0 1 .5 1.5-8.5 7-13.5 17.25t-5 22.75zm75.5 0q0 13-8.75 22t-21.25 9q-13 0-21.75-9t-8.75-22 8.75-22.25T287 299q12.5 0 21.25 9.25T317 330.5z"/></svg>