<svg xmlns="http://www.w3.org/2000/svg" viewBox="0 0 425 512"><path d="M252 359.5q-10.5 0-17.75-2.75t-11.75-6.5-6.25-7.5-1.75-6.25V259q0-4 8.25-6t15.75-2H280q2 0 9.25-2.25t15.75-5.5 16.25-7.25 11.25-8q5-5.5 8-5.5 1 0 2 1 .5 1 .5 4t-4 11q-5.5 11.5-15.75 17.75T301.5 268.5q-3.5 1.5-6.75 3T288 275l-.5.5V319q0 2-1.5 8.5t-5.5 13.75-11 12.75-17.5 5.5zm.5-124.5q-11.5 0-19.75-8.5T224.5 206q0-12.5 8.25-21t19.75-8.5 19.75 8.5 8.25 21q0 12-8.25 20.5T252.5 235zm-72 117.5q-5 0-12-3.25T155.25 341t-10.75-11-4.5-11v-47.5h-1q-11-4-20-9-8-4-15.5-8.75T93 245l-2.5-2.5q-5.5-7-7.5-10.75t-.5-7.75q0-.5.5-.5 2.5 0 7.25 2.75t10.25 6.25q7 4.5 14.5 8.75t13.5 5.75q11 2.5 26.75 4t27.25 1.5h5.5q8.5 0 13.75 3.25t9.75 7.75q4 3.5 11.25 7.5t15.75 4q9 0 15-6 9.5-8.5 14-8.5l1 .5q.5 1 .5 3.25t-2.5 7.75q-4 9-16.5 16.75t-27 7.75q-9 0-17-4l-1.5-1v45q0 5-7 10.5t-17 5.5zM176 235q-11.5 0-20-8.5t-8.5-20.5q0-12.5 8.5-21t20-8.5 19.75 8.5 8.25 21q0 12-8.25 20.5T176 235z"/></svg>