<svg xmlns="http://www.w3.org/2000/svg" viewBox="0 0 425 512"><path d="M189 150q0 7-6.75 12.25t-16.75 5.25-17-5.25-7-12.25q0-7.5 7-12.75t17-5.25 16.75 5.25T189 150zm82.5-18q-10 0-16.75 5.25T248 150q0 7 6.75 12.25t16.75 5.25 16.75-5.25T295 150q0-7.5-6.75-12.75T271.5 132zm45.5 71H115.5q-2 .5-4 2t-3.75 4-4.25 7q-10.5 22-13 48.25t6.75 49.5 31.5 38.75T190 368q26 0 46.75-9.5t36.75-24.25 27.75-32.5 19-34T331 239t3.5-17q0-6.5-2.75-10.25T325.5 206q-4-2-8.5-3zM190 344.5q-8 0-17.25-1.25t-18.25-4.5-17-9T124 315q-6-10-8.5-21.75t-2-23.75 3.75-23 7.75-20h185q-1.5 6-5.5 17t-10.75 24-16.5 26.75-22.5 25-29 18.25-35.75 7z"/></svg>