<svg xmlns="http://www.w3.org/2000/svg" viewBox="0 0 425 512"><path d="M213.5 291.5q21.5 0 41 5.75t36.25 16 30 24.75T343 370q-14.5 13.5-34 13.5h-23q-12-17-31-27t-41.5-10-41.25 10-30.75 27H109q-15 0-27.5-8.5 8.5-18.5 22-33.75T134.25 315t37.25-17.25 42-6.25zm-91-16q-2-5.5 0-8.25t3.5-3.75q19-8.5 39.75-13.5t43.25-5q22 0 42.5 4.25t39 13.75q3 1 5 4.75t0 7.75q-3.5 8-12 4-17-7.5-35.75-11.75T209 263.5q-40.5 0-76 17-2 1-5.25.5t-5.25-5.5zM328 177q0 6-4.25 10.25t-10.25 4.25q-1 0-1.5-.25t-1.5-.25q-24-9.5-49.25-14.5t-52.25-5-52.25 5T107.5 191q-1 0-1.5.25t-1.5.25q-6 0-10-4.25t-4-10.25q0-8 6.5-12 26.5-10 54.25-15.5T209 144q29.5 0 57.25 5.5T320 165q8 3.5 8 12zm-19.5 43q3.5 3.5 3.5 7l-2 6q-3 4-8 4-1 0-1.25-.25t-1.25-.25q-21-9-43.5-14t-47-5q-47.5 0-90 18.5-1 .5-3 .5-5 0-8-4l-2-5.5q0-3.5 3.5-7 23-10 47.75-15.5T209 199t51.75 5.5T308.5 220z"/></svg>