<svg xmlns="http://www.w3.org/2000/svg" viewBox="0 0 425 512"><path d="M329 294q2.5 18-3 33.75t-15.75 27.5T287 374t-25.5 7q-24 0-41.75-8.5t-27.25-32q-3.5-8.5-3.5-18t-1.25-17.25-6.25-13-18.5-4.75q-17 1-35.75 2t-32.75-3V259q0 2 2.75 3.25T103 264q8.5 1 20.25-.25T146 260.5q13-2 26-5-16-6-29-15.5-11.5-8.5-22.5-21.5t-15.5-32q-1.5-5.5-2.75-10.25t-2.75-8.75q5-8 12.5-14 2.5 7.5 4.25 15t4.5 14.25 7.25 12.5 12.5 9.25q10.5 4.5 19.25 7.25T175.5 216q7.5 2 14 2-.5-10.5-2.5-20-2-8.5-6-16.75t-12.5-12.75q-7-4-15.5-9.5t-16.5-13.5q1.5 0 3 .5t3.5.5h20.5q16 6.5 26.75 16t17.5 19 10 17.5 3.25 12q9-7 15-15 5.5-6.5 8.25-14.5T243 166t-10-13.5-13-6h27q8 3.5 13 9.5t7.25 13.25 1.25 15.25T264 199q-10 18-12.25 29.25T262 240q6 .5 16.25 2.25T299 249.5t19 16 11 28.5zm-26.5 28.5q3.5-9.5 3.25-19T302 285.75t-10-14.25-15.5-9-18-2-17.25 5.5-14.5 12-9.75 17q-3.5 10-3.25 19.5t3.75 17.75 10 14.25 15.5 9 18 1.75 17.25-5.75 14.5-11.75 9.75-17.25zm-27-34.5q6.5 2 10.75 7.75T290.5 309q0 9-5.5 15.25t-14 6.25-14.25-6.25T251 309q0-4 1.5-8 4.5.5 9 .25t7.5-2.75q4-2.5 6.5-10.5z"/></svg>