<svg xmlns="http://www.w3.org/2000/svg" viewBox="0 0 425 512"><path d="M292 344h-17q-9 0-17.75-4.25t-16-11.5-11.5-16.25-4.25-18v-60.5q0-4.5-1-5.5-.5 0-2-.5-3-1-8.5-1h-71.5q-4 3-5.5 8 1 1 3 2.75t6.5 4.25l32.5 13q13 7.5 21.75 21.75t8.75 27.25q0 8-3.5 15.25t-9.5 13-14 9-17 3.25h-84v-39h84q1.5 0 2.5-.75t2-1.75q-1-2.5-3.5-6.75t-6.5-7.25L127.5 276q-4-2.5-9.25-6t-9.75-8.5-7.75-11.25-3.25-14.75q0-7.5 3.25-15.75t9.25-15.5 14-12 17.5-4.75H214q17 0 27 5.25t15.25 12.5T263 220.5t1.5 13V294q.5 2.5 4.5 6.5t6.5 4.5H292q2.5-1 6.75-5.5T304 292V161h39v131.5q0 9-4.5 18.25t-12 16.5-16.5 12-18 4.75z"/></svg>