<svg xmlns="http://www.w3.org/2000/svg" viewBox="0 0 425 512"><path d="M336.5 178.5q-11 16-25.5 26v7q0 25-9.5 50.75t-27.75 46.5-45.25 34-62 13.25q-22 0-41.5-6t-36.5-17q3 .5 6 .75t6 .25q18 0 34.25-6T164 312q-17-.5-29.75-10.25T116.5 276.5q2.5 1 4.75 1H126q7 0 13-1.5-17.5-4-29-17.75T98.5 226v-.5q5.5 2.5 11 4.25t12 1.75q-10-7-16.25-18t-6.25-24q0-14 7-25.5 19 23 46 37.25T210.5 217q-1.5-6-1.5-11.5 0-10.5 4-19.75t11-16.25 16.25-11 19.75-4q11 0 20.5 4.25T297 170.5q9-1.5 17-4.75t15.5-7.75q-6 18.5-22.5 28.5 16-2.5 29.5-8z"/></svg>