<svg xmlns="http://www.w3.org/2000/svg" viewBox="0 0 425 512"><path d="M273 152.5q12 0 22.25 4.5t18 12.5T325.5 188t4.5 23-4.5 23.25-12.25 18.5-18 12.25-22.25 4.5h-45.5l28 91.5H160v-28l-65 20.5V274l65 18.5v-23h-13q-10 0-19-4.5t-16-12-11.25-18-4.25-22.5q0-12.5 5.25-23.25t14-19 20-13T159 152.5q10.5 0 20 4.25t17 11.5 12.5 16.5T215 204h2q1.5-10 6.5-19.25t12.5-16.5 17-11.5 20-4.25zM159 229q7 0 11.5-5t4.5-12-4.5-11.75-11.5-4.75-11.5 4.75T143 212t4.5 12 11.5 5zm115.5 0q7 0 11.5-5t4.5-12-4.5-11.75-11.5-4.75-11.5 4.75-4.5 11.75 4.5 12 11.5 5z"/></svg>