<svg xmlns="http://www.w3.org/2000/svg" viewBox="0 0 425 512"><path d="M94.5 234q11.5-13 23.5-23.5 10-9 22.5-17t24-10.5q12-2 18.75 5.5t10.5 19.5 5.75 26.5 5 25.5q5.5 21.5 10 33.25T224 305t13.75-11 18.75-29.5q5-9 5.25-17.25T258 234t-11.5-5.75-17.5 5.25q2.5-15.5 12-26.75T262.5 189t25.25-8 23.25 3 15.25 15.5 2.25 28.5q-5 26.5-19.5 50.5t-31.5 43-33.25 32.25T219.5 372q-8.5 5.5-16 5t-14-4-11.5-9.25-8-11.25q-2-4-5.5-13.5t-7.25-21.5-8-25.25-8-24.5-6.75-19T130 239q-2.5-2.5-7-2t-8.5 2.5q-5 2-10.5 6.5l-9.5-12z"/></svg>