<svg xmlns="http://www.w3.org/2000/svg" viewBox="0 0 425 512"><path d="M183.5 210q-1-2.5-2-4.5T180 202t-1-2.5q-3-6.5-4.75-10T171 184t-3.25-2.75T163 180q-3 0-3-1.5V173l.5-1H207l1.5.5v5.5q0 2-2.5 2l-3.5.5q-6.5 1-6 4.25t4.5 12.75l54 122 2 .5 47.5-125.5q3-7-.5-10.5-2-1.5-3.75-2.5t-5.75-1l-4.5-.5q-1 0-1.5-.5t-.5-1.5v-5.5l.5-.5h54l.5.5v5.5q0 2-2 2-11 1-16 5-2.5 2.5-4.5 5.75t-3 7.25l-24 60q-5 12-10 24.75t-9.75 24.5T265 329t-7 17q-8 18.5-16 0-4-9-10.5-25.25T218 288.5q-8-18.5-16.5-39.5zm86.5-38h-44l-.5.5v5.5q0 1 .5 1.5t1.5.5l2.5.5q7 0 8.5 2.5 1 1.5 1.25 3.75t-2.25 7.75l-57 125.5-1.5-.5Q167.5 292 157.5 268q-4.5-10.5-9-21.25T140 226t-7.5-18.5T127 193q-2-4.5-2-7.5 0-5 8-5l6-.5q2.5 0 2.5-2v-5l-.5-.5H82l-.5.5v5.5q0 1.5 3.5 1.5 10 1 12.5 3.5 1 1.5 2.75 4.75T104 197q5.5 15 13.75 34.5t16.75 40 16.75 40.25 14.25 34.75q3.5 8.5 7.5 9t9-9.5q4-9 11.5-25t14.5-32q8.5-18.5 17.5-39.5L250 198q2.5-4 4.25-7.5t2.75-5q2.5-3.5 4.25-4.25t7.25-1.25q2 0 2-2v-5.5z"/></svg>