<svg xmlns="http://www.w3.org/2000/svg" viewBox="0 0 425 512"><path d="M95 259q0-25 10-48l56 154q-29.5-14.5-47.75-42.75T95 259zm197-6q0 15.5-9 38l-12 39.5L228.5 204q2.5 0 5-.25t4.5-.25 4-.5q5-1 4.5-5.5t-5-4.5q-6 .5-11.5 1-5 .5-10.25.5h-19.5L190 194l-11-1q-5 0-5.25 4.75T178 203q2 .5 4 .5t4 .25 4.5.25l18.5 50-26 77.5L140.5 204q2.5 0 5-.25t4.5-.25 4-.5q4.5-1 4.25-5.5T153 193l-11 1q-5 .5-10.5.5H114q16-24 41.75-38.5t56.75-14.5q23 0 43.25 8.25T292 172.5h-1.5q-8.5 0-14.25 6.25T270.5 193q0 7.5 3.5 14t8 14q3.5 5.5 6.75 13.25T292 253zm-41.5 115.5q.5.5.5.75t.5.75q-19.5 7-39 7-8.5 0-17-1.25T179 372l35.5-102.5zm65-166q14.5 26 14.5 56.5 0 33-16 59.75T271.5 361l36-104q5-13 7-23.25t2-18.75q0-3.5-.25-6.5t-.75-6z"/></svg>