<svg xmlns="http://www.w3.org/2000/svg" viewBox="0 0 425 512"><path d="M292.5 219q-2.5 1-13 9.25T257 247t-22 20.75-11.5 14.75q-.5 1.5-.5 9t.25 16 .5 16.25.75 9.75q1.5.5 6.75.5H254l7.5.5-1 12.5q-2 0-8.75-.25T236 346.5h-36q-4 0-11.25.25t-15.25.5-15.5.25h-11.5l2-12q2 0 6.75-.25t10-.5 10-1.25T182 330q1-1 1.5-8t.5-15.25-.25-15.75-.75-10q-.5-1.5-4.75-8t-10.5-15.5-14-19.25-15-19.75-13.25-16.75T116 191H81.5v-13h118v13H163q6 10 12.75 20.25t13.25 19.5 12.25 17.5 9.25 13.25l47-44.5H230l-4-13h104l-9.5 9.5q-.5 0-.5-.5l-3 4h-18.5q-2 0-3.5 1t-2.5 1zm16.5 17.5q1.5 0 6.5.75t10.75 1.25 10.75 1 6 .5l-18 77-16-1.5v-79zm7.5 92.5l9 .5L323 348l-8.5-1-8-.5v-19z"/></svg>