<svg xmlns="http://www.w3.org/2000/svg" viewBox="0 0 425 512"><path d="M146.5 168q-1.5-2-3-3.75t-1.75-3.75 1.75-5 8-7.5q4.5-3.5 11-6t13-3.75 12.5-1.5 9.5.25q15 3 15 14l.5 85q.5 5-1.75 8.75t-5.75 4.75q-3.5.5-7.5-2.25t-6.5-6.75zm89 96q-2-4-1.25-9t4.25-9l25-30q3.5-4 8.5-4t10.5 4q2.5 2.5 5.75 6.25t6.25 8 5.25 8.25 3.25 6q1.5 4 .5 10t-7 7l-44 8.5q-5 1-9.75-.75T235.5 264zm4 47.5q-2.5-4.5-3-8.75T238 297t6.5-1.5 9.5 1l39.5 11.5q5 1 7.5 6t.5 11.5q-1 3-4 8l-6 10q-3.5 5.5-8 12-2.5 4.5-9.75 5t-9.75-4zm-48 .5q3-4 7.75-6.25t8.25-2.25q3.5.5 5.75 4.25t2.25 8.75l-1 52.5q-.5 5.5-6.75 9.25T197 380l-33-11q-4.5-2-6-8.75t2-10.75zm-7.5-47q5 2 8 6t2.5 8q-1 4-4.5 8t-8 6l-45.5 15.5q-4.5 2-9.25-1.25t-5.75-8.75q-.5-2.5-.5-8.75V276.5q0-8 .5-17.5 1.5-7 6-10.75t9-1.75z"/></svg>