<svg xmlns="http://www.w3.org/2000/svg" viewBox="0 0 425 512"><path d="M107 136.5h21.5l14 48.5h1.5l13.5-48.5H179l-25 71v50h-21.5v-48zm73.5 52q0-10.5 8-16.5 7.5-6 20.5-6 12.5 0 19.5 6.5 7.5 7 7.5 16.5v46.5q0 11.5-7 17.5-8 7-20.5 7t-20.5-7q-7.5-6.5-7.5-18v-46.5zm20 48q0 4 2 6 1 1 2.25 1.5t3.75.5q3.5 0 6-2.5 2-1.5 2-5.5V188q0-3-2-4.5-2-2-6-2t-6 2q-2 1.5-2 4.5v48.5zm106-68.5v89.5H287v-10q-4.5 5.5-11 8.5-5.5 3-11 3-6 0-10-4-3.5-5-3.5-12v-75H271v68.5q0 4 1 4.5 1.5 1.5 4 1.5 1.5 0 5.5-1.5 4-3 5.5-5v-68h19.5zm-153 92H95v15.5h19.5v94h19v-94h20V260zm39 90q-2 3-5.5 4.5-2.5 1.5-4.5 1.5-1.5 0-3.5-1-1-2-1-4.5v-62h-17v68q0 7 3 10.5 3 4 9 4 5 0 9.5-3 5.5-2.5 10-7.5v9h17v-81h-17V350zm74.5-57.5q-5-5-12.5-5-4 0-8 2-2.5 1-7 5.5v-35h-17v109.5h17v-6q1.5 2 3.25 3.25t3.75 2.25q4.5 1.5 9 1.5 7.5 0 11.5-4.5 4-4 4-13v-45q0-10-4-15.5zm-13.5 58q0 4-1.5 5.5-1.5 2-4.5 2-1 0-4-1-1.5-.5-4-3v-50.5q1.5-1.5 3.5-2.5 1-.5 3.5-.5 3.5 0 5.5 2 1.5 2.5 1.5 6.5v41.5zM330 331v-20.5q0-11-6-18-7-6-18-6-12 0-18.5 6.5-7.5 7-7.5 17.5v36q0 11 6.5 18.5 7 7 18 7 12.5 0 19-6.5 6.5-6 6.5-19v-4h-17.5v4q0 7-1.5 9-2 2-6 2t-6-2.5q-1.5-2-1.5-8.5V331H330zm-32.5-21q0-5 2-7 1.5-2.5 5.5-2.5 3.5 0 6 2.5 1.5 2.5 1.5 7v8.5h-15V310z"/></svg>