<svg xmlns="http://www.w3.org/2000/svg" viewBox="0 0 918.6 94.22"><title>Asset 4</title><path d="M0,36.32V27H30.16v9.28H20.24V67.64H10V36.32Z" fill="#fff"/><path d="M63.39,36.32h-15v5.74h13.8v9.22H48.37v7.13H63.92v9.22H38V27H63.39Z" fill="#fff"/><path d="M110.14,26.93h3.71V67.64H103.24V49.54l-8.64,9H93.44l-8.58-9v18.1H74.24V26.93h3.83L94,44.56Z" fill="#fff"/><path d="M125.63,67.64V27h17.86c19.43.06,19.43,30.22,0,30.22H136V67.64Zm17.81-31.32c-2.44-.06-5,0-7.42,0v11.6h7.42C149.12,47.92,149.46,36.38,143.43,36.32Z" fill="#fff"/><path d="M177.71,58.3h14.73v9.34H167.27V27h10.44Z" fill="#fff"/><path d="M226.37,36.32h-15v5.74h13.8v9.22h-13.8v7.13h15.54v9.22H201V27h25.35Z" fill="#fff"/><path d="M273.12,26.93h3.71V67.64H266.22V49.54l-8.64,9h-1.16l-8.58-9v18.1H237.22V26.93H241l15.89,17.63Z" fill="#fff"/><path d="M304.9,43,294.58,67.64H284.43V66.13L302.7,26.52h4.47l18.33,39.61v1.51H315.34Z" fill="#fff"/><path d="M343,47.69v20H332.28V26.87H336l20.53,20.07V27h10.61V67.7h-3.71Z" fill="#fff"/><path d="M572,26.37c8.41,0,17.52,4.58,19.08,15.43H580.89c-1.45-4.12-4.52-6-8.87-6-6.09,0-10.09,4.58-10.09,11.31,0,6,3.94,11.19,10.09,11.25,4.41,0,7.95-2.2,9-6.55h10.21c-1.51,11.48-10.61,16-19.26,16-10.32.06-20.76-6.9-20.82-20.71S561.69,26.37,572,26.37Z" fill="#fff"/><path d="M636.39,65.93v1.51h-11.6l-7-11.95h-5.39V67.44H602.06V26.84h17.81c15.95.06,18.85,19.26,8.58,26.22ZM619.86,36.12c-2.44-.06-5,0-7.42,0V46.27h7.42C625.49,46.27,625.78,36.18,619.86,36.12Z" fill="#fff"/><path d="M670.9,36.12h-15v5.74h13.8v9.22h-13.8v7.13h15.54v9.22H645.56V26.84H670.9Z" fill="#fff"/><path d="M706.69,62.33h-16l-2.38,5.1H678.15V65.93l18.27-39.61h4.47l18.33,39.61v1.51H709.07Zm-8.06-19.54L694,53.46h9.28Z" fill="#fff"/><path d="M720.72,36.12V26.84h30.16v9.28H741V67.44H730.7V36.12Z" fill="#fff"/><path d="M777.45,58.33v9.11H756.86V58.33H762V35.89h-4.76v-9H777v9h-4.76V58.33Z" fill="#fff"/><path d="M803.6,49.81h.29l9.28-23h10V28.4L805.92,67.9h-4.41l-17.4-39.5V26.84h10Z" fill="#fff"/><path d="M857.89,36.12h-15v5.74h13.8v9.22h-13.8v7.13h15.54v9.22H832.55V26.84h25.35Z" fill="#fff"/><polygon points="414.09 33.34 414.09 94.22 508.29 94.22 508.29 33.34 480.75 33.34 480.75 66.68 441.63 66.68 441.63 33.34 414.09 33.34" fill="#ffeedb"/><polygon points="508.29 0 414.09 0 414.09 27.54 447.42 27.54 447.42 60.88 474.96 60.88 474.96 27.54 508.29 27.54 508.29 0" fill="#e30053"/><rect x="551.6" y="26.72" width="367" height="41.12" fill="none"/></svg>