<svg xmlns="http://www.w3.org/2000/svg" viewBox="0 0 71.42 71.42"><title>Asset 1</title><path d="M48.86,46.2C57,45.13,60.71,40,60.71,35.24s-3.74-9.9-11.85-11a14.45,14.45,0,0,0-2.18-.2v-.92C46.67,19,48.07,19,49.41,19V17H44.67v3.89a11.2,11.2,0,0,0-8-4.22v0h-1a11.28,11.28,0,0,0-9,4.27V17H22v2c2.55,0,2.74,1.65,2.74,4.17v.92a14.44,14.44,0,0,0-2.18.2c-8.11,1.06-11.86,6.17-11.86,11s3.74,9.9,11.86,11a14.44,14.44,0,0,0,2.18.2V49c0,4.17-1.39,4.17-2.74,4.17v2h4.74V50.4a11.2,11.2,0,0,0,8,4.22v0h1a11.28,11.28,0,0,0,9-4.27v4.81h4.74v-2c-2.55,0-2.74-1.65-2.74-4.17V46.4A14.45,14.45,0,0,0,48.86,46.2ZM46.67,27.62V26.1a20.94,20.94,0,0,1,2.49.24,9,9,0,0,1,0,17.79,20.94,20.94,0,0,1-2.49.24V27.62Zm-2-1V37.8c-1.55-1.84-4.25-3.16-9-3.16s-7-4.16-7-8A9,9,0,0,1,30.46,21a6.46,6.46,0,0,1,5.25-2.44C40.65,18.6,44.67,22.2,44.67,26.62Zm-19.92,17v.73a20.94,20.94,0,0,1-2.48-.24,9,9,0,0,1,0-17.79,20.94,20.94,0,0,1,2.48-.24V43.65Zm2,1V33.14c1.82,2.28,4.85,3.49,9,3.49,5,0,7.26,4.15,7.26,8a8.8,8.8,0,0,1-1.84,5.57,6.74,6.74,0,0,1-5.42,2.45C30.77,52.66,26.75,49.07,26.75,44.65Z" fill="#231f20"/><path d="M35.71,71.42A35.71,35.71,0,1,1,71.42,35.71,35.75,35.75,0,0,1,35.71,71.42ZM35.71,2A33.71,33.71,0,1,0,69.42,35.71,33.75,33.75,0,0,0,35.71,2Z" fill="#231f20"/><path d="M35.69,66.69a31,31,0,1,1,31-31A31,31,0,0,1,35.69,66.69Zm0-61a30,30,0,1,0,30,30A30,30,0,0,0,35.69,5.69Z" fill="#231f20"/></svg>